<?xml version="1.0" encoding="utf-8"?>
<!-- Generator: Adobe Illustrator 19.0.0, SVG Export Plug-In . SVG Version: 6.00 Build 0)  -->
<svg version="1.1" xmlns="http://www.w3.org/2000/svg" xmlns:xlink="http://www.w3.org/1999/xlink" x="0px" y="0px"
	 viewBox="216 148.4 34.1 34.1" style="enable-background:new 216 148.4 34.1 34.1;" xml:space="preserve">
<style type="text/css">
	.st0{display:none;}
	.st1{display:inline;}
	.st2{display:inline;fill:#FF1200;}
	.st3{fill:#FF1200;}
</style>
<g id="Capa_1" class="st0">
	<g class="st1">
		<g>
			<path d="M231.5,157.2h2.6c0.1,0,0.2-0.1,0.2-0.1v-0.7c0,0-0.1,0-0.1,0H234c-0.3,0-0.5-0.2-0.5-0.5v-0.2c0-0.3,0.2-0.5,0.5-0.5
				h0.2c0,0,0.1,0,0.1,0v-0.7c0-0.1-0.1-0.1-0.2-0.1h-2.6c-0.1,0-0.2,0.1-0.2,0.1v2.6C231.3,157.1,231.4,157.2,231.5,157.2z"/>
			<path d="M236.6,158.6h-0.7c-0.2-0.4-0.6-0.6-1-0.6h-4.2c-0.4,0-0.8,0.2-1,0.6H229c-0.6,0-1.2,0.5-1.2,1.2v0.2
				c0,0.3,0.1,0.6,0.3,0.8v14.5c-0.2,0.2-0.3,0.5-0.3,0.8v0.2c0,0.7,0.5,1.2,1.2,1.2h7.6c0.7,0,1.2-0.5,1.2-1.2v-0.2
				c0-0.3-0.1-0.6-0.3-0.8v-14.5c0.2-0.2,0.3-0.5,0.3-0.8v-0.2C237.8,159.2,237.3,158.6,236.6,158.6z M236.2,169.4
				c0,0.4-0.3,0.7-0.7,0.7s-0.7-0.3-0.7-0.7v-1.2c0-0.4,0.3-0.7,0.7-0.7s0.7,0.3,0.7,0.7V169.4z M236.2,166c0,0.4-0.3,0.7-0.7,0.7
				s-0.7-0.3-0.7-0.7v-4c0-0.4,0.3-0.7,0.7-0.7s0.7,0.3,0.7,0.7V166z"/>
			<path d="M238.8,154c0.1,0,0.1-0.1,0.2-0.2c0-0.1,0-0.1,0-0.2c0-0.1-0.1-0.2-0.3-0.2c0,0-0.1,0-0.1,0l-4,1.7L238.8,154
				C238.7,154,238.7,154,238.8,154z"/>
			<path d="M238.8,157.4C238.7,157.4,238.7,157.4,238.8,157.4l-4.2-1.2l4,1.7c0,0,0.1,0,0.1,0c0.1,0,0.2-0.1,0.3-0.2
				c0-0.1,0-0.1,0-0.2C238.9,157.5,238.8,157.5,238.8,157.4z"/>
		</g>
	</g>
	<path class="st2" d="M233,148.5c-9.4,0-17,7.6-17,17c0,9.4,7.6,17,17,17c9.4,0,17-7.6,17-17C250,156.1,242.4,148.5,233,148.5z
		 M219,165.5c0-7.7,6.3-14,14-14c3.7,0,7,1.4,9.5,3.8l-20,19.5C220.4,172.2,219,169,219,165.5z M233,179.5c-3.1,0-6-1-8.3-2.7
		l19.8-19.2c1.6,2.3,2.5,5,2.5,8C247,173.2,240.8,179.5,233,179.5z"/>
</g>
<g id="Layer_2" class="st0">
	<g class="st1">
		<g>
			<g>
				<path class="st3" d="M249.4,175.8L235.6,153c-0.5-0.9-1.5-1.5-2.6-1.5c-1.1,0-2,0.6-2.6,1.5l-13.8,22.9c-0.6,0.9-0.6,2.1,0,3
					c0.5,0.9,1.5,1.5,2.6,1.5h27.6c1.1,0,2.1-0.6,2.6-1.5C250,177.9,250,176.7,249.4,175.8z M247.5,177.8c-0.1,0.3-0.4,0.4-0.7,0.4
					h-27.6c-0.3,0-0.6-0.2-0.7-0.4c-0.1-0.3-0.1-0.6,0-0.8l13.8-22.9c0.1-0.2,0.4-0.4,0.7-0.4c0.3,0,0.6,0.2,0.7,0.4l13.8,22.9
					C247.7,177.2,247.7,177.5,247.5,177.8z"/>
			</g>
		</g>
		<g>
			<g>
				<path class="st3" d="M233,160.5c-0.8,0-1.5,0.4-1.5,1.2c0,2.4,0.3,5.9,0.3,8.3c0,0.6,0.5,0.9,1.2,0.9c0.5,0,1.2-0.3,1.2-0.9
					c0-2.4,0.3-5.9,0.3-8.3C234.5,160.9,233.8,160.5,233,160.5z"/>
			</g>
		</g>
		<g>
			<g>
				<path class="st3" d="M233.1,172.3c-0.9,0-1.6,0.7-1.6,1.6c0,0.8,0.7,1.6,1.6,1.6c0.8,0,1.5-0.7,1.5-1.6
					C234.6,173,233.9,172.3,233.1,172.3z"/>
			</g>
		</g>
	</g>
</g>
<g id="Layer_3">
	<g>
		<g>
			<g>
				<path class="st3" d="M226.8,154.6c-0.1-0.1-0.2-0.3-0.3-0.4c-0.1-0.1-0.3-0.2-0.4-0.2c-0.2-0.1-0.4-0.1-0.6-0.2l-0.2,0v-1.1
					c0.1,0,0.2,0,0.3,0.1c0.1,0,0.2,0.1,0.3,0.1c0.1,0,0.2,0.1,0.2,0.1c0.1,0,0.1,0.1,0.1,0.1l0.4-0.7c-0.2-0.1-0.4-0.2-0.6-0.3
					c-0.2-0.1-0.5-0.1-0.7-0.2v-0.6H225v0.6c-0.2,0-0.4,0.1-0.6,0.1c-0.2,0.1-0.3,0.2-0.4,0.3c-0.1,0.1-0.2,0.3-0.3,0.4
					c-0.1,0.2-0.1,0.3-0.1,0.6c0,0.2,0,0.3,0.1,0.4c0.1,0.1,0.1,0.2,0.2,0.3c0.1,0.1,0.2,0.2,0.4,0.2c0.2,0.1,0.3,0.1,0.5,0.2
					c0,0,0.1,0,0.1,0c0,0,0.1,0,0.1,0v1.1c-0.1,0-0.3,0-0.4-0.1c-0.1,0-0.3-0.1-0.4-0.1c-0.1-0.1-0.2-0.1-0.3-0.2
					c-0.1-0.1-0.1-0.1-0.2-0.1l-0.4,0.7c0.2,0.2,0.5,0.3,0.7,0.4c0.3,0.1,0.6,0.2,0.8,0.2v0.7h0.4v-0.7c0.2,0,0.4,0,0.6-0.1
					c0.2-0.1,0.3-0.1,0.5-0.2c0.1-0.1,0.2-0.2,0.3-0.4s0.1-0.4,0.1-0.6C226.9,154.9,226.9,154.8,226.8,154.6z M225.1,153.7
					c-0.2-0.1-0.3-0.1-0.4-0.2c-0.1-0.1-0.1-0.2-0.1-0.3c0-0.3,0.2-0.5,0.6-0.5V153.7L225.1,153.7z M225.3,155.7v-1
					c0.2,0.1,0.4,0.1,0.5,0.2c0.1,0.1,0.2,0.2,0.2,0.3C226,155.5,225.8,155.7,225.3,155.7z"/>
			</g>
		</g>
		<g>
			<g>
				<path class="st3" d="M227.1,175.5v4.5h4.5v-4.5H227.1z M230.5,179h-2.4v-2.4h2.4V179z"/>
			</g>
		</g>
		<g>
			<g>
				<path class="st3" d="M233,175.5v4.5h4.5v-4.5H233z M236.4,179H234v-2.4h2.4V179z"/>
			</g>
		</g>
		<g>
			<g>
				<path class="st3" d="M227.1,169.9v4.5h4.5v-4.5H227.1z M230.5,173.3h-2.4v-2.4h2.4V173.3z"/>
			</g>
		</g>
		<g>
			<g>
				<path class="st3" d="M233,169.9v4.5h4.5v-4.5H233z M236.4,173.3H234v-2.4h2.4V173.3z"/>
			</g>
		</g>
		<g>
			<g>
				<path class="st3" d="M227.1,164.2v4.5h4.5v-4.5H227.1z M230.5,167.6h-2.4v-2.4h2.4V167.6z"/>
			</g>
		</g>
		<g>
			<g>
				<path class="st3" d="M238.4,164.2v4.5h4.5v-4.5H238.4z M241.9,167.6h-2.4v-2.4h2.4V167.6z"/>
			</g>
		</g>
		<g>
			<g>
				<path class="st3" d="M233,164.2v4.5h4.5v-4.5H233z M236.4,167.6H234v-2.4h2.4V167.6z"/>
			</g>
		</g>
		<g>
			<g>
				<rect x="224.8" y="161.2" class="st3" width="1" height="1"/>
			</g>
		</g>
		<g>
			<g>
				<path class="st3" d="M230.8,153c-0.7-2.5-2.9-4.3-5.6-4.3c-3.2,0-5.8,2.6-5.8,5.8c0,3.2,2.6,5.8,5.8,5.8c0.7,0,1.3-0.1,1.9-0.3
					v2.3h15.8v-7h-12c0-0.2,0-0.5,0-0.7c0-0.2,0-0.3,0-0.5h13.2v27.2h-18.3v-17.8h-1v18.8h20.3V153H230.8z M225.2,159.2
					c-2.6,0-4.8-2.1-4.8-4.8c0-2.6,2.1-4.8,4.8-4.8c2.6,0,4.8,2.1,4.8,4.8C229.9,157.1,227.8,159.2,225.2,159.2z M241.9,156.2v5
					h-13.8v-1.7c1.2-0.7,2.2-1.9,2.6-3.3H241.9z"/>
			</g>
		</g>
		<g>
			<g>
				<rect x="238.4" y="175.2" class="st3" width="1" height="1"/>
			</g>
		</g>
		<g>
			<g>
				<polygon class="st3" points="238.4,169.9 238.4,173.9 239.5,173.9 239.5,170.9 241.9,170.9 241.9,179 239.5,179 239.5,177.4 
					238.4,177.4 238.4,180 242.9,180 242.9,169.9 				"/>
			</g>
		</g>
	</g>
</g>
</svg>
