<?xml version="1.0" encoding="utf-8"?>
<!-- Generator: Adobe Illustrator 19.0.0, SVG Export Plug-In . SVG Version: 6.00 Build 0)  -->
<svg version="1.1" id="Layer_1" xmlns="http://www.w3.org/2000/svg" xmlns:xlink="http://www.w3.org/1999/xlink" x="0px" y="0px"
	 viewBox="301.5 0 548 540" style="enable-background:new 301.5 0 548 540;" xml:space="preserve">
<style type="text/css">
	.st0{fill:#FFFFFF;}
</style>
<g>
	<g>
		<path class="st0" d="M846,464.4c0-11.2-9.1-20.2-20.2-20.2H568.7V249c-7.5,4.4-16,6.3-24.9,5.4v238.8c0,6.9,5.6,12.5,12.5,12.5
			h16.4c0-0.2,0-0.3,0-0.5c0-4.1,0.5-8.2,1.5-12c5.4-21.1,24.5-36.8,47.3-36.8c22.8,0,41.9,15.7,47.3,36.8c1,3.8,1.5,7.9,1.5,12
			c0,0.2,0,0.3,0,0.5h52c0-0.2,0-0.3,0-0.5c0-4.1,0.5-8.2,1.5-12c5.4-21.1,24.5-36.8,47.3-36.8c22.8,0,41.9,15.7,47.3,36.8
			c1,3.8,1.5,7.9,1.5,12c0,0.2,0,0.3,0,0.5h13.9c6.9,0,12.5-5.6,12.5-12.5L846,464.4z"/>
	</g>
</g>
<g>
	<g>
		<path class="st0" d="M551.1,225c-8.3-1.3-61.3-9.3-72.6-11.1l-34-73.2l44,53.3l10.2-37.6c4.6-16.9-5.4-34.3-22.3-38.8l-48-12.9
			c-11.8-3.2-24.4-1.3-34.8,5l-77.5,47.6c-5.6,3.5-9.3,9.4-10,16c-0.6,6.6,1.8,13.1,6.7,17.6l41.9,39c-0.2,0.9-7.5,28-11.4,42.8
			c-1.6,6.2-1.7,12.5-0.3,18.7c4.5,19.6,15.4,66.2,25.7,109.1l-13.9,107.8c-1.7,13.5,7.8,25.9,21.4,27.7
			c13.6,1.7,25.9-7.8,27.7-21.4l14.5-112.3c0.4-3,0.2-6-0.5-9l-23.5-96.9l0.4,0.1c0.9,2-3.6-6,58.2,102.4L441,508.7
			c-1.5,13.6,8.3,25.8,21.9,27.3c13.5,1.5,25.8-8.3,27.3-21.9L503,396.3c0.6-5.2-0.5-10.4-3.1-14.9l-42.1-73.9l8.6-31.7l-8.6-1.3
			c-18.7-2.8-30.8-17.8-32.9-28l-17.6-85l37.6,80.8c3,6.4,8.9,11,16.1,12l83.9,12.8c11.6,1.8,22.4-6.2,24.2-17.8
			C570.6,237.6,562.7,226.8,551.1,225z M367.2,183.5l-5.1-4.8l7.7-4.8L367.2,183.5z"/>
	</g>
</g>
<g>
	<g>
		<circle class="st0" cx="473.6" cy="50.7" r="46.9"/>
	</g>
</g>
<g>
	<g>
		<path class="st0" d="M782,202H620.2c-7.9,0-14.2,6.4-14.2,14.2v176.7c0,7.9,6.4,14.2,14.2,14.2H782c7.9,0,14.2-6.4,14.2-14.2
			V216.2C796.2,208.3,789.8,202,782,202z M765.4,339.5c-0.4,0.9-1.2,1.4-2.1,1.4h-6.8v29.7c0,2.6-2.1,4.6-4.6,4.6h-17.3
			c-2.6,0-4.6-2.1-4.6-4.6v-29.7h-6.8c-0.9,0-1.8-0.6-2.1-1.4c-0.4-0.9-0.2-1.9,0.5-2.5l20-20c0.9-0.9,2.4-0.9,3.3,0l20,20
			C765.6,337.6,765.8,338.6,765.4,339.5z"/>
	</g>
</g>
<g>
	<g>
		<path class="st0" d="M621.4,474.2c-17.1,0-31,13.9-31,31c0,17.1,13.9,31,31,31c17.1,0,31-13.9,31-31
			C652.3,488.1,638.5,474.2,621.4,474.2z M621.4,516.2c-6.1,0-11-4.9-11-11s4.9-11,11-11c6.1,0,11,4.9,11,11
			C632.4,511.3,627.5,516.2,621.4,516.2z"/>
	</g>
</g>
<g>
	<g>
		<path class="st0" d="M770.9,474.2c-17.1,0-31,13.9-31,31c0,17.1,13.9,31,31,31c17.1,0,31-13.9,31-31
			C801.8,488.1,788,474.2,770.9,474.2z M770.9,516.2c-6.1,0-11-4.9-11-11s4.9-11,11-11c6.1,0,11,4.9,11,11
			C781.9,511.3,777,516.2,770.9,516.2z"/>
	</g>
</g>
</svg>
