<?xml version="1.0" encoding="utf-8"?>
<!-- Generator: Adobe Illustrator 19.0.0, SVG Export Plug-In . SVG Version: 6.00 Build 0)  -->
<svg version="1.1" id="Layer_1" xmlns="http://www.w3.org/2000/svg" xmlns:xlink="http://www.w3.org/1999/xlink" x="0px" y="0px"
	 viewBox="0 0 186 269.8" style="enable-background:new 0 0 186 269.8;" xml:space="preserve">
<style type="text/css">
	.st0{fill-rule:evenodd;clip-rule:evenodd;fill:#215D78;}
	.st1{fill-rule:evenodd;clip-rule:evenodd;fill:#3B87C8;}
	.st2{fill-rule:evenodd;clip-rule:evenodd;fill:#3279AA;}
	.st3{fill-rule:evenodd;clip-rule:evenodd;fill:#6D6D6E;}
	.st4{fill-rule:evenodd;clip-rule:evenodd;fill:#616160;}
	.st5{fill-rule:evenodd;clip-rule:evenodd;fill:#555555;}
	.st6{fill-rule:evenodd;clip-rule:evenodd;fill:#2E2C2B;}
	.st7{fill-rule:evenodd;clip-rule:evenodd;fill:#4C4C4C;}
	.st8{fill-rule:evenodd;clip-rule:evenodd;fill:#424242;}
</style>
<path class="st0" d="M45,261.2c-0.6,4-2.5,7-6,9c-3.3-1.4-1.6-5.3-3.5-7.4c0.6-3.2-1.2-4.5-3.9-5.3c-2.3-0.7-4.9-0.8-6.9-2.4
	c-2.4-3.9-2.7-8.2-2.3-12.5c1.5-17.8,0.7-35.6,0.7-53.4c-0.1-28.1,1.4-56.2,2.3-84.3c0.7-21.7,1.3-43.5,3.9-65.2
	c1.1-9.8,2.4-19.5,8.3-27.9c0.6-0.7,1.3-1.2,2.3-1c1.5,0.7,3.1,1.3,3.5,3.2c-3.8,5.7-4.2,12.4-5,18.9c-0.5,4.3,0.5,7.9,3.1,11.6
	C50,56.4,58.4,68.4,64.9,81.6c0.9,1.9,1.8,4.4,4.2,4.5c2.6,0.2,3.3-2.5,4.4-4.2c6.3-9.9,8.9-21.1,10.8-32.5c0.6-3.5,0.6-3.5,3.1-3.9
	c2.8,4.3,1,9.5,2.6,14c0.5,9.7,0.5,19.2-2.7,28.6c-3.1,8.9-3.6,18.2-1.9,27.6c5.6,30.6,6.6,61.5,5.8,92.5c-0.7,1.6-1.5,0.8-2.1,0
	c-1.2-1.6-1.5-3.7-1.9-5.6c-4.6-22.2-9.4-44.3-14.2-66.5c-0.5-2.5-0.3-6.6-3.2-6.6c-2.7-0.1-2.9,4-3.5,6.5
	c-8.7,33.2-17.7,66.3-26.3,99.5c-1.2,4.6-0.7,9.3-0.8,13.9c-0.1,2.9,1.1,4.4,4.1,4.1c2.2-0.2,4.4-0.1,6.2,1.4c1,0.8,1.7,1.7,1.6,3
	c-0.2,1.6-1.5,1.5-2.7,1.5C47.1,259.5,45.5,259.1,45,261.2z"/>
<path class="st0" d="M17.9,23.2c1.1-1.6,2.3-3.1,3.4-4.7c2.8-4,6.7-5.4,11.5-4.5c-0.7,6.9-2.7,13.6-3.6,20.5
	c-2.1,17.2-3,34.4-3.7,51.7c-0.8,20.6-1.9,41.2-2.7,61.8c-1.2,29.4-2.3,58.8-0.6,88.3c0.3,5.3,1.5,10.8-0.6,16.1
	c-3.2-1.3-5.9-4.3-9.8-2.3c-1.8-1.5-3-4-5.9-4c-2.2-8.4-0.5-17-1.4-25.4c-0.2-1.6,0.4-3.3-0.6-4.8c-1.7-1.4-1.7-3.5-1.8-5.4
	c0-5.4-0.4-10.8,0.4-16.2c0.8-1.9,0.7-3.9,0.7-5.9c-0.3-13.5,2.4-26.7,2.5-40.2c0.1-13.1,0.8-26.2,1.9-39.2
	c2.1-26.3,4-52.6,8.1-78.7C16,27.7,15.8,25.1,17.9,23.2z"/>
<path class="st1" d="M21.6,252.3c-2.7-25.9-2.1-51.8-1.6-77.7c0.3-16.9,1.3-33.8,2-50.8c0.6-15.4,1.3-30.8,2-46.3
	c0.8-18.9,2-37.7,5.6-56.3c0.5-2.8,2.4-4.7,3.2-7.2c1-1.9,1.5-3.8,1-6.1c-1.1-6.1,0.7-7.8,7-7.2c1.6,0.1,3.3,0.1,5,0.1
	c6,0,11.4,0.9,13.8,7.5c0.4,0.3,0.7,0.7,0.8,1.2c0,0.8-0.2,1.5-1,2c-1.6,0.6-3,0.1-4.2-1c-3.6-3.5-8.2-3.1-12.7-3.1
	c-2.4,0-2.6,2.3-3.8,3.5c-0.2,1.1,0,2.3-0.8,3.3c-5.4,7.5-6.2,16.5-7.1,25.1c-2,19.5-2.7,39.1-3.4,58.7c-0.6,18.4-1.1,36.9-2,55.3
	c-1.3,27.1-0.1,54.3-1,81.4c-0.2,6.8-0.2,13.5,0.1,20.3C22.7,255.2,22.3,253.6,21.6,252.3z"/>
<path class="st0" d="M108.8,177c-1.2-5.7,2-10.8,2.1-16.4c0-4.5-3.7-8.2-2.3-12.8c0.3-1-0.3-2.4,1.2-3c1.4,2,4,2.9,4.6,5.5
	c-0.2,3-0.2,5.9-0.1,8.9c0.1,4.4-1.3,9.4,4.5,11.7c0.8,0.3,1,1.6,1.3,2.6c0.8,4.3,0.4,8.7,0.5,13.1c-0.4,6.3,0,12.7-0.2,19
	c-0.1,2.5,0.1,5.1-3,6.1c-1.7,0.6-2.1,2.2-1.9,3.7c0.7,4.4-2.5,9.8,3.6,12.8c1.2,0.6,0.5,2.5-0.8,3.3c-1.2,0.7-2.5,0.7-3.9,0.8
	c-4.2,1.7-2.7,5.5-3.1,8.6c2,3.1,5.9,1.7,8.5,3.5c1.3,1.1,1.9,2.7,1.5,4.1c-1.4,5.4-0.1,10.9-1.3,16.2c-2.7-0.1-4.8-1.8-7.2-2.8
	c1.3-5,1.8-9.9-3-13.7c-2.3-1.8-4.4-3.1-4.7,1.5c-0.1,1-0.4,2.5-2.1,2c0-5.5-1.2-10.7,1.6-16.3c1.6-3.3,2.5-8,0.9-12.5
	c-0.8-2.2-0.2-5.8,1.2-7.6c2.7-3.3,3.7-7.6,3-10.6c-1.8-7.9,1.9-15,1.3-22.6C110.5,180.4,110.8,178.3,108.8,177z"/>
<path class="st0" d="M102.7,252c0.9-0.6,0.9-1.6,1.1-2.6c0.2-1.5-1-3.8,0.8-4.4c1.8-0.7,3.8,0.6,5.4,1.8c5.5,4.1,6.8,11.8,2.6,15.3
	c-3.7-0.2-7.7,1.1-10.8-2.1C101.3,257.2,101.3,254.5,102.7,252z"/>
<path class="st1" d="M5.8,246c5.7-4.2,4.4,2,5.9,4c-1,2.6-2.2,5.1-5.3,5.6c-1.1,0.2-2.1-0.6-2.7-1.7C1.9,250.5,4.3,248.4,5.8,246z"
	/>
<path class="st1" d="M78.8,254c2.4-0.7,2.9-3.1,4.2-4.8c3.4-1.1,3.6,1.6,3.9,3.6c0.2,1.7-0.3,3.5-1.1,5.1c-0.9,2.1-2.6,3.2-4.6,2.4
	C78.5,259.2,78.7,256.4,78.8,254z"/>
<path class="st2" d="M85.8,258c-0.7-3,1.8-7.1-2.8-8.8c1.1-3.3,4.1-3.5,6.8-4.2l0,0c0.8,1.6,0.8,3.2,0,4.8
	C88.3,252.5,88.2,255.8,85.8,258z"/>
<path class="st1" d="M35.5,262.8c1.5,0.2,3.7-0.1,2.6,2.7c-0.7,1.8,0,3.2,0.8,4.7c-2.2,1.5-4.1,0.1-5-1.4
	C32.7,266.7,33,264.3,35.5,262.8z"/>
<path class="st2" d="M89.7,249.8c0-1.6,0-3.2,0-4.8c0.3,0,0.6,0,1,0C91,246.7,91.3,248.5,89.7,249.8z"/>
<path class="st1" d="M139.8,13c-1.2,1.8-0.9,3.8-0.9,5.8c-0.1,29.7-0.1,59.4-0.2,89.1c-2,0-1.4-1.5-1.4-2.5c0-24,0-48,0-71.9
	c0-0.6,0-1.2,0.5-1.4c-1.1,1.1-0.5,2.7-0.5,4.1c0,22.6-0.5,45.3,0.2,67.9c0.4,11.7,2.2,23.3,3.5,35c1.8,16.1,5.3,31.9,8.1,47.8
	c2.7,15.4,2.9,30.7,3.2,46.1c0.1,7.1-2.4,13.7-2.5,20.7c-0.1,6.2-2.1,11.3-8,14.2c-4.6,1.1-9.2,2.3-12.9-2.2c-3-6.2-1.3-12.6-1.1-19
	c0.2-4.5,2.5-8.9,1-13.7c-0.6-1.9,1.9-2.6,2.1-4.2c0.8-4.4,0.9-8.7-0.1-13.1c-3.8-1.9-4.5-5-4.4-9c0.2-9.1,0.1-18.3,0.1-27.4
	c-0.7-4.3,1.4-7.3,4.7-9.6c0.6-5.4,0.5-10.9,0-16.3c-0.5-2.7-3.8-1.2-4.7-3.1c-0.2-0.8,0-1.4,0.4-2.1c2.1-1.2,2.6-3,2.7-5.4
	c0.2-3.6-1-7.2,0.5-10.7c2.8-5.6,1-11.6,1.2-17.4c0.1-1.5-1.2-2.3-2.8-2c-1.3,0.2-2.6,0.6-3.5-0.9c-1.2-4.2-0.6-8.6-0.6-12.8
	c0.2-10.7-0.7-21.5,0.5-32.2c0.2-0.5,0.6-0.9,1-1.2c3.5,0.2,4.7-1.6,4.5-4.8c-0.1-2.7,0.1-5.3,0-8c-0.1-2.8-0.1-5.8-4.4-4
	c-0.9,0.4-1.6-0.2-1.9-1.1c-0.5-1.7,0-2.9,1.6-3.7c4.2-1.6,5.1-5.6,2.2-10.5c-4.8-1.9-5.3-3-3.4-8.3c0.6-0.4,1.2-0.4,1.7,0.1
	c1,0.9,1.8,2.6,3.6,1.6c2.2-1.2,1.2-3.1,0.9-4.8c-0.5-2.7-0.1-5.3,1.4-7.7c1-1.3,2.1-2.6,3.7-3.1C137.4,10.9,139.3,10.3,139.8,13z"
	/>
<path class="st0" d="M182.8,217c-5.6,3.7-11.9,4-18.2,3.9c-3.3,0-6.9,2.5-9.9-0.9c-2.4-5.5-1.8-10.2,1.5-12.9c0.3,0,0.5-0.1,0.7-0.2
	c2.6-1.2,5.5,0.3,8.2-0.9c0.3,0.1,0.5,0.1,0.8,0c3.3-1.4,6.9,0.3,10.2-1c0.3,0.1,0.5,0.1,0.8,0c2-0.8,4-0.8,6,0
	C182.7,209,182.8,213,182.8,217z"/>
<path class="st0" d="M128.1,265.9c-0.1-5.6-0.3-11.3-0.3-16.9c0-2-0.6-3.1-2.3-3.8c2.8-4.1,2.8-8.3,0.6-12.6
	c-1.3-15.2-1-30.5-1-45.8c0-2.5-0.3-5,1-7.3c0.4-0.6,0.9-0.8,1.6-0.5c0,9.7,0.1,19.4,0.1,29.2c0,2.6-0.8,5.7,3.7,5.4
	c0.4,0,0.8,1,1.2,1.5c-0.3,0.3-0.7,0.6-1,0.9c-2.5,4.4-2.6,8.8,0,13.2c0.4,0.3,0.7,0.5,1,0.9c-4.2,2.2-1.2,6-2,8.9
	c-2.7,8.9-1.7,17.9-1.9,26.9l-0.4,0L128.1,265.9z"/>
<path class="st0" d="M122.8,244.9c-0.7,0.4-1.9-0.3-2.1,1.1c0.9,2.3,0.7,4.7,0.1,7c-0.8,3.9,0.9,8.1-1.1,11.9c0-5.3,0-10.6-0.1-16
	c0-1.5,0.6-3.5-1.8-4c-0.3-0.6-0.2-1,0.3-1.4C120,242.8,121.9,242.1,122.8,244.9z"/>
<path class="st3" d="M182.7,205c-2,0-4,0-6,0c1.8-1.8,4.1-0.7,6.1-1C182.8,204.3,182.8,204.7,182.7,205z"/>
<path class="st4" d="M89,57.7c-0.1,0.5-0.2,0.9-0.4,1.4c-0.7-4.6-1.3-9.2-2-13.8c0.1-0.1,0.2-0.3,0.3-0.5
	C90.7,47.8,91.4,52.1,89,57.7z"/>
<path class="st5" d="M39.8,12c1.3,0,2.5-0.1,3.8-0.1c1,0.1,2.1,0.3,4.3,0.6c-2.4,0.8-3.8,1.2-5.1,1.6C41.8,13.4,40.8,12.7,39.8,12z"
	/>
<path class="st0" d="M107,18.3c0.3-1.4,0.7-2.9,1-4.3c2.9,0.9,1.8,3.4,2.2,5.3c0.8,3.2,0.3,7.3,5.4,7.4c2.4,2.9,1.5,4.9-1.7,6.5
	c-4,2.2-3.9,8.2,0.2,10.5c1.8,1,3.2,1.9,1.9,4.1c-3.7,0-5.2,1.7-4.8,5.5c0.3,3.1,0,6.3,0.1,9.4c0.1,2.2,0.9,3.6,3.4,2.3
	c1-0.3,2-0.7,2.8,0.4c0.8,1.6,0.9,3.2,0.8,5c-0.1,11.6,0,23.2-0.1,34.8c0,2.7,0.1,5.3-3.1,6.7c-1.5,0.6-1.8,2.3-1.9,3.8
	c-0.1,3.2-0.1,6.3,0,9.5c0,1.6,0.3,3.4,2,3.5c2.5,0.2,3.8,1,3.4,3.6c-0.4,2.2-2.1,2.9-4,2.9c-2.3,0.1-4.4-0.4-4.4-3.4
	c0-0.3-0.2-0.6-0.4-0.9c-3-2.4-2.7-6-1.5-8.6c2.3-5.3,1.2-10.3-0.4-15.2c-0.8-2.5-1.4-5.3-0.5-7.2c2.1-4.4,1.3-8.7,1.2-13
	c-4.1-3.8-5.9-8.1-2.8-13.4c2.8-4.3,1.5-8.7-0.1-12.8c-1.5-3.9-1.9-7.6,0.1-11.5c1.9-3.8,0.8-8.1-0.3-11.6
	C103.4,30.8,105.2,24.7,107,18.3z"/>
<path class="st0" d="M125.8,135.9c-5,0-10,0.1-15,0.1c-1.2-1.5-0.8-3.3-0.9-5c1.2,2.2,2.7,3.5,5.4,3.1c1.6-0.3,2.4-0.8,2.4-2.5
	c0-3.3-1.7-0.6-2.5-0.6c-2-0.1-3.3-0.9-3.3-2.9c-0.1-5-0.1-10,0-15c0-1.2,0.5-2.8,1.7-2.7c4.7,0.3,3.2-3,3.3-5.3
	c0.1-11.8,0.1-23.6,0.2-35.4c3.1,1.5,2.4,4.4,2.4,6.9c0.1,11.3,0.2,22.5,0,33.8c-0.1,6.3,1.2,12.5,1.1,18.8c0,2.3,1,3.8,3.3,4.2
	c0.6,0.2,1.1,0.5,1.6,0.8C126,134.8,126.1,135.3,125.8,135.9z"/>
<path class="st0" d="M111.8,147c2,0,4,0.1,6,0.1c1.4,1.9,0.7,3.3-1.1,4.4c-0.5,0.2-1,0.2-1.5,0.1c-0.8-0.2-1.3-0.8-1.4-1.6
	c-1.8-1.4-4.7-1.9-4.1-5.2c0.3-0.4,0.6-0.7,0.9-1.1C111.9,144.5,110.7,146.1,111.8,147z"/>
<path class="st0" d="M111.8,147c-1.3-0.8-0.9-2.1-1.2-3.2c0-2.2,0.1-4.5,0.1-6.7C112.8,140.1,111.3,143.7,111.8,147z"/>
<path class="st0" d="M126.8,172c-0.3-6.8-0.7-13.5-0.7-20.3c0-3-0.9-3.9-4-3.9c-3.1,0-3.4,1.4-3.4,3.9c0.1,7.1,0.1,14.2,0.1,21.3
	c-0.4-0.7-0.9-2-1.3-2c-6.5,0.2-4.8-4.6-4.7-7.9c0.2-4.4-1.3-8.9,0.9-13.1c0.3,0.3,0.7,0.7,1,1c0.8,4.5,0.2,9.1,0.4,13.7
	c0,0.2,0,0.4,0.1,0.5c0.8,0.4,0.3-0.5,0.6-0.6c0.8-3.6,0.8-7.1,0-10.6c-0.3-1-0.6-1.9-0.1-2.9c1.8-0.7,2.1-2.2,2.1-3.9c3,0,6,0,9,0
	c0.6,0.6,0.6,1.3,0.2,2.1c0,0.6,0,1.1,0,1.7c0.5,0.7,1.4,1.1,1.8,2c1.1,5.9,1,11.8,0.1,17.8C128.4,171.4,127.9,172.2,126.8,172z"/>
<path class="st0" d="M118.9,186.6c1.4,11.3,0.5,22.8,1,34.1c0.2,4.1-0.8,8.3,0.9,12.2c-2.8,2.2-5.4,1.5-7.9-0.4
	c-0.4-0.5-0.5-1-0.1-1.6c1,0,2,0.1,3,0c1.1-0.1,2.7,0.3,2.7-1.4c0-1.7-1.5-0.5-2.3-0.7c-2.2-0.4-2.4-2-2.4-3.8c0-3.3,0-6.7,0-10
	c0-2.5-0.4-5.2,3.7-5c2.2,0.1,1.2-2,1.2-3.1C118.9,200.2,118.9,193.4,118.9,186.6z"/>
<path class="st0" d="M112.8,231c0,0.3,0,0.7,0,1c0.7,3.5-0.2,6.7-1.6,9.8c-0.4,0.4-0.9,0.5-1.4,0.1C109.9,238.1,109,233.9,112.8,231
	z"/>
<path class="st0" d="M109.8,242c0.3,0,0.6,0,0.9,0c2.7-0.5,5.3-0.6,7.1,2.1c0,0.3,0,0.6,0,0.8C115.1,243.9,111.4,245.7,109.8,242z"
	/>
<path class="st0" d="M173.9,32.9c0.3,4,0.8,8-0.3,12c-8.7,4.1-18.2,3-27.3,4.1c-2.5,0.3-3.9-1.3-4.3-3.8c-1.3-8.5,0.7-11,9.2-11.1
	C158.8,34,166.3,32.3,173.9,32.9z"/>
<path class="st0" d="M173.9,58.9c0.5,3.7,0.4,7.4,0,11.1c-2.1,2.1-4.8,2.8-7.7,3.1c-5.9,0.6-11.9,1.2-17.8,1.8
	c-3.5,0.4-6.3-0.1-6.5-4.6c-0.4-7.2,0.7-9.8,5.6-10.2C156.3,59.6,165.1,59.3,173.9,58.9z"/>
<path class="st0" d="M173.9,83.9c0,3.7-0.1,7.4-0.1,11.1c-3.1,2.9-7.2,3.2-11.1,3.8c-4.4,0.6-8.9,0.7-13.3,1.1c-3.7,0.3-5.5-1-5.7-5
	c-0.3-9,0.2-9.6,9.5-10c5.3-0.2,10.6-0.7,15.8-1.3C170.8,83.4,172.4,83.1,173.9,83.9z"/>
<path class="st0" d="M161.6,197.9c-2.5-1.2-5.1,1.9-7.6-0.1c-1.3-0.3-2-1.2-2.3-2.4c-0.7-3.3,0.4-6.4,1.1-9.5c0.9-2.1,2.6-2.8,4.7-3
	c7.1-0.5,14.2-1,21.3-1.7c2.1-0.2,2.9,0.4,3.2,2.6c1.2,9.9-0.8,12.3-11.2,13.2C167.8,198.2,164.5,196.7,161.6,197.9z"/>
<path class="st1" d="M152.7,239c-1.3,5.3-2.6,10.7-3.9,16c-2.1-5,1-9.6,1.4-14.4c1-11.3,1-22.6,0.2-33.9c-1.1-15-3.5-29.9-6.6-44.6
	c-2.7-13-3.9-26.1-5.7-39.2c-0.7-5.2-1-10.6-1.1-15.8c-0.4-24.6-0.2-49.3-0.1-73.9c0-0.6,0.1-1.3,0.2-2.3c1.3,1.8,0.7,3.5,0.7,5
	c0,22.1,0,44.3,0.1,66.4c0,1.9-0.7,4,0.9,5.7c0,1,0.1,1.9,0.1,2.9c1.2,2.6-0.3,5.5,0.9,8.1c0.1,1.3,0.1,2.6,0.2,3.9
	c1.1,1.9-0.2,4.2,0.9,6.1c0,0.6,0.1,1.3,0.1,1.9c1.1,1.9-0.2,4.2,0.9,6.1c0,0.6,0.1,1.3,0.1,1.9c1.2,1.9-0.3,4.2,0.9,6.1
	c0,0.6,0.1,1.2,0.1,1.8c1.1,1.9-0.4,4.3,1,6.2c-0.1,1.7,0,3.4,1,4.9c1.1,1.5-0.3,3.6,1,5.1l0,0c1.1,1.5-0.3,3.5,1,5.1
	c0.1,0.3,0.1,0.6,0,0.8c1.1,1.6-0.3,3.6,1,5.2c0.1,0.3,0.1,0.6,0,0.8c1.1,1.6-0.3,3.6,1,5.2c0.1,0.3,0.1,0.6,0,0.9
	c1.1,1.9-0.3,4.2,1,6.1c0,0.6,0.1,1.2,0.1,1.8c1.6,1.7,1.1,4.1,1.8,6.1c0.1,0.8,0.1,1.6,0.2,2.5c-0.1,2.6-0.2,5.1,0.4,7.7
	c1.5,2.6,1.7,5.4,1.5,8.2C153,221.8,153.9,230.4,152.7,239z"/>
<path class="st0" d="M176.8,133c0.7,2.6,1.4,5.3,2.1,7.9c-0.4,6.2-1.3,12.3-5.8,18.4c-1.8-12.2-4-23.5-7.6-35.1
	C171.4,125.3,173.6,129.8,176.8,133z"/>
<path class="st0" d="M144.7,8.8c7.6-0.5,15.1-4.2,22.9-0.9c1.2,0.5,2.5,0.7,3.2,2.1c0.1,1.5-1,2.1-2.1,2.3
	c-6.4,1.4-12.8,2.7-19.1-0.1c-0.3,0-0.5-0.1-0.8-0.2c-2.6-1.1-5.3,0.1-7.9-0.7C140.6,8,144.1,10.6,144.7,8.8z"/>
<path class="st2" d="M149.6,12.1c7.1-0.4,14.4,0.7,21.2-2.2c0.6,0.7,1.3,1.5,1.9,2.2c-0.1,1.3-0.1,3.1-1.7,3.2
	c-6.8,0.5-13.7,2.2-20.2-1.7C150.3,13.3,150,12.6,149.6,12.1z"/>
<path class="st1" d="M150.9,196.8c0-0.6,0-1.2-0.1-1.8c-0.8-2-0.7-4-0.1-6c0.4,0,0.7,0,1.1,0c1.3,2.2-0.4,4.8,1,7
	c0.4,0.6,0.8,1.3,1.2,1.9c-1.7,3.7-2.7,7.2,2.2,9.3c-2.8,4-1.1,8.6-1.5,12.9c-1.9,4.4-0.4,9-0.9,13.4c-0.2,1.9,0.7,4-1.1,5.5
	c0-11.7,0.9-23.4-0.9-35C150.6,201.7,152,199.1,150.9,196.8z"/>
<path class="st0" d="M140.8,11c2.6,0.4,5.5-0.8,8,1c-3,0.4-6.2-0.7-9,1.1c-3.3-2.9-4.8,1-7,2c-0.4-0.4-0.5-0.9-0.5-1.5
	c0.8-2.8,2.8-3.8,5.6-3.6C139,10,140,10.1,140.8,11z"/>
<path class="st0" d="M152.8,196c-1.9-2.1-0.4-4.7-1-7c0.2-1.1,0-2.2,1-3C152.8,189.3,152.8,192.6,152.8,196z"/>
<path class="st3" d="M176,205c-3.3,1.5-6.8,0.9-10.2,1C169,203.9,172.6,205.4,176,205z"/>
<path class="st3" d="M161.6,197.9c3-1.3,6.1-0.7,9.2-0.8C167.8,198.9,164.6,197.6,161.6,197.9z"/>
<path class="st3" d="M165,206c-2.6,1.4-5.5,0.5-8.2,0.9C159.4,205,162.2,206.3,165,206z"/>
<path class="st6" d="M139.7,118.9c-1.8-2.5-0.6-5.4-0.9-8.1C140.2,113.4,139.6,116.2,139.7,118.9z"/>
<path class="st6" d="M140.7,129c-1.7-1.9-0.7-4.1-0.9-6.1C141.1,124.7,140.7,126.9,140.7,129z"/>
<path class="st6" d="M141.7,137c-1.7-1.8-0.7-4-0.9-6.1C142.2,132.8,141.6,134.9,141.7,137z"/>
<path class="st6" d="M142.8,145c-1.7-1.8-0.7-4-0.9-6.1C143.2,140.8,142.7,142.9,142.8,145z"/>
<path class="st6" d="M143.9,153c-1.9-1.8-0.8-4.1-1-6.2C144.2,148.7,143.8,150.9,143.9,153z"/>
<path class="st6" d="M149.8,187c-1.8-1.8-0.7-4.1-1-6.1C150.2,182.7,149.7,184.9,149.8,187z"/>
<path class="st0" d="M150.7,189c0,2,0.1,4,0.1,6c-1.8-1.9-0.8-4.1-0.9-6.2C150.1,188.9,150.4,189,150.7,189z"/>
<path class="st6" d="M146.8,168c-1.6-1.4-0.8-3.3-1-5.1C147.1,164.4,146.7,166.3,146.8,168z"/>
<path class="st6" d="M147.8,174c-1.7-1.5-0.8-3.4-1-5.2C148.1,170.4,147.8,172.2,147.8,174z"/>
<path class="st6" d="M148.8,180c-1.7-1.5-0.8-3.4-1-5.2C149.1,176.4,148.7,178.2,148.8,180z"/>
<path class="st6" d="M145.8,163c-1.7-1.4-0.8-3.4-1-5.1C146.1,159.4,145.8,161.2,145.8,163z"/>
<path class="st0" d="M126.8,66c-1.6,1.5-1,3.4-1,5.2c0,13.8,0,27.6,0.1,41.4c-0.5,0.6-1,0.6-1.5,0c-1.5-2.2-1.2-4.8-1.2-7.2
	c0-14.3-0.1-28.5,0-42.8c0.1-6-1.8-11.8-0.9-17.8c0.6-1.6,1.7-1.5,3-1.2c0.6,0.3,0.8,0.8,0.5,1.5c-0.9,0.7-1.2,1.9-0.7,2.6
	c0.8,1.1,1.2-0.4,1.8-0.7c2.2-1.3,3.7-0.5,4.1,1.6c1.3,5.7,1.5,11.4-0.1,17C130.2,68,128.4,68.8,126.8,66c3-4,0.6-8.7,1.2-11.1
	C127.6,57.3,129.6,61.9,126.8,66z"/>
<path class="st0" d="M116.9,65c-0.7,0.3-1.4,0.7-2.1,1c-0.2-0.2-0.4-0.4-0.6-0.6c-1.4-5.6-1.4-11.1,0-16.7c0.2-0.2,0.4-0.4,0.6-0.6
	c1.5-1.7,1-3-1.1-2.9c-4.1,0.2-4.2-2.2-3.9-5.1c0.4-3.4-2.1-8.3,4.8-8.5c1.7,0,1.5-2.9,0.2-4.5c-0.3-0.3-0.6-0.7-0.7-1.2
	c-0.1-0.5,0-0.9,0-1.4c0.6-1.9-0.1-3.7-0.5-5.6c0-2.3-1.1-5,2.3-6c3.2,3.2,2.2,7.4,2.5,11.3c0.2,2-0.8,5.4,1.8,5.4
	c3.2,0,1.8-3.5,2.1-5.5c0.3-2.6-0.2-5.3,0.7-7.9c1.2-2,2.4-3.8,4-0.3c0.5,2.9,0.8,5.8-0.5,8.6c-0.2,0.2-0.4,0.4-0.6,0.6
	c-2.1,6-1.6,6.8,4,7c0.2,1-0.4,1.5-1.1,1.9c-3.7,1.1-7.6,0.4-11.4,0.6c-2.2,0.1-4.5-0.1-4.8,3c-0.3,2.6,0.3,4.6,3.3,5.2
	c1,0.2,1.9,0.6,2.5,1.6C118.1,51.2,119.9,58.2,116.9,65z"/>
<path class="st1" d="M125.9,112.5c5.7-2.6,6.9-1.9,6.9,4.4c0,3.8,0,7.6,0,11.4c0,1.9,0,3.7-2,4.7c-1.6,0.8-2.9,2.3-4.9,2.1l-0.3-0.3
	c-2.5-7.2-2.4-14.5,0-21.7C125.7,112.9,125.8,112.7,125.9,112.5z"/>
<path class="st0" d="M125.9,135.1c1.4-1.2,2.8-2.5,4.9-2.1c0,3.9-0.1,7.8,0,11.7c0.1,2.8-1,4.4-3.9,4.5c-0.1-0.7-0.1-1.4-0.2-2.1
	c3.5-3.3,2.9-9.7-1-11.2C125.8,135.6,125.8,135.4,125.9,135.1z"/>
<path class="st0" d="M128.7,33c0.4-0.3,0.7-0.7,1.1-1c2.1,3.5,1,7.4,0.8,11.1c-0.1,2.9-3,1.6-4.8,1.9c0-0.3,0-0.6,0-1
	C128,40.7,126.3,36.3,128.7,33z"/>
<path class="st0" d="M131.8,151.9c2.2,6.2,0.4,12.7,1,19c-1.2,0.2-1.6-0.6-2-1.4c-0.9-5.4-0.9-10.7-0.1-16.1
	C130.9,152.8,131.3,152.3,131.8,151.9z"/>
<path class="st0" d="M131.8,23c2.1,2.8,0.6,4.8-1.9,5.7c-2.9,1-4.2-0.9-4.1-3.7l0,0c1.4-0.6,3.4,1.6,4.4-0.9
	C130.6,23.5,131.1,23.1,131.8,23z"/>
<path class="st7" d="M132.8,230c-0.3,0-0.7,0-1,0c-2.3-5-2.2-10,0-15c0.3,0,0.7,0,1,0C132.7,220,132.8,225,132.8,230z"/>
<path class="st0" d="M131.7,169.9c0.4,0.4,0.7,0.7,1.1,1c-2.3,2.3-6.5,3.4-5,8c-0.3,0-0.6,0-0.9,0c0-2.3,0-4.7,0-7
	c0.4-0.4,0.7-0.7,1.1-1.1C129.1,170.3,130.3,169.5,131.7,169.9z"/>
<path class="st0" d="M131.8,23c-0.3,0.3-0.6,0.7-0.9,1c-2.7-4.8-2.1-7.6,1.9-10.1c0,0.4,0,0.8,0,1.1C132,17.6,131.6,20.3,131.8,23z"
	/>
<path class="st0" d="M131.8,151.9c0,0.4,0,0.7,0,1.1c-1.6,0.7-2.8,0-3.9-1c-0.3-0.4-0.6-0.8-0.9-1.2
	C128.7,150.9,130.8,149.1,131.8,151.9z"/>
<path class="st2" d="M45,261.2c-0.2-2.3,1.3-2.3,2.9-2.3c0.9,0,2.2,0.4,2.4-1.1c0.1-1.3-1-2.3-2.1-2.5c-1.8-0.3-3.8-0.8-5.4-0.2
	c-4.7,1.6-4.7-1.1-5-4.5c-0.7-8.8,1.2-17.1,3.5-25.5c8-30,15.8-60.1,23.8-90.1c0.9-3.3,1.5-8.5,4.9-8.4c4.2,0,3.9,5.5,4.6,8.8
	c5.2,23.7,10.1,47.4,15.2,71.1c0.2,0.8,0.6,1.5,0.9,2.2c-0.9,11.6,0.2,23.3-0.7,34.9c0,3.9-4.7,3.3-5.9,6.1
	c-1.5,1.8-1.9,4.8-5.3,4.3c-8.1,1.8-16.3,3.2-24.3,5.4C51.3,260.3,47.7,258.5,45,261.2z"/>
<path class="st2" d="M90.8,84c-0.1,22.3-0.7,44.7,0.9,67c0,14.4,0.1,28.9-0.1,43.3c-0.2,16.9-0.6,33.8-0.9,50.7
	c-0.2,0.1-0.3,0.2-0.5,0.4c-0.2-0.1-0.3-0.2-0.5-0.3c0.3-12.1-0.8-24.3,0.9-36.4c-0.3-16.3,1.2-32.6-0.8-48.8
	c-2-15.8-3.9-31.5-6.4-47.2c-1.3-8.1-0.6-16,2-23.5c3.4-9.8,3.7-19.8,3.2-30c-0.3-0.7-0.1-1.1,0.7-1.3c2.6,1.6,1.9,4.3,2.1,6.7
	c0.3,4.8-0.9,9.6,0.5,14.3C92.2,80.7,92.3,82.5,90.8,84z"/>
<path class="st2" d="M183.6,203.8c-0.3,0-0.5,0.1-0.7,0.2c-1.6,1.6-3.9,1.2-5.9,1.9c-0.5,0.2-1,0.2-1.5,0.3
	c-3.1,0.3-6.3-0.3-9.3,0.7c-0.5,0.2-1,0.2-1.6,0.3c-2.6,0.2-5.3-0.1-7.9,0.6c-0.6,0-1.1,0-1.7-0.1c-4.2-2.8-4.7-5.3-1.9-10.1
	c2.9-1,5.9-1,8.9-1.1c2.9,0,5.8,0.4,8.6-0.6c1.4-0.3,2.9-0.5,4.4-0.9c4.7-1.3,7-6.1,5.1-10.5c-0.4-0.8-0.9-1.5-1.8-1.4
	c-8,0.8-16.2,0-23.9,3.1c-0.9,0.8-1.4,1.9-2.2,2.8c-0.4,0.3-0.9,0.5-1.4,0.5c-0.5,0-1-0.2-1.4-0.6c-0.5-0.6-0.7-1.3-0.8-2
	c-0.3-1.9,0.1-3.8-0.6-5.6c-0.1-0.4-0.2-0.9-0.3-1.4c-0.2-1.6-0.1-3.2-0.7-4.7c-0.1-0.4-0.2-0.9-0.3-1.3c-0.2-1.5-0.1-3.1-0.7-4.6
	c-0.1-0.4-0.2-0.9-0.3-1.3c-0.2-1.5-0.1-3-0.6-4.5c-0.1-0.4-0.2-0.8-0.3-1.3c-0.3-1.5-0.4-3.1-1.3-4.4c-0.8-1.5-1.1-3.2-1.1-4.9
	c-0.1-1.9,0.2-3.9-0.6-5.8c-0.2-0.7-0.3-1.5-0.4-2.2c-0.1-2,0.1-3.9-0.6-5.8c-0.2-0.7-0.3-1.5-0.4-2.2c-0.1-2,0.1-4-0.7-5.9
	c-0.2-0.7-0.3-1.5-0.4-2.2c-0.1-2,0-4.1-0.7-6c-0.3-1.3-0.3-2.6-0.4-4c-0.1-2.7,0.3-5.5-0.8-8.2c-0.2-1.2-0.2-2.4-0.3-3.6
	c0-23.9,0-47.9,0-71.8c0-5-0.5-10-0.3-14.9c0.1-2.5,0-5,1.5-7.2c2.6-3.2,6.2-2.4,9.6-2.4c0.6,0.1,1.1,0.2,1.7,0.4
	c7.8,5.1,15.8,4.3,23.9,0.8c3.1,6.7,1.8,13.5,0.9,20.3c-1.4,2.1-3.7,2.1-5.8,2.1c-6.2,0-12.2,1.4-18.4,1.2c-2.7-0.1-5.4,0.5-6.6,3.5
	c-2,5.1,0.6,8.8,6.2,8.1c6.7-0.9,13.7-0.3,20.3-2.5c1.4-0.5,3-0.8,4.2,0.6c1.6,4.4,1.5,8.9,0.1,13.3c-1.5,2-3.8,1.8-5.9,1.9
	c-6.2,0.1-12.2,1.3-18.4,1.2c-2.5-0.1-5,0.6-6.2,3.3c-2,4.8,0.3,8.7,5.4,8.3c7.1-0.5,14.3-0.5,21.2-2.9c1.2-0.4,2.4-1.3,3.7-0.1
	c1.6,4.4,1.2,8.8,0.2,13.2c-2.1,2.1-4.9,1.8-7.5,1.9c-5.3,0.2-10.5,1.2-15.8,1.3c-4.9,0.1-6.3,2-5.8,7.1c0.4,3.9,1.8,5,6.6,4.4
	c6.7-0.9,13.6-0.4,20-3.3c0.8-0.3,1.6-0.3,2.3,0.4c2.1,4.4,0.8,9.1,1.3,13.6c0.9,7.6,2.2,15.2,2.2,22.9c-1.3,2.7-2.6,0.8-3.8-0.1
	c-1.8-1.5-3-3.5-5.9-4.9c2.2,9.6,4.5,18.6,5.9,28.9c1.9-4.3,2.7-7.8,3.5-11.4c0.3-1.3-0.2-3.7,2.5-3.2c2.8,5.3,2.3,11.2,3.2,16.9
	c1.7,10.5,1.2,21.1,1,31.7c-0.1,4.3,2,8.5,0.6,12.8C184.5,203,184.1,203.5,183.6,203.8z"/>
<path class="st2" d="M141.8,268c3.1-3.9,6.5-7.7,7-13c-0.8-1-0.6-2.2-0.1-3.2c1.9-4.3,1.7-9.2,3.2-13.6c1-4.3,0.3-8.6,0.5-12.9
	c0.1-1.9-0.3-4,1.6-5.5c9.7,0.3,19.3-0.9,28.9-2.8c2.4,11.7,2.4,23.5-1.2,34.9c-2.9,9.1-9.6,14.5-19.1,16.4
	C155.6,269.6,148.7,269.5,141.8,268z"/>
<path class="st2" d="M59.9,11c2.6,0.1,5.1,0.1,7.7,0.2c2.9,1.7,6.6,0.4,9.5,2.6c3.5,2.6,5,6.5,6.6,10.2c2.6,6.4,4.8,13,3.9,20.1
	c-0.2,0.5-0.6,0.9-1.1,1.2c-2.1,8.9-3,18.2-6.7,26.8c-1.9,4.6-4.3,9-6.8,13.2c-2.4,4-5,4.2-7.4,0.2c-3.8-6.2-6.9-12.8-10.9-18.9
	c-5.2-7.9-10-16.1-16-23.4c-0.7-0.9-1.7-2-1.6-3c0.4-9.1-1.7-18.7,5.7-26.3c0.6-1,3.4-1.2,1-3.2c3.9-2.3,8-1.5,12.1-0.9
	C57.1,10.9,58.5,11.2,59.9,11z"/>
<path class="st2" d="M36.6,177.4c-0.7-35.3-2.4-70.4-0.5-106c8.6,6.4,13.4,15,18.7,23.4c2.9,4.7,3.2,9.3,1.9,14.7
	c-4.7,18.7-8.9,37.4-15,55.7C40.2,169.2,38.3,173.3,36.6,177.4z"/>
<path class="st0" d="M111.8,10c-1.8,4.4-2.4,8.9-0.9,13.5c0.6,2,1,4.2,3.9,2.5c0,0.3,0,0.7,0,1c-2.9,2.3-4.2,0.3-4.8-2.1
	c-0.9-3.6-1.4-7.2-2-10.9c-0.1-0.3-0.1-0.6-0.1-0.9c0.7-0.7,1.4-1.4,2.2-2.1C110.6,10.7,111.2,10.4,111.8,10z"/>
<path class="st0" d="M116.8,10.9c-0.4-0.7-0.7-1.4-1.1-2c7.3-2,14.7-0.7,22.1-0.8c0,0.3,0.1,0.6,0.2,0.8c-2,1.9-4.8,1-7.1,2
	c-0.7,0.3-1.4,0.5-2.1,0.6c-0.5,0-1,0-1.4-0.2c-2.8-1.4-5.7-1.2-8.6-0.3C118.1,11.2,117.4,11.4,116.8,10.9z"/>
<path class="st0" d="M114.8,66c-3,3.9-4.5,0.6-4.8-1.6c-0.5-4.9-0.5-9.9,0-14.8c0.2-2.2,1.7-5.5,4.8-1.6l0,0
	C111.2,52.6,111.2,61.4,114.8,66L114.8,66z"/>
<path class="st0" d="M116.8,165c0-4,0-8,0-12C118.2,157,118.3,161,116.8,165z"/>
<path class="st0" d="M129.7,10c2.5-1.9,5.5-0.4,8.2-1c2.3,0,4.5-0.1,6.8-0.1c-0.6,1.9-3,0.6-3.9,2.2c-1,0-2.1,0-3.1,0
	C135.2,9.4,132.1,12.9,129.7,10z"/>
<path class="st0" d="M150.9,196.8c1.5,2.3,0.8,4.8,0.9,7.2C149.9,201.8,151.1,199.2,150.9,196.8z"/>
<path class="st8" d="M114.9,25c0-1.7,0-3.3,0-5C116.2,21.7,116.2,23.3,114.9,25z"/>
<g>
	<path class="st2" d="M110.8,137c0-0.3,0-0.7,0-1c4.9-1.6,10.1-1.4,15.2-1.3c4.8,1.8,5.7,9.6,1.5,13.2c-3.1,0.8-6.2,0.5-9.4,0.6
		c-2.2,0.2-4.3-0.1-6.3-1.1C109.9,144,112.5,140.3,110.8,137z"/>
	<path class="st2" d="M117.8,244.1c-2.3-1.1-5-0.5-7.1-2.1c0.2-3.4,0.4-6.9,2.1-10c2.6,0.7,5.3,1.3,8,0.9c1.9,0.3,3.9,0.6,5.8,0.9
		c1.7,0.4,3.7,1.1,2.9,3.2c-1,2.8,0.7,7.1-4,8.1c-0.9-0.1-1.8-0.2-2.7-0.3C121.3,243.5,119.5,244,117.8,244.1z"/>
	<path class="st2" d="M131.7,215c0,5,0,10,0,15c-1.2,0.6-2.6,0.7-2.6-0.9c-0.2-4.2-0.2-8.5-0.1-12.7
		C129.1,214.9,130.6,215.1,131.7,215z"/>
	<path class="st2" d="M114.9,25c0,0.3,0,0.7-0.1,1c-1.3,1.7-2.8,2.3-3.6-0.1c-1.8-5.3-3.6-10.8,0.6-15.9c1.1-1,2.5-1,3.8-1.1
		c1.6-0.5,1.7,0.7,1.9,1.7c-0.1,1.2-0.6,2-1.8,2.4c-1.9,2.1-0.7,4.7-0.9,7C115.5,21.7,115.5,23.3,114.9,25z"/>
	<path class="st2" d="M115.8,120.6c0,2.3,0,4.6,0,6.9c0,0.8,0,1.8-1.1,1.9c-1,0.1-1.6-0.7-1.6-1.5c-0.1-4.9-0.1-9.9-0.1-14.8
		c0-0.5,0.7-1.3,1.1-1.4c1-0.2,1.5,0.6,1.6,1.4C115.8,115.7,115.7,118.2,115.8,120.6C115.8,120.6,115.8,120.6,115.8,120.6z"/>
	<path class="st2" d="M116.8,165c-0.3,1.5,0.7,4.1-1.5,4.1c-2.3,0-1.6-2.5-1.5-4c0.3-4.7-1.2-9.5,0.9-14.1c0.3,0,0.6,0,1,0
		c0.4,0.7,0.7,1.3,1.1,2C117.6,157,117.6,161,116.8,165z"/>
	<path class="st2" d="M127.9,152c1.4-0.2,2.7,0.3,3.9,1c0,5.6,0,11.2,0,16.9c-1.1,1.2-2.1,2.6-3.8,1
		C127.9,164.6,127.9,158.3,127.9,152z"/>
	<path class="st2" d="M114.7,219.2c0.9-2.1-1.3-6.3,1.4-6.4c2.8-0.1,1.6,4.1,1.5,6.3c-0.1,2.7,1.8,7.3-1.6,7.5
		C113.7,226.9,115.5,221.9,114.7,219.2z"/>
	<path class="st2" d="M129.7,10c2.7,0.5,5.5-0.9,8,1c-2.3-0.1-3.9,0.9-5,2.9c-3,2.9-1.7,6.7-1.9,10.1c0.9,1.7,0,2.9-1.5,3.5
		c-2.3,0.9-2.3-1.9-3.7-2.5c0-3,0-6,0-9c1.2-1.3-1-4.1,1.9-4.7C128.4,10.8,129.1,10.4,129.7,10z"/>
	<path class="st2" d="M122.6,44.1c-1.5,0-3,0-4.5,0c-2.9-0.9-7.8,1.9-7.4-4.8c0.4-6.4,0-6.4,6.6-6.2c3.8,0.1,7.6-0.1,11.4-0.1
		c0,2.6,0,5.2,0.1,7.7c0.1,2.2-0.8,3.3-3.1,3.2C124.7,44.1,123.7,44.1,122.6,44.1z"/>
	<path class="st2" d="M126.8,66c0-4.9,0-9.9,0-14.8c0-1.1-0.2-2.7,1.3-2.8c2-0.1,1.6,1.7,1.6,2.9c0.1,4,0,7.9,0,11.9
		C129.9,65.3,128.9,66.1,126.8,66L126.8,66z"/>
	<path class="st2" d="M114.8,66c-8-1.7-2.7-8-3.8-12c-0.7-2.5-1-6.3,3.8-6C114.8,54,114.8,60,114.8,66z"/>
	<path class="st2" d="M123.7,16c-0.4-1.8-0.3-3.5,1-5c0.9-0.9,1.9-0.8,2.9-0.2l0,0.4c-1.3,1.3-0.4,3.5-1.9,4.7
		C125.1,12.8,124.4,16.5,123.7,16z"/>
	<path class="st2" d="M127.8,122.3c0-2.5,0-5,0-7.4c0-1.2,0.5-2.4,1.9-2.4c1.5,0,2,1.1,2,2.3c0.1,4.8,0.1,9.6,0,14.4
		c0,1.4-0.6,2.7-2.3,2.6c-1.9-0.1-1.6-1.8-1.7-3C127.7,126.6,127.7,124.4,127.8,122.3C127.8,122.3,127.8,122.3,127.8,122.3z"/>
</g>
</svg>
