<?xml version="1.0" encoding="utf-8"?>
<!-- Generator: Adobe Illustrator 19.0.0, SVG Export Plug-In . SVG Version: 6.00 Build 0)  -->
<svg version="1.1" id="Capa_1" xmlns="http://www.w3.org/2000/svg" xmlns:xlink="http://www.w3.org/1999/xlink" x="0px" y="0px"
	 viewBox="213.3 217 35.7 49.3" style="enable-background:new 213.3 217 35.7 49.3;" xml:space="preserve">
<g>
	<g>
		<path d="M242.3,217.3h-18.1c-1.2,0-2.2,1-2.2,2.2v31.6c0,1.2,1,2.2,2.2,2.2h22.2c1.2,0,2.2-1,2.2-2.2v-27L242.3,217.3z
			 M242.8,220.6l2.8,3h-2.8V220.6z M246.7,251.1c0,0.2-0.2,0.4-0.4,0.4h-22.2c-0.2,0-0.4-0.2-0.4-0.4v-31.6c0-0.2,0.2-0.4,0.4-0.4
			H241v5.4c0,0.5,0.4,0.9,0.9,0.9h4.8V251.1z M227.1,227.2h15.7c0.4,0,0.7,0.3,0.7,0.7s-0.3,0.7-0.7,0.7h-15.7
			c-0.4,0-0.7-0.3-0.7-0.7S226.7,227.2,227.1,227.2z M243.5,232.5c0,0.4-0.3,0.7-0.7,0.7h-15.7c-0.4,0-0.7-0.3-0.7-0.7
			s0.3-0.7,0.7-0.7h15.7C243.2,231.8,243.5,232.1,243.5,232.5z M243.5,237c0,0.4-0.3,0.7-0.7,0.7h-15.7c-0.4,0-0.7-0.3-0.7-0.7
			c0-0.4,0.3-0.7,0.7-0.7h15.7C243.2,236.3,243.5,236.6,243.5,237z M243.5,241.6c0,0.4-0.3,0.7-0.7,0.7h-15.7
			c-0.4,0-0.7-0.3-0.7-0.7c0-0.4,0.3-0.7,0.7-0.7h15.7C243.2,240.9,243.5,241.2,243.5,241.6z"/>
	</g>
	<path d="M236.6,244.1c-15.9-6.6-19.1,12.1-19.2,13.2h-3.7l7.9,8.9l7.9-8.9h-3.9C223.7,244.4,236.6,244.1,236.6,244.1z"/>
</g>
</svg>
