<?xml version="1.0" encoding="utf-8"?>
<!-- Generator: Adobe Illustrator 19.0.0, SVG Export Plug-In . SVG Version: 6.00 Build 0)  -->
<svg version="1.1" xmlns="http://www.w3.org/2000/svg" xmlns:xlink="http://www.w3.org/1999/xlink" x="0px" y="0px"
	 viewBox="240.6 240.8 30.6 30.4" style="enable-background:new 240.6 240.8 30.6 30.4;" xml:space="preserve">
<style type="text/css">
	.st0{display:none;}
	.st1{display:inline;}
</style>
<g id="Capa_1" class="st0">
	<g class="st1">
		<path d="M267.3,251.4v15.9c0,2.1-1.7,3.8-3.8,3.8h-18.8c-2.1,0-3.8-1.7-3.8-3.8v-18.8c0-2.1,1.7-3.8,3.8-3.8h15.9l-3.7,3.8h-12.1
			v18.8h18.8v-12.1L267.3,251.4z M264.4,243.7L263,245l4,4l1.3-1.3L264.4,243.7z M267,241l-1.3,1.3l4,4l1.3-1.3L267,241z
			 M249.8,258.2l4,4l11.9-11.9l-4-4L249.8,258.2z M248.5,263.5h3.8l-3.8-3.8V263.5z"/>
	</g>
</g>
<g id="Layer_2">
	<g>
		<rect x="255" y="255.9" width="9.4" height="1.9"/>
		<circle cx="250.7" cy="256.8" r="1.4"/>
		<rect x="255" y="262.6" width="9.4" height="1.9"/>
		<circle cx="250.7" cy="263.5" r="1.4"/>
		<rect x="252.4" y="241" width="7.5" height="1.9"/>
		<path d="M244.8,242.8V271h22.6v-28.2H244.8z M265.5,269.1h-18.8v-24.4h18.8V269.1z"/>
		<rect x="255" y="249.3" width="9.4" height="1.9"/>
		<circle cx="250.7" cy="250.2" r="1.4"/>
	</g>
</g>
</svg>
