<?xml version="1.0" encoding="utf-8"?>
<!-- Generator: Adobe Illustrator 19.0.0, SVG Export Plug-In . SVG Version: 6.00 Build 0)  -->
<svg version="1.1" id="Layer_1" xmlns="http://www.w3.org/2000/svg" xmlns:xlink="http://www.w3.org/1999/xlink" x="0px" y="0px"
	 viewBox="0 0 20.2 20.1" style="enable-background:new 0 0 20.2 20.1;" xml:space="preserve">
<style type="text/css">
	.st0{fill:#3A88C8;}
</style>
<g>
	<g>
		<g>
			<path class="st0" d="M16,20.1c-0.8,0-1.9-0.2-3-0.6c-2.4-0.9-5-2.7-7.3-5c-2.3-2.3-4.1-4.9-5-7.3c-0.8-2.2-0.8-4.1,0-5
				C0.9,2,1,1.9,1.1,1.7C1.8,1,2.7,0.1,3.9,0.1l0.1,0c0.8,0,1.6,0.5,2.4,1.5c2.4,2.9,1.2,4,0,5.2L6.2,7c0,0-0.2,0.2,0.1,0.8
				C6.7,8.6,7.6,9.7,9,11.1c1.1,1.1,2,1.9,2.7,2.4c0.5,0.3,0.9,0.5,1.2,0.5c0.1,0,0.2,0,0.2-0.1l0.2-0.2c0.7-0.7,1.3-1.3,2.3-1.3
				c0.8,0,1.7,0.4,2.9,1.4c1,0.8,1.5,1.6,1.5,2.4c0,1.2-0.9,2.1-1.7,2.9c-0.1,0.1-0.3,0.2-0.4,0.4C17.6,19.8,16.9,20.1,16,20.1z
				 M3.9,0.9v0.2c-0.7,0-1.4,0.7-2,1.3L1.8,2.6C1.7,2.7,1.6,2.8,1.5,2.9C1,3.4,1.1,4.9,1.7,6.7c0.9,2.3,2.5,4.7,4.8,7
				c2.2,2.2,4.7,3.9,7,4.8c1.7,0.6,3.3,0.7,3.8,0.2c0.1-0.1,0.3-0.2,0.4-0.4c0.6-0.6,1.4-1.3,1.3-2c0-0.5-0.4-1-1.1-1.6
				c-1-0.8-1.6-1.1-2.2-1.1c-0.6,0-1,0.4-1.6,1l-0.2,0.2c-0.6,0.6-1.5,0.5-2.8-0.3c-0.8-0.5-1.8-1.4-2.9-2.5C5.3,9,4.4,7.2,5.4,6.2
				L5.6,6C6.7,5,7.3,4.4,5.5,2.3C4.9,1.6,4.4,1.2,3.9,1.2L3.9,0.9z"/>
		</g>
	</g>
	<g>
		<g>
			<path class="st0" d="M16.1,8.6c-0.1,0-0.1,0-0.2,0c-0.1-0.1-0.2-0.2-0.3-0.3c-0.1-0.1-0.1-0.3,0-0.4c0.4-0.9,0.2-2-0.6-2.8
				c-0.7-0.7-1.9-0.9-2.9-0.5c-0.3,0.1-0.6,0-0.7-0.3c-0.1-0.1-0.1-0.3,0-0.4c0.1-0.1,0.2-0.2,0.3-0.3c1.3-0.6,3-0.3,4.1,0.7
				c1,1,1.4,2.6,0.8,3.9C16.6,8.4,16.4,8.6,16.1,8.6z"/>
		</g>
		<g>
			<path class="st0" d="M19.1,9.8c-0.1,0-0.1,0-0.2,0c-0.1-0.1-0.2-0.2-0.3-0.3c-0.1-0.1-0.1-0.3,0-0.4c0.9-2.1,0.4-4.6-1.3-6.2
				c-1.1-1.1-2.5-1.7-4.1-1.7c-0.8,0-1.6,0.2-2.3,0.5c-0.3,0.1-0.6,0-0.7-0.3c-0.1-0.3,0-0.6,0.3-0.7c0.9-0.4,1.8-0.6,2.8-0.6
				c1.8,0,3.6,0.7,4.8,2C20,4,20.6,6.9,19.6,9.4C19.5,9.6,19.3,9.8,19.1,9.8z"/>
		</g>
	</g>
</g>
</svg>
