<?xml version="1.0" encoding="utf-8"?>
<!-- Generator: Adobe Illustrator 19.0.0, SVG Export Plug-In . SVG Version: 6.00 Build 0)  -->
<svg version="1.1" id="Layer_1" xmlns="http://www.w3.org/2000/svg" xmlns:xlink="http://www.w3.org/1999/xlink" x="0px" y="0px"
	 viewBox="403.4 158 344.3 337.3" style="enable-background:new 403.4 158 344.3 337.3;" xml:space="preserve">
<style type="text/css">
	.st0{fill:#FFFFFF;}
</style>
<g>
	<rect x="404.6" y="158.2" class="st0" width="20.8" height="216.4"/>
	<rect x="444.2" y="158.2" class="st0" width="17.4" height="176.5"/>
	<rect x="471.4" y="158.2" class="st0" width="17.4" height="176.5"/>
	<rect x="498.6" y="158.2" class="st0" width="17.4" height="176.5"/>
	<rect x="545.4" y="158.2" class="st0" width="13.6" height="176.5"/>
	<rect x="570.9" y="158.2" class="st0" width="13.6" height="176.5"/>
	<rect x="596.8" y="158.2" class="st0" width="13.6" height="176.5"/>
	<rect x="641.5" y="158.2" class="st0" width="13.6" height="176.5"/>
	<rect x="670" y="158.2" class="st0" width="11.1" height="176.5"/>
	<rect x="696.8" y="158.2" class="st0" width="11.1" height="176.5"/>
	<rect x="733.7" y="158.2" class="st0" width="13.6" height="216.4"/>
	<path class="st0" d="M447.2,373.7v-18.3c-1.3,0-2.1-0.9-2.1-2.1c0-1.3,0.9-2.1,2.1-2.1h2.1c1.3,0,2.1,0.8,2.1,2.1v20.4
		c0,1.3-0.9,2.1-2.1,2.1C448.4,375.9,447.2,375,447.2,373.7z"/>
	<path class="st0" d="M529.2,367.8c0,4.3-3.8,8.1-8.1,8.1s-8.1-3.8-8.1-8.1c0-1.3,0.8-2.1,2.1-2.1c1.3,0,2.1,0.9,2.1,2.1
		c0,2.1,1.7,3.8,3.8,3.8c2.1,0,4.3-1.7,4.3-3.8c0-2.1-1.7-4.3-3.8-4.3c-1.3,0-2.1-0.8-2.1-2.1c0-3,4.3-1.3,4.3-4.3
		c0-1.3-0.9-2.1-2.1-2.1h-3.8c-1.3,0-2.1-0.8-2.1-2.1c0-1.3,0.9-2.1,2.1-2.1h3.8c3.4,0,6,2.6,6,6c0,1.3-0.4,2.6-1.3,3.8
		C528,362.7,529.2,364.8,529.2,367.8z"/>
	<path class="st0" d="M601.5,367.8c0,4.3-3.8,8.1-8.1,8.1c-4.3,0-8.1-3.8-8.1-8.1c0-1.3,0.9-2.1,2.1-2.1s2.1,0.9,2.1,2.1
		c0,2.1,1.7,3.8,3.8,3.8c2.1,0,4.3-1.7,4.3-3.8c0-2.1-1.7-4.3-3.8-4.3c-1.3,0-2.1-0.8-2.1-2.1c0-3,4.3-1.3,4.3-4.3
		c0-1.3-0.9-2.1-2.1-2.1H590c-1.3,0-2.1-0.8-2.1-2.1c0-1.3,0.9-2.1,2.1-2.1h3.8c3.4,0,6,2.6,6,6c0,1.3-0.4,2.6-1.3,3.8
		C600.2,362.7,601.5,364.8,601.5,367.8z"/>
	<path class="st0" d="M556.4,373.7v-18.3c-1.3,0-2.1-0.9-2.1-2.1c0-1.3,0.9-2.1,2.1-2.1h2.1c1.3,0,2.1,0.8,2.1,2.1v20.4
		c0,1.3-0.9,2.1-2.1,2.1C557.3,375.9,556.4,375,556.4,373.7z"/>
	<path class="st0" d="M665.3,373.7v-18.3c-1.3,0-2.1-0.9-2.1-2.1c0-1.3,0.9-2.1,2.1-2.1h2.1c1.3,0,2.1,0.8,2.1,2.1v20.4
		c0,1.3-0.8,2.1-2.1,2.1C666.1,375.9,665.3,375,665.3,373.7z"/>
	<path class="st0" d="M621.9,367.8c0-1.3,0.4-2.6,0.9-3.4l6.4-11.5c0.4-0.9,1.3-1.3,1.7-1.3c2.6,0.4,2.1,2.6,1.7,3l-2.6,5.1
		c0,0,0,0,0.4,0c4.7,0,8.1,3.8,8.1,8.1c0,4.3-3.8,8.1-8.1,8.1C625.3,375.9,621.9,372,621.9,367.8z M625.7,367.8
		c0,2.1,1.7,3.8,3.8,3.8c2.1,0,4.3-1.7,4.3-3.8c0-2.1-1.7-4.3-4.3-4.3C627.9,363.5,625.7,365.2,625.7,367.8z"/>
	<path class="st0" d="M710.8,367.8c0,4.3-3.8,8.1-8.1,8.1c-4.3,0-8.1-3.8-8.1-8.1c0-2.6,1.3-5.1,3.4-6.4c-0.9-0.8-1.3-2.1-1.3-3.8
		c0-3.4,2.6-6,6-6c3.4,0,6,2.6,6,6c0,1.3-0.4,2.6-1.3,3.8C709.5,362.7,710.8,364.8,710.8,367.8z M706.5,367.8c0-2.1-1.7-4.3-4.3-4.3
		c-2.1,0-3.8,1.7-3.8,4.3c0,2.1,1.7,3.8,3.8,3.8C704.8,371.6,706.5,369.9,706.5,367.8z M702.7,359.7c1.3,0,2.1-0.9,2.1-2.1
		c0-1.3-0.9-2.1-2.1-2.1c-1.3,0-2.1,0.8-2.1,2.1C700.6,358.4,701.4,359.7,702.7,359.7z"/>
	<path class="st0" d="M492.7,367.8c0,4.3-3.8,8.1-8.1,8.1c-4.3,0-8.1-3.8-8.1-8.1c0-2.6,1.3-5.1,3.4-6.4c-0.9-0.8-1.3-2.1-1.3-3.8
		c0-3.4,2.6-6,6-6c3.4,0,6,2.6,6,6c0,1.3-0.4,2.6-1.3,3.8C491.4,362.7,492.7,364.8,492.7,367.8z M488.8,367.8c0-2.1-1.7-4.3-4.3-4.3
		c-2.1,0-3.8,1.7-3.8,4.3c0,2.1,1.7,3.8,3.8,3.8S488.8,369.9,488.8,367.8z M484.6,359.7c1.3,0,2.1-0.9,2.1-2.1
		c0-1.3-0.9-2.1-2.1-2.1c-1.3,0-2.1,0.8-2.1,2.1C482.5,358.4,483.7,359.7,484.6,359.7z"/>
</g>
<path class="st0" d="M665.8,475.3l-69.6-69.6c10-12.5,16-28.4,16-45.6c0-40.3-32.8-73.1-73.1-73.1c-40.3,0-73.1,32.8-73.1,73.1
	c0,40.3,32.8,73.1,73.1,73.1c14.9,0,28.8-4.5,40.4-12.2l70.3,70.3c2.2,2.2,5.1,3.3,8,3.3c2.9,0,5.8-1.1,8-3.3
	C670.2,486.8,670.2,479.7,665.8,475.3z M488.7,360.1c0-27.8,22.6-50.5,50.5-50.5c27.8,0,50.5,22.6,50.5,50.5
	c0,27.8-22.6,50.5-50.5,50.5C511.4,410.6,488.7,387.9,488.7,360.1z"/>
</svg>
