<?xml version="1.0" encoding="utf-8"?>
<!-- Generator: Adobe Illustrator 19.0.0, SVG Export Plug-In . SVG Version: 6.00 Build 0)  -->
<svg version="1.1" id="Capa_1" xmlns="http://www.w3.org/2000/svg" xmlns:xlink="http://www.w3.org/1999/xlink" x="0px" y="0px"
	 viewBox="299.5 -7.5 553 554" style="enable-background:new 299.5 -7.5 553 554;" xml:space="preserve">
<style type="text/css">
	.st0{fill:#FFFFFF;stroke:#FFFFFF;stroke-width:6;stroke-miterlimit:10;}
</style>
<g>
	<path class="st0" d="M576,540c-148.9,0-270-121.1-270-270C306,121.1,427.1,0,576,0s270,121.1,270,270C846,418.9,724.9,540,576,540z
		 M576,16.4c-139.9,0-253.6,113.8-253.6,253.6c0,139.9,113.8,253.6,253.6,253.6S829.6,409.9,829.6,270
		C829.6,130.1,715.9,16.4,576,16.4z"/>
	<path class="st0" d="M576,394.2c-38.9,0-77.8-10.7-112.5-32l-6.5-4c-3.8-2.4-5-7.4-2.7-11.3c2.4-3.8,7.4-5,11.3-2.7l6.5,4
		c64.1,39.5,143.8,39.5,207.9,0l6.5-4c3.8-2.4,8.9-1.2,11.3,2.7c2.4,3.8,1.2,8.9-2.7,11.3l-6.5,4C653.8,383.5,614.9,394.2,576,394.2
		z"/>
	<g>
		<path class="st0" d="M537.3,218.5c-2.1,0-4.2-0.8-5.8-2.4l-32.2-32.2l-32.2,32.2c-3.2,3.2-8.4,3.2-11.6,0c-3.2-3.2-3.2-8.4,0-11.6
			l38-38c3.2-3.2,8.4-3.2,11.6,0l38,38c3.2,3.2,3.2,8.4,0,11.6C541.4,217.7,539.3,218.5,537.3,218.5z"/>
		<path class="st0" d="M690.7,218.5c-2.1,0-4.2-0.8-5.8-2.4l-32.2-32.2l-32.2,32.2c-3.2,3.2-8.4,3.2-11.6,0c-3.2-3.2-3.2-8.4,0-11.6
			l38-38c3.2-3.2,8.4-3.2,11.6,0l38,38c3.2,3.2,3.2,8.4,0,11.6C694.9,217.7,692.8,218.5,690.7,218.5z"/>
	</g>
</g>
</svg>
