<?xml version="1.0" encoding="utf-8"?>
<!-- Generator: Adobe Illustrator 19.0.0, SVG Export Plug-In . SVG Version: 6.00 Build 0)  -->
<svg version="1.1" id="Layer_1" xmlns="http://www.w3.org/2000/svg" xmlns:xlink="http://www.w3.org/1999/xlink" x="0px" y="0px"
	 viewBox="0 0 76 242.3" style="enable-background:new 0 0 76 242.3;" xml:space="preserve">
<style type="text/css">
	.st0{fill-rule:evenodd;clip-rule:evenodd;fill:#215D78;}
	.st1{fill-rule:evenodd;clip-rule:evenodd;fill:#3B87C8;}
	.st2{fill-rule:evenodd;clip-rule:evenodd;fill:#3279AA;}
	.st3{fill-rule:evenodd;clip-rule:evenodd;fill:#515151;}
	.st4{fill-rule:evenodd;clip-rule:evenodd;fill:#5B5A5A;}
	.st5{fill-rule:evenodd;clip-rule:evenodd;fill:#727373;}
	.st6{fill-rule:evenodd;clip-rule:evenodd;fill:#232323;}
	.st7{fill-rule:evenodd;clip-rule:evenodd;fill:#2A2A2A;}
</style>
<path class="st0" d="M3.7,100.5c1.3-1.9,3.4-2.5,5.5-3c8.7-2.5,17.6-3.5,26.6-3c4.2,0.2,4.9-1.3,5-5.1c0.1-11.5-1.3-22.8-2.2-34.2
	c-0.9-0.9-0.7-1.8-0.2-2.8c0-3.2-0.1-6.3,0-9.5c0.2-3.6-1.6-4.6-4.9-4.4c-7.7,0.6-15,2.4-22.2,5.8c-1.4-3.4-0.1-6.8-0.9-9.9
	c0.1-0.3,0.2-0.5,0.3-0.8c5.4-4.3,12.1-3.9,18.4-4.7c6.7-0.9,6.7-0.5,6.8-7.3c0.1-4.1-0.3-8.3,0.3-12.4c0.4-1.6,1.3-2.7,3-3
	c3.2-0.2,6.1,0.5,8.1,3.3c2.2,9.7,2.2,19.6,2.7,29.4c0,0.9,0,1.8,0,2.7c-0.1,16.1,3.4,31.9,3.2,48c0,2.5,1.3,4.4,2.8,6.2
	c1.4,2.8,1.1,5.7,0.5,8.7c-0.2,0.5-0.6,1-1,1.4c-1,0.8-2.4,1-3.4,1.9c-4.2,3.7-5.8,3.8-10.7,0.6c0.1-3.2-1.5-4.2-4.6-4
	c-9.7,0.6-19.4,1-28.8,4c-3.2,1-4.9,0.6-4.6-3.1C3.4,103.6,3.6,102.1,3.7,100.5z"/>
<path class="st1" d="M2.4,183.4c0.6,3.3,0.4,6.8,2.2,9.9c0.5,3.4,1.4,6.7,2.3,10c-0.9,7.4,1.2,13.6,6.6,18.9
	c5.2,5.1,11.2,9.3,16.7,14.1c4.4,3.9,9,1.9,13.6,0.5c2.6,0.1,5.5-1.5,7.9,0.7c-6.7,2.7-13.3,6.5-20.8,3.6c-10.1-3.9-20-8.3-26-18.1
	c-1.5-2.4-2.2-5.2-2.3-8c-0.5-7.8-0.8-15.5-1.2-23.3c-0.7-2.5-0.2-5.1-0.3-7.7C1.3,183.2,1.8,183,2.4,183.4z"/>
<path class="st0" d="M51.7,237.4c-2.7-0.9-5.4,2.1-8.1-0.1c-2.8-4.2-2.2-8.6-0.5-13c3.2-2.2,6.6-1.9,10-0.7c2.7,3.5,3,7.5,2.5,11.7
	C54.8,237.2,53.2,237.3,51.7,237.4z"/>
<path class="st1" d="M63.6,193.4c3.4,3.2,1,7.8,2.7,11.4c0.5,1.1-0.3,2.6,1.1,3.5c0.5,0.4,0.9,0.9,1.5,1.2c2.2,1.1,5.1,1.1,4.9,5
	c-0.2,3.7-2.3,5.1-5.3,5.9c-0.3,0-0.5-0.1-0.8-0.1c-2.1-0.5-3.1-2-3.5-4c-0.5-3.6-0.3-7.1-0.2-10.7
	C63.6,201.6,61.1,197.6,63.6,193.4z"/>
<path class="st2" d="M2.4,183.4c-0.3,0-0.7,0-1,0c-0.3,0.5-0.6,0.5-0.8-0.1c0-8.3,0-16.6-0.1-24.9C2.5,166.6,2.5,175,2.4,183.4z"/>
<path class="st2" d="M63.5,232.3c-1.3-0.1-1.9-0.7-0.7-1.8c2.4-2.2,2.9-5,2.7-8.1c0.1-1.9,0.9-2.9,2.9-2.5c0.2,0.1,0.2,0.3,0.2,0.5
	c-1.4,1.3-1.3,3-1.2,4.6C67.7,228.4,66.4,230.8,63.5,232.3z"/>
<path class="st3" d="M0.7,145.5c1,3.3,1.5,6.6-0.2,9.9C0.6,152,0.6,148.8,0.7,145.5z"/>
<path class="st2" d="M0.6,183.3c0.3,0,0.5,0.1,0.8,0.1c0,2.7,0,5.4-0.1,8.1C0.2,188.8,0.4,186.1,0.6,183.3z"/>
<path class="st0" d="M6.5,203.1c-2.6-2.9-3.7-6.1-1.9-9.9c10.4,3.3,21,5.4,32,6c4.5,0.2,6.4-1.1,5.8-5.8c-0.3-2.9-0.1-5.9-0.1-8.9
	c-0.8-5.8-0.1-11.6-0.4-17.4c-0.2-4.4,3.1-4.5,6-4.8c3.5-0.4,4,1.8,4,4.7c0.1,6.1-0.6,12.3,0.4,18.4c0.3,2.8,0.9,5.5,0.7,8.3
	c-0.2,2.7,1.4,3.2,3.2,3.9c2,1.5,1.3,3.9,2.1,5.8c0.2,1.1,0.1,2.1-0.3,3.1c-2.3,2-3.3,4.8-4.4,7.6c-2.6,2.4-5.8,2-8.8,1.9
	c-3.3-0.2-2-4.3-4.4-5.3c-6.4-1-12.9-0.1-19.2-1.8C16.3,207.3,10.4,207.9,6.5,203.1z"/>
<path class="st1" d="M52.4,185.4c-2-5.6-0.3-11.4-1-17.1c-0.2-1.8,1.1-5.2-2.5-4.6c-2.7,0.4-7-0.6-6.6,5c0.4,5.2,0,10.6,0,15.8
	c-1.8-8.7-0.7-17.4-0.9-26.2c0.5-2.5,1.5-4.4,4.5-4.4c2.1,0,3.6-1.3,4.9-2.7c2.2-1.9,1.3-4.5,1.5-6.8c0.1-3-0.3-5.9,0.5-8.9
	c-0.8,3.4-0.4,6.8-0.5,10.3c0,1.5-0.1,3-0.7,4.4c-3.3,0.4-2.5-2.4-2.7-4c-0.4-3.8-0.3-7.6-0.1-11.4c0.2-4.7-1.4-8.7-4.3-12.3
	c-1.7,0.5-1.1,3.1-3.1,2.8c-0.1-5.6-0.1-11.3-0.2-16.9c1.4,0.3,2.9,0.7,4.3,0.8c2,0.2,4.3,0.9,5-2.3c0.6-2.5,3-1.2,4.6-1.7
	c-2.9,1.2-4.2,3.2-3.8,6.6c0.3,2.8,0,5.6-0.1,8.5c-0.1,2.1,0.3,3.8,1.9,5.4c3.3,3.2,4.5,7.1,4.2,11.8c-0.5,7.1-0.6,14.3-1,21.4
	c0,1-0.1,2.6-0.6,2.8c-5.5,2.5-3.2,7.3-3.3,11.3C52.4,177,52.5,181.2,52.4,185.4z"/>
<path class="st0" d="M51.5,151.3c0,3.5-2.4,4.2-5,4c-2.7-0.3-3.9,1.2-5,3.1c-0.5-11-0.4-22,0.1-33c0.2-0.3,0.4-0.5,0.6-0.8
	c1-1.8-1-5.1,1.6-5.5c1.9-0.3,2.2,3,3.4,4.5c2.7,3.2,3.3,7,3.4,11.2c0.1,5.2-1.2,10.6,0.8,15.7c0.4,0.2,0.5,0.3,0.4,0.6
	C51.7,151.2,51.6,151.3,51.5,151.3z"/>
<path class="st1" d="M66.5,113.4c0.3,1.7,0.6,3.3,0.9,5c-0.9,2.5,0.8,4.2,2.3,5.6c6.8,6.3,6.6,14.2,5.8,22.4
	c-0.5,0.3-0.9,0.3-1.3-0.1c-0.3-0.4-0.5-0.8-0.7-1.3c-0.6-2.6,0.2-5.3-0.8-7.8c-0.7-2.4-1.9-4.3-4.5-5c-2.5,0.4-0.4,4.6-3.6,4.3
	c-1.8-8.8-0.6-17.6-0.8-26.6C66.3,110.3,65.1,112.6,66.5,113.4z"/>
<path class="st4" d="M66.4,191.3c-3.1,0.9-1.8-1.6-1.8-2.7c-0.1-7.1,0-14.3,0-21.4c0.5-0.5,0.8-1.4,1.8-0.9
	C66.4,174.7,66.4,183,66.4,191.3z"/>
<path class="st1" d="M64.5,164.3c0.3-3.7-2.2-7.3,0-11c1.1-0.7,2.1-0.3,3.1,0c1.1,0.4,1.9,1.1,2.3,2.3c0,0.5-0.1,0.9-0.4,1.2
	c-1,0.8-1.9,1.7-2.9,2.5C64.8,160.6,67.6,163.7,64.5,164.3z"/>
<path class="st1" d="M69.4,156.9L69.4,156.9c0.9-2.1,2.6-2.4,4.6-2.3c0.5,0.2,1,0.4,1.4,0.8c0.2,1.5,0.6,3.2-1.2,3.9
	C72,160.2,70.6,158.6,69.4,156.9z"/>
<path class="st1" d="M75.4,155.4c-0.4,0-0.8-0.1-1.1-0.1c-1.9-3-2-6,0.1-8.9c0.3,0,0.7,0,1,0C75.4,149.4,75.4,152.4,75.4,155.4z"/>
<path class="st5" d="M38.4,52.4c0.1,0.9,0.1,1.8,0.2,2.8c0,4.4,0,8.7,0,13.1C38,63,36.4,57.6,38.4,52.4z"/>
<path class="st1" d="M55.4,96.4c0.6-1,1.2-0.3,1.8,0c3.2,2.2,3,5.3,2.2,8.5c-0.2,0.5-0.6,1-1.2,1.2l-0.4,0l-0.4,0
	c-0.8-1-0.1-2.4-0.8-3.5c0.7,1,0.5,1.9-0.3,2.8c-0.2-0.1-0.5-0.2-0.7-0.2C55.5,102.4,55.4,99.4,55.4,96.4z"/>
<path class="st1" d="M48.6,39.4c1.2-1.9,0.7-4.1,0.9-6.1c0.2-1.6,1-1.3,1.9-0.9c0.2,0.2,0.4,0.4,0.6,0.5c1.1,2.3,1.1,4.6,0,6.9
	c-0.2,0.2-0.4,0.3-0.6,0.5c-0.9,0.3-1.8,0.6-2.7,0.9C48.6,40.6,48.6,40,48.6,39.4z"/>
<path class="st6" d="M37.5,6c0.8,0.4,1.5,0.8,2.3,1.3c-1.4,0.2-2.3,0.9-2.4,2.3c-0.9-0.9-0.8-2.1-0.8-3.3C36.8,6.2,37.1,6.1,37.5,6z
	"/>
<path class="st2" d="M63.6,193.4c0.6,4,1.2,8,1.8,12c-0.6,0.5-1.3,0.6-2,0.4c-1.1-0.5-2-1.3-2.8-2.2c-1.4-2.2-1.9-4.7-2.4-7.2
	c0.2-0.1,0.4-0.2,0.6-0.2c1-0.9,2.6-0.7,3.6-1.8C62.8,194.1,63.2,193.8,63.6,193.4z"/>
<path class="st1" d="M67.4,154.4c-1-0.3-1.9-0.7-2.9-1c0-0.3,0-0.7,0-1c0.6-3.7-0.1-7.3,0-11c0-1.7,0-3.3,0-5c1.5-1.3,0.8-3,1-4.6
	c0.3-2.1,0.9-3.2,3-1.4c-0.7,6.2-0.3,12.5-0.4,18.7C68.1,150.9,68.5,152.7,67.4,154.4z"/>
<path class="st1" d="M66.5,100.4c1.8,2.5,2.9,5.4,3.7,8.3c0.3,1,0,2-1.2,2.2c-1,0.2-1.2-0.9-1.6-1.5c-0.4-0.9-1.2-0.9-2-1
	C64.1,105.5,62.6,102.6,66.5,100.4z"/>
<path class="st1" d="M58.3,196.5c2.8,1.5,1.8,4.6,3.1,6.8c-0.4,1.4-0.7,2.8-2.3,3.4c-0.5-0.1-0.9-0.3-1-0.8c-0.2-1.6,0.1-3.3,0-3.9
	c0,0,0.2,1-0.8,1.7c-1.1-2-0.6-4.2-1-6.3C56.7,196.6,57.4,196.3,58.3,196.5z"/>
<path class="st1" d="M60.4,97.4c1.7-1.5,2.8-1,3.3,1.1c1.2,3,1.5,5.9-0.3,8.8c-0.9,0.6-1.8,1.5-3,0.3c0-0.7,0.1-1.3,0.3-1.9
	C61.4,102.9,59.5,100.2,60.4,97.4z"/>
<path class="st1" d="M66.5,100.4c-2.1,2.4-0.6,5.3-1,8l-0.5,0l-0.5-0.1c-1-3.3-0.7-6.7-0.2-10c0.4-1,0.8-2,1.1-3
	C66.9,96.8,66.5,98.6,66.5,100.4z"/>
<path class="st2" d="M64.4,98.3c0.1,3.3,0.1,6.7,0.2,10c-0.4-0.4-0.8-0.7-1.2-1.1c0.1-2.9,0.2-5.9,0.3-8.8
	C63.9,98.4,64.1,98.4,64.4,98.3z"/>
<path class="st7" d="M62.5,194.4c-0.3,2.4-2,2-3.6,1.8C59.3,194.1,61,194.6,62.5,194.4z"/>
<path class="st2" d="M61.6,106.2c-0.4,0.5-0.8,0.9-1.2,1.4c-0.9-0.2-1.7-0.4-2.1-1.4c0.1-0.3,0.2-0.5,0.4-0.8
	C59.9,104.5,61,104.2,61.6,106.2z"/>
<path class="st1" d="M56.3,105.6c0.2-1.1,0.3-2.1,0.5-3.2c0.2,0,0.4,0,0.6,0c0,1.3,0,2.5,0,3.8C56.7,106.5,56.5,106.1,56.3,105.6z"
	/>
<path class="st1" d="M43.5,224.4c-1.7-5.2-0.5-10.6-1.3-15.9c0.3,0.2,0.6,0.3,0.8,0.6c1.2,1.7-0.4,5,1.2,5.3c3,0.4,6.4,0.7,9.5-1
	c1.7-1.3,3.1-0.2,4.4,0.6c2.3,1.6,5,2.3,7.4,3.4c0.4,1.4,1.9,1.7,2.8,2.6c-1,0.8-1.9,1.7-2.9,2.5c-4.2-0.8-7.8,1.6-11.9,1.8
	C50.2,224.4,46.9,224.4,43.5,224.4z"/>
<path class="st0" d="M24.3,2.2c1.7-3.3,4.6-1.6,7-1.6c2.5,1.2,5.4,2.1,5.2,5.8c-2.1-1.1-4.3-1-6.6-0.8C27.3,5.9,25.1,5.2,24.3,2.2z"
	/>
<path class="st1" d="M60.6,35.4c0,0.3,0,0.7,0,1c-0.1,1.3-0.2,2.6-0.3,3.9c-3-1.8-3.1-3.7-0.1-5.7l0.2-0.2
	C60.5,34.7,60.6,35,60.6,35.4z"/>
<path class="st1" d="M60.2,34.6c-1.2,1.9-1.3,3.8,0.1,5.7c-0.4,1.4,1.7,4.1-1.9,4.1l0,0.1c-1.9-3.7-2.3-7.4,0-11.1l0,0.1
	C59.2,33.6,60.1,33.5,60.2,34.6z"/>
<path class="st2" d="M0.7,145.5c0.4-10.2-0.6-20.5,0.5-30.7c0.3-3.3,1-6.5,2.1-9.6c2.4,1.7,4.9,1.5,7.6,0.7c7.9-2.4,16-2.3,24.1-2.9
	c5.4-0.5,6.8,0.9,7.9,5.9c0.8,5.5-0.5,11.1,0.2,16.7c0.1,10.9,0.2,21.7-0.1,32.6c0,6.5-0.2,13.1-0.1,19.6c0,2.1,0.1,4.3,0.7,6.3
	c0.6,3.5,0.6,6.9,0.3,10.4c-0.3,4.5-2.1,6.5-6.6,6.3c-11.3-0.5-22.5-1.8-33-6.6c-3.1-3.1-2.7-7.1-3-11c0.1-8.3,0-16.5-0.9-24.8
	c0-1,0-2.1,0-3.1C1.4,152.1,1,148.8,0.7,145.5z"/>
<path class="st2" d="M9.6,67.4c-1.6-3,1.2-5.8,0.5-8.8c-0.4-1.7-0.4-3.5-0.5-5.3C8.4,49.6,8.9,45.7,7.9,42c0.2-1.5,0-2.9,0.2-4.4
	c0.1-1.2,0.3-2.3,1.2-3.2c0.6-0.2,1.1-0.2,1.5,0.3c2.5,6.7,2.5,6.7,9.9,4.6c4-1.1,8.1-1.9,12.2-2.2c4.8-0.3,6.7,1.5,7.1,6.2
	c0.2,3.1,0.3,6.3-0.5,9.4c-2.8,4.6-0.8,9.7-1.6,14c0.1,1.1,1.1,0.2,0.5,0.5c-0.1,0-0.2-0.1-0.2-0.3C38,63,37.4,59,38.6,55.2
	c2.1,0.5,2.3,2.4,2.3,4c0.1,10.2,1.8,20.3,1.2,30.4c-0.2,3.6-1.4,6.4-5.5,6.3c-11.2-0.2-22.2,1.8-33,4.6C3.1,91.2,3.4,82.2,9,74.2
	C10.3,72.2,9.9,69.7,9.6,67.4z"/>
<path class="st2" d="M66.4,191.3c1.4,2.1,1.7,4.6,2.1,7c-0.4,3.3-0.7,6.7-1.1,10c-3-0.7-1.9-3.4-2.6-5.2c-0.9-2.4-0.3-5-1.2-7.3
	c-0.4-0.4-1-0.5-1.6-0.4c-1,0.2-1.9,0.7-2.8,1.3c-0.4,0.3-0.8,0.5-1.2,0.7c-0.9,0.4-1.8,0.7-2.8,0.7c-2.3-0.1-2.9-1.9-3.2-3.7
	c-0.7-3.2-1.2-6.5-1-9.8c0-4.3,0-8.7,0-13c0-3.8,0.2-7.4,2.7-10.8c2.4-3.5,1.4-8.1,1.8-12.2c0.6-8,1.5-15.9-4-23.4
	c-3.7-5.1-1.8-11.9-0.4-17.9c0.5-2.3,3.1-0.6,4.1-1.9l0.2-0.1l0.1,0.2c0.2-0.3,0.5-0.5,0.9-0.4c0.6,0.1,1.1,0.3,1.6,0.6
	c0.4,0.1,0.7,0.3,1.1,0.5c0.5,0.2,1.1,0.4,1.6,0.6c0.8,0.2,1.6,0.2,2.4,0.3c0.6,0.1,1.3,0.2,1.9,0.3c0.5,0.1,0.9,0.2,1.3,0.4
	c0.9,0.4,1.5,1.1,1.5,2.2c-0.1,1.4-0.3,2.9-1.5,3.9c-2.1,0.1-1.6,1.7-1.5,2.9c0.1,6.7-0.5,13.4,0.9,20c0,1.5,0,3.1,0,4.6
	c-1.2,3.6-0.7,7.2-0.1,10.9c0,0.5,0,1.1-0.1,1.6c-1,3.6,0.1,7.3-0.2,10.9c0,1.1,0,2.2,0,3.2c0,6.3,0,12.6,0,18.8
	C65.5,188.2,65,190,66.4,191.3z"/>
<path class="st2" d="M55.5,235.4c-2-3.4-1.6-7.3-2-11c3.3-2.9,7.1-3.6,11.3-2.8c2.8,2.3,1.6,4.9,0.5,7.5c-0.5,1.2-1.8,1.9-1.9,3.3
	C61.2,234.4,58.7,235.8,55.5,235.4z"/>
<path class="st2" d="M10.5,34.4c0-3,0-6,0-9.1c0-1.3,0-2.7,0-4c2-1.5,2.6-3.7,2.9-6c-0.6-1.2,0-2.3,0.6-3.2c1.8-1.7,4.1-2.7,5.8-4.5
	c1.8-1.4,2-3.9,3.6-5.5c0.5-0.1,0.9-0.1,1.4,0c2,1.4,4.2,2.3,6.8,2.1c2.1-0.2,3.8,0.4,5,2.2l-0.1-0.1c1,0.9,0.1,2.3,0.8,3.3
	c0.1,5.6,0.1,11.2,0.4,16.8c0.2,3.1-0.9,4-3.9,4C25.8,30.3,18,31.5,10.5,34.4z"/>
<path class="st2" d="M59.3,59.6c0.1,7.1,3.9,13.4,4.4,20.4c0.3,5.1,1.2,10.2,1.8,15.3c0.5,1.2-0.1,2.2-0.7,3.1
	c-0.4,0.2-0.8,0.3-1.3,0.3c-1-0.4-1.9-0.9-3-0.7c-1,0-2-0.3-3-0.6c-0.8-0.2-1.3-0.8-2.1-0.9c-3.6-0.8-4.2-3.3-4.1-6.6
	c0.6-14.8-2.8-29.4-2.7-44.1c0-1.5,0.1-3,0.1-4.5c0.8-0.8,1.7-1.4,2.9-1c1,0.5,1.9,0.9,3,1.1c1,0.3,2,0.7,2.9,1.3
	c0.3,0.3,0.6,0.6,0.8,1c0,0.2,0.1,0.4,0.1,0.6C59,49.4,57.7,54.6,59.3,59.6z"/>
<path class="st2" d="M46.4,9.5c7.2,2.9,9.2,9.4,10.8,16.1c0.6,2.6,0.8,5.2,1.3,7.8c-0.2,0.1-0.4,0.2-0.6,0.3c-0.4,0-0.9,0-1.3-0.1
	c-1.6-0.5-3.1-1.3-4.8-0.4c-2.3,1.4,0.4,5.4-3.2,6.2C47.8,29.5,47.1,19.5,46.4,9.5z"/>
<path class="st2" d="M6.5,203.1c11.5,4.4,23.4,5.8,35.7,5.4c0.2,5.3,3.6,10.4,1.3,15.9c0,4.3,0,8.6,0,12.9c-3.8,3.1-9.1,3.8-12.6,1
	c-6.9-5.4-13.9-10.6-20.1-16.9c-4.6-4.7-5.5-10.7-6-16.9C4.8,203.5,5.8,203.3,6.5,203.1z"/>
<path class="st2" d="M65.5,217.3c-2.5,1.9-4.3-0.3-6.2-1.2c-1.9-0.9-3.5-2.4-5.7-2.8c-0.7-3.4-0.3-6.1,3.7-7.1
	c0.4,0.1,0.8,0.2,1.2,0.3c0.2-0.1,0.5-0.2,0.8-0.2c1.2-1.2,2.7-1.3,4.2-1c0.6,0,1.2,0,1.9,0C65.4,209.4,65.4,213.4,65.5,217.3z"/>
<path class="st2" d="M51.6,145.3c0-4.6,0-9.3,0-15.3c4.6,5.2,1.1,10,1.8,14.3C52.9,144.9,52.7,145.9,51.6,145.3z"/>
<path class="st2" d="M51.6,145.3c0.6-0.3,1.2-0.6,1.8-1c0,2.5,0.4,5.1-1.9,6.9c0-0.3,0-0.6-0.1-0.9C51.4,148.7,51.5,147,51.6,145.3z
	"/>
<path class="st1" d="M74.4,145.6c-1-3-1-6.1-0.8-9.2C75.1,139.3,74.5,142.5,74.4,145.6z"/>
<path class="st1" d="M51.4,32.4c2.5-2.1,4.3-0.5,6.1,1.1c0.5,3.3,0.9,6.6-0.2,9.8c-1-0.3-1.9-0.7-2.9-1c-0.5-0.6-0.9-1.1-1.1-1.9
	C52.8,37.8,53.6,34.7,51.4,32.4L51.4,32.4z"/>
<path class="st2" d="M61.6,106.2c-0.8-1.1-1.9-0.8-3-0.7c-0.1-3,0.2-6.2-1.4-9c1.1,0.3,2.1,0.6,3.2,0.9
	C61.7,100.2,63,103,61.6,106.2z"/>
<path class="st1" d="M57.3,43.3c0.1-3.3,0.2-6.5,0.2-9.8c0.3-0.1,0.6-0.2,0.9-0.2c0,3.7,0,7.4,0,11.1C58.1,44.1,57.7,43.7,57.3,43.3
	z"/>
<path class="st1" d="M54.5,40.5c0,0.6,0,1.2-0.1,1.8c-1.5,0.1-2.9,0-3-2l0-0.1C52.5,39.6,53.5,39.5,54.5,40.5z"/>
<path class="st1" d="M54.5,40.5c-1-0.1-2.1-0.2-3.1-0.3c0-2.6,0-5.2,0-7.8C55.4,34,54.4,37.5,54.5,40.5z"/>
<path class="st1" d="M63.5,205.4c-1.2,1.1-2.7,1.1-4.2,1c0.3-1.3-0.4-3.3,2.1-3.1C62.1,204,62.8,204.7,63.5,205.4z"/>
</svg>
