<?xml version="1.0" encoding="utf-8"?>
<!-- Generator: Adobe Illustrator 19.0.0, SVG Export Plug-In . SVG Version: 6.00 Build 0)  -->
<svg version="1.1" xmlns="http://www.w3.org/2000/svg" xmlns:xlink="http://www.w3.org/1999/xlink" x="0px" y="0px"
	 viewBox="269.2 398.1 48.1 32.2" style="enable-background:new 269.2 398.1 48.1 32.2;" xml:space="preserve">
<style type="text/css">
	.st0{display:none;}
	.st1{display:inline;}
	.st2{fill:#231F20;}
</style>
<g id="Capa_1" class="st0">
	<g class="st1">
		<g>
			<path d="M309.7,404.6l-6.5-1.9v24.9c0,0.1,0,0.2,0,0.4c0.8,0.1,1.6-0.4,1.8-1.2l5.8-20.1C311.1,405.8,310.6,404.9,309.7,404.6z"
				/>
			<path d="M288.5,405.5c-0.7,0.3-1.3,0.7-1.8,1.3h1.2C288.1,406.3,288.3,405.9,288.5,405.5z"/>
			<path d="M287.6,407.9h-1.8c-0.4,0.7-0.6,1.4-0.7,2.2h2.2C287.4,409.3,287.5,408.6,287.6,407.9z"/>
			<path d="M294.8,406.8c-0.5-0.5-1.1-1-1.8-1.3c0.2,0.4,0.4,0.8,0.6,1.3H294.8z"/>
			<path d="M286.7,414.5c0.5,0.5,1.1,1,1.8,1.3c-0.2-0.4-0.4-0.8-0.6-1.3H286.7z"/>
			<path d="M292.9,410.1c0-0.8-0.1-1.5-0.3-2.2h-3.9c-0.2,0.6-0.3,1.4-0.3,2.2H292.9L292.9,410.1z"/>
			<path d="M290.7,405c-0.6,0-1.1,0.7-1.6,1.7h3.2C291.9,405.7,291.3,405,290.7,405z"/>
			<path d="M287.3,411.2h-2.2c0.1,0.8,0.3,1.5,0.7,2.2h1.8C287.5,412.7,287.4,412,287.3,411.2z"/>
			<path d="M294.1,410.1h2.2c-0.1-0.8-0.3-1.5-0.7-2.2h-1.8C293.9,408.6,294,409.3,294.1,410.1z"/>
			<path d="M290.7,416.2c0.6,0,1.1-0.7,1.6-1.7h-3.2C289.6,415.6,290.2,416.2,290.7,416.2z"/>
			<path d="M293.8,413.3h1.8c0.4-0.7,0.6-1.4,0.7-2.2h-2.2C294,412,293.9,412.7,293.8,413.3z"/>
			<path d="M284.9,421.1h-1v1.8h1c0.8,0,1.1-0.3,1.1-0.9C286,421.4,285.6,421.1,284.9,421.1z"/>
			<polygon points="288,423.1 289.3,423.1 288.6,421.6 			"/>
			<path d="M299.9,398.2h-18.4c-1.4,0-2.5,1.1-2.5,2.5v26.9c0,1.4,1.1,2.5,2.5,2.5h18.4c1.4,0,2.5-1.1,2.5-2.5v-26.9
				C302.4,399.3,301.3,398.2,299.9,398.2z M290.7,403.9c3.7,0,6.7,3,6.7,6.7s-3,6.7-6.7,6.7c-3.7,0-6.7-3-6.7-6.7
				C284,406.9,287,403.9,290.7,403.9z M283.9,423.8v1.1c0,0.2-0.2,0.4-0.4,0.4h0c-0.2,0-0.4-0.2-0.4-0.4v-4.2c0-0.2,0.2-0.4,0.4-0.4
				h1.4c1.3,0,2,0.7,2,1.8c0,1.1-0.8,1.8-2,1.8H283.9L283.9,423.8z M291,425.1c-0.1,0.1-0.2,0.2-0.4,0.2h0c-0.2,0-0.3-0.1-0.4-0.2
				l-0.5-1.1h-2.1l-0.5,1.1c-0.1,0.2-0.2,0.2-0.4,0.2h-0.1c-0.1,0-0.3-0.1-0.4-0.2c-0.1-0.1-0.1-0.3,0-0.4l1.9-4.2
				c0.1-0.1,0.2-0.2,0.4-0.2h0c0,0,0,0,0,0h0c0.2,0,0.3,0.1,0.4,0.2l2,4.2C291.1,424.8,291.1,424.9,291,425.1z M292.9,425.3
				c-0.6,0-1.3-0.3-1.7-0.7c-0.1-0.1-0.1-0.2-0.1-0.3c0-0.1,0-0.2,0.1-0.3l0,0c0.2-0.2,0.4-0.2,0.6,0c0.3,0.3,0.7,0.4,1.1,0.4
				c0.4,0,1-0.1,1-0.5c0-0.4-0.2-0.5-1-0.8c-0.7-0.2-1.6-0.5-1.6-1.6c0-0.8,0.7-1.3,1.8-1.3c0.5,0,1,0.1,1.3,0.3
				c0.1,0.1,0.2,0.2,0.2,0.3c0,0.1,0,0.2-0.1,0.3l0,0c-0.1,0.2-0.4,0.3-0.6,0.1c-0.2-0.1-0.6-0.2-0.9-0.2c-0.4,0-0.9,0.1-0.9,0.5
				c0,0.4,0.2,0.5,1,0.7c0.7,0.2,1.6,0.5,1.6,1.6C294.7,424.7,294,425.3,292.9,425.3z M296.5,425.3c-0.6,0-1.3-0.3-1.7-0.7
				c-0.1-0.1-0.1-0.2-0.1-0.3c0-0.1,0-0.2,0.1-0.3l0,0c0.2-0.2,0.4-0.2,0.6,0c0.3,0.3,0.7,0.4,1.1,0.4c0.4,0,1-0.1,1-0.5
				c0-0.4-0.2-0.5-1-0.8c-0.7-0.2-1.6-0.5-1.6-1.6c0-0.8,0.7-1.3,1.8-1.3c0.5,0,1,0.1,1.3,0.3c0.1,0.1,0.2,0.2,0.2,0.3
				c0,0.1,0,0.2-0.1,0.3l0,0c-0.1,0.2-0.4,0.3-0.6,0.1c-0.2-0.1-0.6-0.2-0.9-0.2c-0.4,0-0.9,0.1-0.9,0.5c0,0.4,0.2,0.5,1,0.7
				c0.7,0.2,1.6,0.5,1.6,1.6C298.4,424.7,297.6,425.3,296.5,425.3z"/>
			<path d="M288.5,411.2c0,0.8,0.1,1.5,0.3,2.2h3.9c0.2-0.6,0.3-1.4,0.3-2.2H288.5L288.5,411.2z"/>
			<path d="M292.9,415.7c0.7-0.3,1.3-0.7,1.8-1.3h-1.2C293.3,414.9,293.1,415.4,292.9,415.7z"/>
		</g>
	</g>
</g>
<g id="Layer_2" class="st0">
	<g class="st1">
		<g>
			<polygon class="st2" points="291.1,408.5 290,407.6 287.1,411.2 285.6,410 284.7,411 287.3,413.1 288.1,412 288.1,412 			"/>
			<rect x="291.8" y="409.5" class="st2" width="9.4" height="1.9"/>
			<rect x="291.8" y="416.1" class="st2" width="9.4" height="1.9"/>
			<circle class="st2" cx="287.6" cy="417" r="1.4"/>
			<rect x="291.8" y="421.7" class="st2" width="9.4" height="1.9"/>
			<circle class="st2" cx="287.6" cy="422.7" r="1.4"/>
		</g>
		<rect x="288.3" y="401" class="st2" width="9.4" height="2.8"/>
		<rect x="289.2" y="399.1" class="st2" width="7.5" height="1.9"/>
		<path class="st2" d="M281.7,400.9v28.2h22.6v-28.2H281.7z M302.4,427.2h-18.8v-24.4h18.8V427.2z"/>
	</g>
</g>
<g id="Layer_3">
	<g>
		<g>
			<path d="M298.6,404l-9.2-0.5c-0.1,0-0.2,0-0.3,0.1l-5.1,2.7c-0.2,0.1-0.3,0.2-0.3,0.4c0,0.2,0,0.3,0.1,0.5l2.6,3.1
				c0,0,0.1,0,0.1-0.1L298.6,404z"/>
			<path d="M316.7,400.7C316.7,400.7,316.7,400.7,316.7,400.7c-0.4-0.7-1.2-1.5-3-1.5c-1.9,0-4,0.9-4.1,0.9
				c-5.1,2-29.2,14.7-29.2,14.7l-5.8-3.1c-0.2-0.1-0.4-0.1-0.5,0l-4.1,2.1c-0.2,0.1-0.3,0.3-0.3,0.4c0,0.2,0.1,0.4,0.2,0.5l9.9,8.6
				c0.2,0.2,0.4,0.2,0.7,0.1l9.7-5.1l1.5,10.3c0,0.2,0.1,0.4,0.3,0.4c0.1,0,0.2,0.1,0.3,0.1c0.1,0,0.2,0,0.3-0.1
				c1-0.6,1.7-0.9,2.3-1.2c0.6-0.3,1.3-0.7,2.3-1.3c0.1-0.1,0.2-0.2,0.3-0.3l6.9-15.3l7.1-3.7C314.6,405.6,317.7,403,316.7,400.7z"
				/>
		</g>
	</g>
</g>
</svg>
