<?xml version="1.0" encoding="utf-8"?>
<!-- Generator: Adobe Illustrator 19.0.0, SVG Export Plug-In . SVG Version: 6.00 Build 0)  -->
<svg version="1.1" id="Layer_1" xmlns="http://www.w3.org/2000/svg" xmlns:xlink="http://www.w3.org/1999/xlink" x="0px" y="0px"
	 viewBox="0 0 188.1 131.2" style="enable-background:new 0 0 188.1 131.2;" xml:space="preserve">
<style type="text/css">
	.st0{fill:#DEE0DD;}
	.st1{fill:#3A88C8;}
	.st2{fill:#1B6069;}
	.st3{fill:#FFFFFF;}
	.st4{fill:#1C5D69;}
	.st5{fill:#184D59;}
	.st6{fill:#D0CED1;}
	.st7{fill:#F7F5F6;}
	.st8{fill:#E1DDE4;}
	.st9{fill:#F4F7F6;}
	.st10{fill:#1A4A5B;}
	.st11{fill:#0B1F22;}
	.st12{fill:#D2D2D3;}
	.st13{fill:#BFBEBE;}
	.st14{fill:#FEFEFF;}
	.st15{fill:#D5C170;}
	.st16{fill:#E6D98E;}
	.st17{fill:#EFE7BB;}
	.st18{fill-rule:evenodd;clip-rule:evenodd;fill:#EFE7BB;}
</style>
<polygon class="st0" points="7.2,41.1 0,41.1 93.1,0 188.1,41.1 174.8,41.1 93.1,5.4 11.1,41.1 "/>
<polygon class="st1" points="7.2,44.5 7.2,131.2 179.1,131.2 179.1,44.5 174.7,44.5 92.8,9.3 10.9,44.5 "/>
<polygon class="st2" points="7.2,44.5 7.2,41.1 11.1,41.1 93.1,5.4 174.8,41.1 179.1,41.1 179.1,44.5 174.7,44.5 92.8,9.3 
	10.9,44.5 "/>
<rect x="37.8" y="34.6" class="st3" width="110.5" height="20.4"/>
<rect x="37.8" y="54.9" class="st4" width="110.5" height="3.4"/>
<rect x="12.1" y="64.1" class="st5" width="31.1" height="60.6"/>
<rect x="13.6" y="65.8" class="st6" width="8.4" height="9.9"/>
<rect x="23.5" y="65.8" class="st7" width="8.4" height="9.9"/>
<rect x="33.4" y="65.8" class="st6" width="8.4" height="9.9"/>
<rect x="13.6" y="77.8" class="st6" width="8.4" height="9.9"/>
<rect x="23.5" y="77.8" class="st6" width="8.4" height="9.9"/>
<rect x="33.4" y="77.8" class="st7" width="8.4" height="9.9"/>
<rect x="13.6" y="89.3" class="st6" width="8.4" height="9.9"/>
<rect x="23.5" y="89.3" class="st6" width="8.4" height="9.9"/>
<rect x="33.4" y="89.3" class="st6" width="8.4" height="9.9"/>
<rect x="13.6" y="101" class="st6" width="8.4" height="9.9"/>
<rect x="23.5" y="101" class="st7" width="8.4" height="9.9"/>
<rect x="33.4" y="101" class="st6" width="8.4" height="9.9"/>
<rect x="13.6" y="112.9" class="st6" width="8.4" height="9.9"/>
<rect x="23.5" y="112.9" class="st6" width="8.4" height="9.9"/>
<rect x="33.4" y="112.9" class="st6" width="8.4" height="9.9"/>
<rect x="143" y="64.1" class="st5" width="31.1" height="60.6"/>
<rect x="144.5" y="65.8" class="st8" width="8.4" height="9.9"/>
<rect x="154.4" y="65.8" class="st8" width="8.4" height="9.9"/>
<rect x="164.3" y="65.8" class="st9" width="8.4" height="9.9"/>
<rect x="144.5" y="77.8" class="st8" width="8.4" height="9.9"/>
<rect x="154.4" y="77.8" class="st9" width="8.4" height="9.9"/>
<rect x="164.3" y="77.8" class="st8" width="8.4" height="9.9"/>
<rect x="144.5" y="89.3" class="st8" width="8.4" height="9.9"/>
<rect x="154.4" y="89.3" class="st8" width="8.4" height="9.9"/>
<rect x="164.3" y="89.3" class="st8" width="8.4" height="9.9"/>
<rect x="144.5" y="101" class="st8" width="8.4" height="9.9"/>
<rect x="154.4" y="101" class="st9" width="8.4" height="9.9"/>
<rect x="164.3" y="101" class="st8" width="8.4" height="9.9"/>
<rect x="144.5" y="112.9" class="st8" width="8.4" height="9.9"/>
<rect x="154.4" y="112.9" class="st8" width="8.4" height="9.9"/>
<rect x="164.3" y="112.9" class="st8" width="8.4" height="9.9"/>
<rect x="46.7" y="60.8" class="st10" width="92.7" height="65"/>
<rect x="49.7" y="60.8" class="st11" width="86.7" height="63"/>
<rect x="49.7" y="60.8" class="st12" width="86.7" height="19.4"/>
<g>
	<rect x="54.2" y="66.8" class="st13" width="36.7" height="1.5"/>
	<rect x="54.2" y="68.8" class="st13" width="36.7" height="1.5"/>
	<rect x="54.2" y="70.8" class="st13" width="36.7" height="1.5"/>
	<rect x="54.2" y="72.8" class="st13" width="36.7" height="1.5"/>
	<rect x="54.2" y="74.8" class="st13" width="36.7" height="1.5"/>
	<rect x="54.2" y="76.8" class="st13" width="36.7" height="1.5"/>
</g>
<g>
	<rect x="95.4" y="66.8" class="st13" width="36.7" height="1.5"/>
	<rect x="95.4" y="68.8" class="st13" width="36.7" height="1.5"/>
	<rect x="95.4" y="70.8" class="st13" width="36.7" height="1.5"/>
	<rect x="95.4" y="72.8" class="st13" width="36.7" height="1.5"/>
	<rect x="95.4" y="74.8" class="st13" width="36.7" height="1.5"/>
	<rect x="95.4" y="76.8" class="st13" width="36.7" height="1.5"/>
</g>
<rect x="45.3" y="60.8" class="st14" width="95.6" height="6.2"/>
<rect x="50.2" y="88" class="st15" width="14.3" height="11.9"/>
<rect x="49.7" y="88" class="st16" width="15.4" height="2"/>
<rect x="66" y="88" class="st15" width="14.3" height="11.9"/>
<rect x="65.6" y="88" class="st16" width="15.4" height="2"/>
<rect x="50.2" y="99.9" class="st15" width="14.3" height="11.9"/>
<rect x="49.7" y="99.9" class="st16" width="15.4" height="2"/>
<rect x="66" y="99.9" class="st15" width="14.3" height="11.9"/>
<rect x="65.6" y="99.9" class="st16" width="15.4" height="2"/>
<rect x="50.2" y="111.9" class="st15" width="14.3" height="11.9"/>
<rect x="49.7" y="111.9" class="st16" width="15.4" height="2"/>
<rect x="66" y="111.9" class="st15" width="14.3" height="11.9"/>
<rect x="65.6" y="111.9" class="st16" width="15.4" height="2"/>
<rect x="105.7" y="99.9" class="st15" width="14.3" height="11.9"/>
<rect x="105.2" y="99.9" class="st16" width="15.4" height="2"/>
<rect x="121.6" y="99.9" class="st15" width="14.3" height="11.9"/>
<rect x="121.1" y="99.9" class="st16" width="15.4" height="2"/>
<rect x="105.7" y="111.9" class="st15" width="14.3" height="11.9"/>
<rect x="105.2" y="111.9" class="st16" width="15.4" height="2"/>
<rect x="121.6" y="111.9" class="st15" width="14.3" height="11.9"/>
<rect x="121.1" y="111.9" class="st16" width="15.4" height="2"/>
<g>
	<path class="st4" d="M47.3,50.1h-1.9v-9.3h5.3v1.6h-3.4v2.4h3.1v1.6h-3.1V50.1z"/>
	<path class="st4" d="M54.5,46.5v3.6h-2v-9.3h2.7c1.3,0,2.2,0.2,2.8,0.7s0.9,1.2,0.9,2.1c0,0.5-0.2,1-0.5,1.5
		c-0.3,0.4-0.7,0.8-1.3,1c1.4,2.1,2.3,3.4,2.7,4h-2.2l-2.2-3.6H54.5z M54.5,44.9h0.6c0.6,0,1.1-0.1,1.4-0.3s0.4-0.5,0.4-1
		c0-0.4-0.2-0.8-0.5-0.9c-0.3-0.2-0.8-0.3-1.4-0.3h-0.6V44.9z"/>
	<path class="st4" d="M66.4,50.1h-5.3v-9.3h5.3v1.6h-3.4v2h3.1V46h-3.1v2.4h3.4V50.1z"/>
	<path class="st4" d="M73.7,50.1h-5.3v-9.3h5.3v1.6h-3.4v2h3.1V46h-3.1v2.4h3.4V50.1z"/>
	<path class="st4" d="M87.9,47.5c0,0.8-0.3,1.5-0.9,2c-0.6,0.5-1.4,0.7-2.5,0.7c-1,0-1.9-0.2-2.6-0.6v-1.8c0.6,0.3,1.2,0.5,1.6,0.6
		c0.4,0.1,0.8,0.2,1.2,0.2c0.4,0,0.8-0.1,1-0.2c0.2-0.2,0.3-0.4,0.3-0.7c0-0.2-0.1-0.3-0.2-0.5s-0.3-0.3-0.4-0.4
		c-0.2-0.1-0.6-0.3-1.2-0.6c-0.6-0.3-1-0.5-1.3-0.8s-0.5-0.5-0.7-0.9C82,44.1,82,43.7,82,43.3c0-0.8,0.3-1.5,0.8-1.9
		c0.6-0.5,1.3-0.7,2.3-0.7c0.5,0,0.9,0.1,1.4,0.2c0.4,0.1,0.9,0.3,1.4,0.5l-0.6,1.5c-0.5-0.2-0.9-0.3-1.2-0.4
		c-0.3-0.1-0.6-0.1-1-0.1c-0.4,0-0.7,0.1-0.9,0.3s-0.3,0.4-0.3,0.7c0,0.2,0,0.3,0.1,0.5s0.2,0.3,0.4,0.4c0.2,0.1,0.6,0.3,1.2,0.7
		c0.9,0.4,1.5,0.8,1.8,1.2S87.9,46.9,87.9,47.5z"/>
	<path class="st4" d="M93.2,50.1h-2v-7.6h-2.5v-1.6h7v1.6h-2.5V50.1z"/>
	<path class="st4" d="M105.5,45.4c0,1.5-0.4,2.7-1.1,3.5c-0.8,0.8-1.9,1.2-3.3,1.2s-2.5-0.4-3.3-1.2c-0.8-0.8-1.1-2-1.1-3.6
		c0-1.5,0.4-2.7,1.1-3.5c0.8-0.8,1.9-1.2,3.3-1.2s2.5,0.4,3.3,1.2C105.2,42.7,105.5,43.9,105.5,45.4z M98.8,45.4
		c0,1,0.2,1.8,0.6,2.3s1,0.8,1.8,0.8c1.6,0,2.4-1,2.4-3.1c0-2.1-0.8-3.1-2.3-3.1c-0.8,0-1.4,0.3-1.8,0.8
		C99,43.6,98.8,44.4,98.8,45.4z"/>
	<path class="st4" d="M109.4,46.5v3.6h-2v-9.3h2.7c1.3,0,2.2,0.2,2.8,0.7s0.9,1.2,0.9,2.1c0,0.5-0.2,1-0.5,1.5
		c-0.3,0.4-0.7,0.8-1.3,1c1.4,2.1,2.3,3.4,2.7,4h-2.2l-2.2-3.6H109.4z M109.4,44.9h0.6c0.6,0,1.1-0.1,1.4-0.3s0.4-0.5,0.4-1
		c0-0.4-0.2-0.8-0.5-0.9c-0.3-0.2-0.8-0.3-1.4-0.3h-0.6V44.9z"/>
	<path class="st4" d="M121.7,50.1l-0.7-2.2h-3.4l-0.7,2.2h-2.1l3.3-9.3h2.4l3.3,9.3H121.7z M120.6,46.2c-0.6-2-1-3.1-1.1-3.4
		c-0.1-0.3-0.1-0.5-0.2-0.6c-0.1,0.5-0.5,1.9-1.2,4H120.6z"/>
	<path class="st4" d="M128.5,44.8h3.7v4.8c-0.6,0.2-1.2,0.3-1.7,0.4c-0.5,0.1-1.1,0.1-1.6,0.1c-1.4,0-2.5-0.4-3.2-1.2
		c-0.7-0.8-1.1-2-1.1-3.5c0-1.5,0.4-2.7,1.3-3.5c0.9-0.8,2-1.3,3.6-1.3c1,0,1.9,0.2,2.8,0.6l-0.7,1.6c-0.7-0.3-1.4-0.5-2.1-0.5
		c-0.9,0-1.5,0.3-2,0.9s-0.8,1.3-0.8,2.3c0,1,0.2,1.8,0.6,2.3c0.4,0.5,1,0.8,1.8,0.8c0.4,0,0.8,0,1.3-0.1v-1.9h-1.8V44.8z"/>
	<path class="st4" d="M139.8,50.1h-5.3v-9.3h5.3v1.6h-3.4v2h3.1V46h-3.1v2.4h3.4V50.1z"/>
</g>
<g>
	<g>
		<polygon class="st17" points="73.6,108.2 73.5,108.5 73.6,108.5 73.7,108.4 		"/>
		<polygon class="st17" points="74,108 74.3,108.1 74.3,108.2 74.1,108.2 		"/>
		<path class="st17" d="M71.9,103.6c-0.1-0.1-0.2-0.2-0.3-0.1l-0.1,0c-0.1,0.1-0.2,0.2-0.1,0.3l1.7,3.2l1.5,3.3
			c0.1,0.1,0.2,0.2,0.3,0.1l0.1,0c0.1-0.1,0.2-0.2,0.1-0.3l-1.7-3.2L71.9,103.6z M74,108.2C74,108.2,74,108.2,74,108.2
			C74,108.3,74,108.3,74,108.2l0.1,0.2c0,0,0,0.1,0,0.1l-0.1,0c0,0-0.1,0-0.1,0l-0.1-0.1c0,0,0,0,0,0c0,0,0,0,0,0l-0.1-0.2
			c0,0,0-0.1,0-0.1l0,0l0,0c0,0,0-0.1,0-0.1l0.1,0c0,0,0.1,0,0.1,0l0,0l0,0c0,0,0.1,0,0.1,0L74,108.2z M73.6,107.8L73.6,107.8
			c0.1,0,0.1,0,0.1,0C73.8,107.8,73.8,107.8,73.6,107.8L73.6,107.8C73.6,107.9,73.6,107.9,73.6,107.8
			C73.6,107.9,73.6,107.8,73.6,107.8z M73.5,107.7L73.5,107.7C73.5,107.7,73.5,107.7,73.5,107.7l0.1-0.1c0,0,0.1,0,0.1,0l0,0
			c0,0,0,0.1,0,0.1L73.5,107.7C73.6,107.8,73.5,107.8,73.5,107.7z M72.5,105l-0.4,0l-0.1-0.1l0.4,0L72.5,105z M72.3,104.6l-0.4,0
			l-0.2-0.3l0.5,0L72.3,104.6z"/>
	</g>
	<g>
		<polygon class="st17" points="72.9,108.2 72.9,108.5 72.9,108.5 72.8,108.4 		"/>
		<polygon class="st17" points="72.5,108 72.2,108.1 72.2,108.2 72.4,108.2 		"/>
		<path class="st17" d="M73,106.9l-1.7,3.2c-0.1,0.1,0,0.3,0.1,0.3l0.1,0c0.1,0.1,0.3,0,0.3-0.1l1.5-3.3l1.7-3.2
			c0.1-0.1,0-0.3-0.1-0.3l-0.1,0c-0.1-0.1-0.3,0-0.3,0.1L73,106.9z M72.6,108C72.6,108,72.6,107.9,72.6,108L72.6,108L72.6,108
			c0.1-0.1,0.1-0.1,0.2-0.1l0.1,0c0,0,0,0.1,0,0.1l0,0l0,0c0,0,0,0.1,0,0.1l-0.1,0.2c0,0,0,0,0,0c0,0,0,0,0,0l-0.1,0.1
			c0,0-0.1,0-0.1,0l-0.1,0c0,0,0-0.1,0-0.1l0.1-0.1c0,0,0,0,0,0c0,0,0,0,0-0.1L72.6,108z M72.9,107.9
			C72.9,107.9,72.9,107.9,72.9,107.9l-0.1,0c0,0-0.1,0,0-0.1c0,0,0,0,0.1,0L72.9,107.9C72.9,107.8,72.9,107.9,72.9,107.9z
			 M72.9,107.8L72.9,107.8c-0.1,0-0.1-0.1-0.1-0.1l0,0c0,0,0.1,0,0.1,0l0.1,0C73,107.7,73,107.7,72.9,107.8L72.9,107.8
			C72.9,107.8,72.9,107.8,72.9,107.8z M74.1,104.9l0.4,0l-0.1,0.1l-0.4,0L74.1,104.9z M74.3,104.3l0.5,0l-0.2,0.3l-0.4,0L74.3,104.3
			z"/>
	</g>
</g>
<g>
	<g>
		<polygon class="st17" points="57.9,108.2 57.8,108.5 57.8,108.5 57.9,108.4 		"/>
		<polygon class="st17" points="58.3,108 58.6,108.1 58.5,108.2 58.4,108.2 		"/>
		<path class="st17" d="M56.2,103.6c-0.1-0.1-0.2-0.2-0.3-0.1l-0.1,0c-0.1,0.1-0.2,0.2-0.1,0.3l1.7,3.2l1.5,3.3
			c0.1,0.1,0.2,0.2,0.3,0.1l0.1,0c0.1-0.1,0.2-0.2,0.1-0.3l-1.7-3.2L56.2,103.6z M58.2,108.2C58.2,108.2,58.2,108.2,58.2,108.2
			C58.2,108.3,58.2,108.3,58.2,108.2l0.1,0.2c0,0,0,0.1,0,0.1l-0.1,0c0,0-0.1,0-0.1,0l-0.1-0.1c0,0,0,0,0,0c0,0,0,0,0,0l-0.1-0.2
			c0,0,0-0.1,0-0.1l0,0l0,0c0,0,0-0.1,0-0.1l0.1,0c0,0,0.1,0,0.1,0l0,0l0,0c0,0,0.1,0,0.1,0L58.2,108.2z M57.9,107.8L57.9,107.8
			c0.1,0,0.1,0,0.1,0C58,107.8,58,107.8,57.9,107.8L57.9,107.8C57.9,107.9,57.8,107.9,57.9,107.8C57.8,107.9,57.8,107.8,57.9,107.8z
			 M57.8,107.7L57.8,107.7C57.7,107.7,57.8,107.7,57.8,107.7l0.1-0.1c0,0,0.1,0,0.1,0l0,0c0,0,0,0.1,0,0.1L57.8,107.7
			C57.8,107.8,57.8,107.8,57.8,107.7z M56.7,105l-0.4,0l-0.1-0.1l0.4,0L56.7,105z M56.5,104.6l-0.4,0l-0.2-0.3l0.5,0L56.5,104.6z"/>
	</g>
	<g>
		<polygon class="st17" points="57.1,108.2 57.2,108.5 57.1,108.5 57,108.4 		"/>
		<polygon class="st17" points="56.7,108 56.4,108.1 56.5,108.2 56.6,108.2 		"/>
		<path class="st17" d="M57.3,106.9l-1.7,3.2c-0.1,0.1,0,0.3,0.1,0.3l0.1,0c0.1,0.1,0.3,0,0.3-0.1l1.5-3.3l1.7-3.2
			c0.1-0.1,0-0.3-0.1-0.3l-0.1,0c-0.1-0.1-0.3,0-0.3,0.1L57.3,106.9z M56.8,108C56.8,108,56.8,107.9,56.8,108L56.8,108L56.8,108
			c0.1-0.1,0.1-0.1,0.2-0.1l0.1,0c0,0,0,0.1,0,0.1l0,0l0,0c0,0,0,0.1,0,0.1l-0.1,0.2c0,0,0,0,0,0c0,0,0,0,0,0l-0.1,0.1
			c0,0-0.1,0-0.1,0l-0.1,0c0,0,0-0.1,0-0.1l0.1-0.1c0,0,0,0,0,0c0,0,0,0,0-0.1L56.8,108z M57.1,107.9
			C57.1,107.9,57.1,107.9,57.1,107.9l-0.1,0c0,0-0.1,0,0-0.1c0,0,0,0,0.1,0L57.1,107.9C57.1,107.8,57.1,107.9,57.1,107.9z
			 M57.1,107.8L57.1,107.8c-0.1,0-0.1-0.1-0.1-0.1l0,0c0,0,0.1,0,0.1,0l0.1,0C57.2,107.7,57.2,107.7,57.1,107.8L57.1,107.8
			C57.2,107.8,57.2,107.8,57.1,107.8z M58.3,104.9l0.4,0l-0.1,0.1l-0.4,0L58.3,104.9z M58.5,104.3l0.5,0l-0.2,0.3l-0.4,0L58.5,104.3
			z"/>
	</g>
</g>
<g>
	<path class="st18" d="M58.4,121.6C58.4,121.5,58.5,121.5,58.4,121.6c0.1,0,0.1,0,0.1,0c0,0,0,0,0.1,0.1c0,0.1,0,0.1,0,0.2
		c0,0.1,0,0.3-0.1,0.4c0,0,0,0,0,0c-0.1,0.1-0.2,0.1-0.3,0.1c-0.1,0-0.3,0-0.4,0.1c-0.1,0-0.2,0-0.4,0c-0.1,0-0.2,0-0.3,0
		c-0.2,0-0.3,0-0.5,0c-0.1,0-0.1,0-0.2-0.1c0,0,0,0,0-0.1c0-0.1,0-0.2,0-0.2c0-0.1,0-0.2,0-0.3c0-0.1,0-0.1,0.1-0.1c0,0,0.1,0,0.1,0
		c0,0,0-0.1,0-0.1c0,0,0,0-0.1,0c-0.1,0-0.2-0.1-0.2-0.2c-0.1-0.1-0.1-0.2-0.2-0.3c0-0.1-0.1-0.2-0.1-0.4c0-0.1-0.1-0.3-0.1-0.4
		c0-0.2,0-0.4,0-0.6c0-0.2,0.1-0.4,0.2-0.6c0.1-0.1,0.2-0.2,0.3-0.2c0.1,0,0.1,0,0.2,0c0,0,0-0.1,0-0.2c0,0-0.1,0-0.1,0
		c-0.1,0-0.1,0-0.1-0.1c0-0.1,0-0.3,0-0.4c0-0.1,0-0.1,0-0.2c0,0,0,0,0-0.1c0.1,0,0.1-0.1,0.2-0.1c0,0,0.1,0,0.1,0c0,0,0,0,0,0
		c0-0.1,0-0.2,0-0.3c0,0,0-0.1,0-0.2c0,0-0.1,0-0.1,0c-0.1,0-0.3,0.1-0.4,0.1c-0.1,0-0.1,0-0.2-0.1c-0.1-0.1-0.2-0.3,0-0.4
		c0.1-0.1,0.2-0.1,0.2-0.1c0.2,0,0.4,0,0.5,0.1c0,0,0,0,0,0c0,0.2,0,0.4,0.1,0.7c0,0,0,0,0,0c0.1,0,0.2,0,0.3,0c0-0.4,0-0.8,0-1.2
		c-0.1,0-0.1,0-0.2,0c-0.2,0-0.3,0-0.5,0c-0.1,0-0.2-0.2-0.2-0.3c0-0.1,0.1-0.2,0.1-0.2c0.1,0,0.1,0,0.2,0c0.2,0,0.4,0,0.6,0.2
		c0,0,0,0,0,0c0,0.2,0,0.4,0,0.5c0,0.3,0,0.6,0,1c0,0,0,0,0,0.1c0,0,0.1,0,0.1,0c0-0.1,0-0.1,0-0.2c0-0.3,0-0.6,0-1
		c0-0.2,0-0.5,0-0.7c0-0.1,0-0.2,0-0.3c0-0.1,0-0.1,0.1-0.2c0.1-0.1,0.1-0.1,0.2-0.1c0.1,0,0.2,0,0.3,0c0.1,0,0.2,0.1,0.2,0.2
		c0.1,0.2,0,0.4-0.2,0.4c-0.2,0-0.3,0-0.5-0.1c0,0,0,0,0,0c0,0,0,0,0,0c0,0.6,0,1.2,0,1.9c0,0,0.1,0,0.1,0c0-0.1,0-0.1,0-0.2
		c0-0.2,0-0.5,0-0.7c0-0.1,0-0.2,0-0.3c0,0,0,0,0,0c0.1-0.1,0.2-0.1,0.3-0.1c0.1,0,0.3,0,0.4,0c0.1,0,0.1,0.1,0.2,0.1
		c0,0.1,0,0.2,0,0.3c-0.1,0.1-0.2,0.2-0.3,0.2c-0.2,0-0.3,0-0.5,0c0,0-0.1,0-0.1,0c0,0.1,0,0.2,0,0.2c0,0.2,0,0.3,0,0.5c0,0,0,0,0,0
		c0.1,0,0.1,0,0.2,0c0.1,0,0.1,0,0.2,0c0.1,0,0.1,0.1,0.1,0.1c0,0.1,0,0.2,0,0.3c0,0.1,0,0.1,0,0.2c0,0-0.1,0.1-0.1,0.1
		c0,0-0.1,0-0.1,0c0,0.5,0,1,0,1.4c0.1,0,0.1,0,0.2,0c0.1,0,0.1,0,0.2,0c0,0,0,0,0.1,0c0,0,0,0,0,0c0,0.1,0,0.2,0.1,0.2
		c0,0.1,0,0.1,0,0.2c0,0,0,0,0,0.1c0,0,0,0,0,0c0,0.2,0,0.4,0,0.5c0,0,0,0.1,0,0.1c0,0.1,0,0.1-0.1,0.1c-0.1,0-0.2,0.1-0.3,0.1
		c-0.1,0-0.1,0-0.2,0c0,0,0,0,0,0C58.4,121.5,58.4,121.5,58.4,121.6z M58.4,118.5C58.3,118.5,58.3,118.5,58.4,118.5
		c-0.2,0-0.3,0-0.4,0c-0.1,0-0.3,0-0.4,0c-0.2,0-0.3,0-0.5,0.1c-0.1,0-0.2,0-0.2,0c0,0,0,0,0,0c0,0.2,0,0.4,0,0.7c0,0.4,0,0.8,0,1.2
		c0,0.3,0,0.6,0,0.9c0,0.1,0,0.1,0,0.2c0.5,0,1.1,0,1.6-0.1c0-0.1,0-0.1,0-0.2c-0.1,0-0.1,0-0.1-0.1c0,0,0,0,0,0c0-0.1,0-0.2,0-0.4
		c0-0.2,0-0.4,0-0.6c0-0.1,0-0.2,0-0.2c0,0,0-0.1,0-0.1c0,0,0.1,0,0.1,0c0,0,0,0,0,0c0-0.2,0-0.3,0-0.5
		C58.4,119.1,58.4,118.8,58.4,118.5C58.4,118.5,58.4,118.5,58.4,118.5z M57.5,122.3C57.5,122.3,57.5,122.3,57.5,122.3
		c0.2,0,0.4,0,0.6,0c0.1,0,0.2,0,0.3-0.1c0.1,0,0.1-0.1,0.1-0.1c0-0.1,0-0.2,0-0.2c0-0.1,0-0.2,0-0.2c0,0,0,0,0,0
		c-0.1,0-0.2,0-0.3,0c-0.2,0-0.4,0-0.6,0c-0.3,0-0.6,0-0.9,0c0,0-0.1,0-0.1,0c0,0,0,0.1,0,0.1c0,0,0,0,0,0c0,0.1,0,0.2,0,0.3
		c0,0.1,0,0.1,0.1,0.2c0,0,0,0,0,0c0.1,0,0.2,0,0.3,0C57.1,122.3,57.3,122.3,57.5,122.3z M56.7,118.6c0,0,0.1,0,0.1,0
		c0.2,0,0.3,0,0.5-0.1c0.2,0,0.4-0.1,0.6-0.1c0.2,0,0.4,0,0.6,0c0.1,0,0.1,0,0.1-0.1c0-0.1,0-0.2,0-0.3c0,0,0-0.1,0-0.1
		c0,0,0-0.1-0.1-0.1c0,0-0.1,0-0.1,0c-0.2,0-0.3,0-0.5,0c-0.1,0-0.3,0-0.4,0c-0.1,0-0.2,0-0.4,0.1c-0.1,0-0.2,0-0.3,0.1
		c-0.1,0-0.1,0.1-0.1,0.1c0,0.1,0,0.1,0,0.2C56.6,118.4,56.7,118.5,56.7,118.6z M56.7,121.3c0-0.8,0-1.5,0.1-2.3
		c-0.1,0-0.1,0-0.2,0.1c-0.2,0.1-0.3,0.3-0.3,0.5c0,0.1,0,0.2-0.1,0.4c0,0.1,0,0.3,0,0.4c0,0.2,0.1,0.4,0.2,0.6
		c0,0.1,0.1,0.2,0.2,0.3C56.6,121.2,56.7,121.2,56.7,121.3z M58.1,117c0.2,0.1,0.4,0.1,0.6,0.1c0.1,0,0.2-0.1,0.2-0.1
		c0,0,0.1-0.1,0.1-0.1c0-0.1,0-0.1-0.1-0.2c-0.1-0.1-0.2-0.1-0.2-0.1c-0.2,0-0.3,0-0.5,0.1c0,0,0,0,0,0.1c0,0,0,0.1,0,0.1
		c0,0.2,0,0.4,0,0.5c0,0,0,0.1,0,0.1c0,0,0,0,0,0C58.1,117.3,58.1,117.1,58.1,117z M58.9,120.5c-0.2,0.1-0.4,0.2-0.6,0.1
		c0,0.1,0,0.4,0.1,0.5c0,0.1,0,0.1,0.1,0.2c0,0,0,0,0,0c0.1,0,0.3,0,0.4-0.1c0.1,0,0.1,0,0.1-0.1c0-0.1,0-0.2,0-0.3
		C58.9,120.8,58.9,120.7,58.9,120.5z M57.5,117c0-0.1,0-0.2,0-0.2c0-0.2,0-0.3,0-0.5c0,0,0-0.1-0.1-0.1c-0.2-0.1-0.3-0.1-0.5-0.1
		c-0.1,0-0.1,0-0.2,0c-0.1,0-0.1,0.1-0.1,0.1c0,0.1,0,0.2,0.1,0.3c0.1,0.1,0.2,0.1,0.3,0.1c0.1,0,0.2,0,0.3,0c0,0,0.1,0,0.1,0
		c0,0,0,0,0,0c0,0.1,0,0.1,0,0.2C57.5,116.9,57.5,117,57.5,117C57.5,117,57.5,117,57.5,117z M58.2,120.1c0,0.1,0,0.3,0,0.4
		c0,0.1,0,0.1,0.1,0.1c0.1,0,0.2,0,0.3,0c0.1,0,0.2,0,0.3-0.1c0,0,0.1-0.1,0.1-0.1c0,0,0,0,0,0c0-0.1,0-0.2-0.1-0.3c0,0,0,0,0,0
		c-0.1,0-0.1,0-0.2,0c-0.1,0-0.2,0-0.3,0C58.3,120,58.3,120,58.2,120.1z M57.8,116.4c0-0.2,0-0.3,0-0.5c0,0,0,0,0,0c0,0,0.1,0,0.1,0
		c0.1,0.1,0.3,0.1,0.4,0c0.1,0,0.1-0.1,0.2-0.1c0-0.1,0-0.1,0-0.2c0-0.1-0.1-0.1-0.2-0.2c-0.1,0-0.2,0-0.3,0c-0.1,0-0.2,0.1-0.3,0.1
		c-0.1,0-0.1,0.1-0.1,0.2c0,0.2,0,0.3,0,0.5C57.7,116.3,57.7,116.3,57.8,116.4C57.8,116.4,57.8,116.4,57.8,116.4z M56.7,121.3
		c-0.1,0-0.1-0.1-0.2-0.1c-0.1-0.1-0.1-0.2-0.1-0.3c-0.1-0.1-0.1-0.3-0.1-0.4c0-0.1-0.1-0.2-0.1-0.3c0-0.2,0-0.5,0.1-0.7
		c0-0.1,0.1-0.2,0.2-0.3c0.1-0.1,0.2-0.2,0.3-0.2c0,0,0.1,0,0.1-0.1c0,0,0,0,0,0c0,0-0.1,0-0.1,0c-0.2,0.1-0.4,0.2-0.4,0.4
		c-0.1,0.2-0.1,0.3-0.1,0.5c0,0.2,0,0.4,0.1,0.6c0,0.1,0.1,0.2,0.1,0.4c0,0.1,0.1,0.3,0.1,0.4c0,0.1,0.1,0.2,0.2,0.2
		c0.1,0,0.1,0.1,0.2,0.1C56.7,121.4,56.7,121.4,56.7,121.3z M57.1,117.8c0-0.1,0-0.1,0-0.2c0-0.1,0-0.3,0-0.4c0,0,0,0,0-0.1
		c-0.1-0.1-0.2-0.1-0.3-0.1c-0.1,0-0.2,0-0.3,0c-0.1,0-0.1,0.1-0.1,0.2c0,0.1,0,0.2,0.1,0.2c0,0,0.1,0,0.2,0c0.1,0,0.3,0,0.4-0.1
		c0.1,0,0.1,0,0.2-0.1C57,117.5,57.1,117.6,57.1,117.8C57.1,117.8,57.1,117.8,57.1,117.8z M57.7,116.4c0,0,0,0.1,0,0.1
		c0,0.1,0,0.1,0,0.2c0,0.2,0,0.3,0,0.5c0,0.2,0,0.4,0,0.6c0,0,0,0,0,0c0,0,0,0,0.1,0c0,0,0,0,0,0c0-0.2,0-0.4,0-0.6
		C57.8,116.9,57.8,116.7,57.7,116.4C57.8,116.4,57.8,116.4,57.7,116.4C57.8,116.4,57.8,116.4,57.7,116.4z M57.5,117.8
		c0-0.2,0-0.5,0-0.7c0,0,0,0,0,0c0,0,0,0,0,0c0,0,0,0.1,0,0.1C57.4,117.4,57.4,117.6,57.5,117.8C57.4,117.8,57.4,117.8,57.5,117.8
		C57.5,117.8,57.5,117.8,57.5,117.8z M58.4,121.3C58.4,121.3,58.4,121.3,58.4,121.3c0-0.1-0.1-0.2-0.1-0.3c0-0.1,0-0.2,0-0.4
		c0,0,0,0,0-0.1c0,0,0,0,0,0c0,0.1,0,0.2,0,0.3C58.2,121.1,58.2,121.2,58.4,121.3C58.3,121.4,58.3,121.4,58.4,121.3
		C58.4,121.3,58.4,121.3,58.4,121.3z M58,117.4c0,0.1,0,0.2,0,0.4c0,0,0,0,0.1,0C58,117.7,58,117.6,58,117.4
		C58,117.4,58,117.4,58,117.4z M57.1,117.8C57.1,117.8,57.1,117.8,57.1,117.8C57.1,117.9,57.1,117.9,57.1,117.8
		C57.1,117.9,57.1,117.9,57.1,117.8C57.1,117.9,57.1,117.8,57.1,117.8z"/>
	<path class="st18" d="M58.6,120.5C58.6,120.5,58.5,120.5,58.6,120.5C58.5,120.5,58.5,120.4,58.6,120.5c-0.1-0.1-0.1-0.1,0-0.1
		c0,0,0.1,0,0.1,0C58.7,120.4,58.7,120.4,58.6,120.5C58.7,120.5,58.6,120.5,58.6,120.5z M58.6,120.5
		C58.6,120.5,58.6,120.5,58.6,120.5C58.7,120.4,58.7,120.4,58.6,120.5C58.6,120.4,58.6,120.4,58.6,120.5
		C58.6,120.4,58.5,120.4,58.6,120.5C58.5,120.4,58.5,120.5,58.6,120.5C58.6,120.5,58.6,120.5,58.6,120.5z"/>
</g>
<g>
	<path class="st18" d="M74,121.6C74,121.5,74.1,121.5,74,121.6c0.1,0,0.1,0,0.1,0c0,0,0,0,0.1,0.1c0,0.1,0,0.1,0,0.2
		c0,0.1,0,0.3-0.1,0.4c0,0,0,0,0,0c-0.1,0.1-0.2,0.1-0.3,0.1c-0.1,0-0.3,0-0.4,0.1c-0.1,0-0.2,0-0.4,0c-0.1,0-0.2,0-0.3,0
		c-0.2,0-0.3,0-0.5,0c-0.1,0-0.1,0-0.2-0.1c0,0,0,0,0-0.1c0-0.1,0-0.2,0-0.2c0-0.1,0-0.2,0-0.3c0-0.1,0-0.1,0.1-0.1c0,0,0.1,0,0.1,0
		c0,0,0-0.1,0-0.1c0,0,0,0-0.1,0c-0.1,0-0.2-0.1-0.2-0.2c-0.1-0.1-0.1-0.2-0.2-0.3c0-0.1-0.1-0.2-0.1-0.4c0-0.1-0.1-0.3-0.1-0.4
		c0-0.2,0-0.4,0-0.6c0-0.2,0.1-0.4,0.2-0.6c0.1-0.1,0.2-0.2,0.3-0.2c0.1,0,0.1,0,0.2,0c0,0,0-0.1,0-0.2c0,0-0.1,0-0.1,0
		c-0.1,0-0.1,0-0.1-0.1c0-0.1,0-0.3,0-0.4c0-0.1,0-0.1,0-0.2c0,0,0,0,0-0.1c0.1,0,0.1-0.1,0.2-0.1c0,0,0.1,0,0.1,0c0,0,0,0,0,0
		c0-0.1,0-0.2,0-0.3c0,0,0-0.1,0-0.2c0,0-0.1,0-0.1,0c-0.1,0-0.3,0.1-0.4,0.1c-0.1,0-0.1,0-0.2-0.1c-0.1-0.1-0.2-0.3,0-0.4
		c0.1-0.1,0.2-0.1,0.2-0.1c0.2,0,0.4,0,0.5,0.1c0,0,0,0,0,0c0,0.2,0,0.4,0.1,0.7c0,0,0,0,0,0c0.1,0,0.2,0,0.3,0c0-0.4,0-0.8,0-1.2
		c-0.1,0-0.1,0-0.2,0c-0.2,0-0.3,0-0.5,0c-0.1,0-0.2-0.2-0.2-0.3c0-0.1,0.1-0.2,0.1-0.2c0.1,0,0.1,0,0.2,0c0.2,0,0.4,0,0.6,0.2
		c0,0,0,0,0,0c0,0.2,0,0.4,0,0.5c0,0.3,0,0.6,0,1c0,0,0,0,0,0.1c0,0,0.1,0,0.1,0c0-0.1,0-0.1,0-0.2c0-0.3,0-0.6,0-1
		c0-0.2,0-0.5,0-0.7c0-0.1,0-0.2,0-0.3c0-0.1,0-0.1,0.1-0.2c0.1-0.1,0.1-0.1,0.2-0.1c0.1,0,0.2,0,0.3,0c0.1,0,0.2,0.1,0.2,0.2
		c0.1,0.2,0,0.4-0.2,0.4c-0.2,0-0.3,0-0.5-0.1c0,0,0,0,0,0c0,0,0,0,0,0c0,0.6,0,1.2,0,1.9c0,0,0.1,0,0.1,0c0-0.1,0-0.1,0-0.2
		c0-0.2,0-0.5,0-0.7c0-0.1,0-0.2,0-0.3c0,0,0,0,0,0c0.1-0.1,0.2-0.1,0.3-0.1c0.1,0,0.3,0,0.4,0c0.1,0,0.1,0.1,0.2,0.1
		c0,0.1,0,0.2,0,0.3c-0.1,0.1-0.2,0.2-0.3,0.2c-0.2,0-0.3,0-0.5,0c0,0-0.1,0-0.1,0c0,0.1,0,0.2,0,0.2c0,0.2,0,0.3,0,0.5c0,0,0,0,0,0
		c0.1,0,0.1,0,0.2,0c0.1,0,0.1,0,0.2,0c0.1,0,0.1,0.1,0.1,0.1c0,0.1,0,0.2,0,0.3c0,0.1,0,0.1,0,0.2c0,0-0.1,0.1-0.1,0.1
		c0,0-0.1,0-0.1,0c0,0.5,0,1,0,1.4c0.1,0,0.1,0,0.2,0c0.1,0,0.1,0,0.2,0c0,0,0,0,0.1,0c0,0,0,0,0,0c0,0.1,0,0.2,0.1,0.2
		c0,0.1,0,0.1,0,0.2c0,0,0,0,0,0.1c0,0,0,0,0,0c0,0.2,0,0.4,0,0.5c0,0,0,0.1,0,0.1c0,0.1,0,0.1-0.1,0.1c-0.1,0-0.2,0.1-0.3,0.1
		c-0.1,0-0.1,0-0.2,0c0,0,0,0,0,0C74,121.5,74,121.5,74,121.6z M73.9,118.5C73.9,118.5,73.9,118.5,73.9,118.5c-0.2,0-0.3,0-0.4,0
		c-0.1,0-0.3,0-0.4,0c-0.2,0-0.3,0-0.5,0.1c-0.1,0-0.2,0-0.2,0c0,0,0,0,0,0c0,0.2,0,0.4,0,0.7c0,0.4,0,0.8,0,1.2c0,0.3,0,0.6,0,0.9
		c0,0.1,0,0.1,0,0.2c0.5,0,1.1,0,1.6-0.1c0-0.1,0-0.1,0-0.2c-0.1,0-0.1,0-0.1-0.1c0,0,0,0,0,0c0-0.1,0-0.2,0-0.4c0-0.2,0-0.4,0-0.6
		c0-0.1,0-0.2,0-0.2c0,0,0-0.1,0-0.1c0,0,0.1,0,0.1,0c0,0,0,0,0,0c0-0.2,0-0.3,0-0.5C73.9,119.1,73.9,118.8,73.9,118.5
		C73.9,118.5,73.9,118.5,73.9,118.5z M73.1,122.3C73.1,122.3,73.1,122.3,73.1,122.3c0.2,0,0.4,0,0.6,0c0.1,0,0.2,0,0.3-0.1
		c0.1,0,0.1-0.1,0.1-0.1c0-0.1,0-0.2,0-0.2c0-0.1,0-0.2,0-0.2c0,0,0,0,0,0c-0.1,0-0.2,0-0.3,0c-0.2,0-0.4,0-0.6,0
		c-0.3,0-0.6,0-0.9,0c0,0-0.1,0-0.1,0c0,0,0,0.1,0,0.1c0,0,0,0,0,0c0,0.1,0,0.2,0,0.3c0,0.1,0,0.1,0.1,0.2c0,0,0,0,0,0
		c0.1,0,0.2,0,0.3,0C72.7,122.3,72.9,122.3,73.1,122.3z M72.3,118.6c0,0,0.1,0,0.1,0c0.2,0,0.3,0,0.5-0.1c0.2,0,0.4-0.1,0.6-0.1
		c0.2,0,0.4,0,0.6,0c0.1,0,0.1,0,0.1-0.1c0-0.1,0-0.2,0-0.3c0,0,0-0.1,0-0.1c0,0,0-0.1-0.1-0.1c0,0-0.1,0-0.1,0c-0.2,0-0.3,0-0.5,0
		c-0.1,0-0.3,0-0.4,0c-0.1,0-0.2,0-0.4,0.1c-0.1,0-0.2,0-0.3,0.1c-0.1,0-0.1,0.1-0.1,0.1c0,0.1,0,0.1,0,0.2
		C72.2,118.4,72.2,118.5,72.3,118.6z M72.3,121.3c0-0.8,0-1.5,0.1-2.3c-0.1,0-0.1,0-0.2,0.1c-0.2,0.1-0.3,0.3-0.3,0.5
		c0,0.1,0,0.2-0.1,0.4c0,0.1,0,0.3,0,0.4c0,0.2,0.1,0.4,0.2,0.6c0,0.1,0.1,0.2,0.2,0.3C72.2,121.2,72.2,121.2,72.3,121.3z M73.6,117
		c0.2,0.1,0.4,0.1,0.6,0.1c0.1,0,0.2-0.1,0.2-0.1c0,0,0.1-0.1,0.1-0.1c0-0.1,0-0.1-0.1-0.2c-0.1-0.1-0.2-0.1-0.2-0.1
		c-0.2,0-0.3,0-0.5,0.1c0,0,0,0,0,0.1c0,0,0,0.1,0,0.1c0,0.2,0,0.4,0,0.5c0,0,0,0.1,0,0.1c0,0,0,0,0,0
		C73.6,117.3,73.6,117.1,73.6,117z M74.5,120.5c-0.2,0.1-0.4,0.2-0.6,0.1c0,0.1,0,0.4,0.1,0.5c0,0.1,0,0.1,0.1,0.2c0,0,0,0,0,0
		c0.1,0,0.3,0,0.4-0.1c0.1,0,0.1,0,0.1-0.1c0-0.1,0-0.2,0-0.3C74.5,120.8,74.5,120.7,74.5,120.5z M73.1,117c0-0.1,0-0.2,0-0.2
		c0-0.2,0-0.3,0-0.5c0,0,0-0.1-0.1-0.1c-0.2-0.1-0.3-0.1-0.5-0.1c-0.1,0-0.1,0-0.2,0c-0.1,0-0.1,0.1-0.1,0.1c0,0.1,0,0.2,0.1,0.3
		c0.1,0.1,0.2,0.1,0.3,0.1c0.1,0,0.2,0,0.3,0c0,0,0.1,0,0.1,0c0,0,0,0,0,0c0,0.1,0,0.1,0,0.2C73,116.9,73,117,73.1,117
		C73,117,73.1,117,73.1,117z M73.8,120.1c0,0.1,0,0.3,0,0.4c0,0.1,0,0.1,0.1,0.1c0.1,0,0.2,0,0.3,0c0.1,0,0.2,0,0.3-0.1
		c0,0,0.1-0.1,0.1-0.1c0,0,0,0,0,0c0-0.1,0-0.2-0.1-0.3c0,0,0,0,0,0c-0.1,0-0.1,0-0.2,0c-0.1,0-0.2,0-0.3,0
		C73.9,120,73.8,120,73.8,120.1z M73.4,116.4c0-0.2,0-0.3,0-0.5c0,0,0,0,0,0c0,0,0.1,0,0.1,0c0.1,0.1,0.3,0.1,0.4,0
		c0.1,0,0.1-0.1,0.2-0.1c0-0.1,0-0.1,0-0.2c0-0.1-0.1-0.1-0.2-0.2c-0.1,0-0.2,0-0.3,0c-0.1,0-0.2,0.1-0.3,0.1
		c-0.1,0-0.1,0.1-0.1,0.2c0,0.2,0,0.3,0,0.5C73.3,116.3,73.3,116.3,73.4,116.4C73.3,116.4,73.3,116.4,73.4,116.4z M72.3,121.3
		c-0.1,0-0.1-0.1-0.2-0.1c-0.1-0.1-0.1-0.2-0.1-0.3c-0.1-0.1-0.1-0.3-0.1-0.4c0-0.1-0.1-0.2-0.1-0.3c0-0.2,0-0.5,0.1-0.7
		c0-0.1,0.1-0.2,0.2-0.3c0.1-0.1,0.2-0.2,0.3-0.2c0,0,0.1,0,0.1-0.1c0,0,0,0,0,0c0,0-0.1,0-0.1,0c-0.2,0.1-0.4,0.2-0.4,0.4
		c-0.1,0.2-0.1,0.3-0.1,0.5c0,0.2,0,0.4,0.1,0.6c0,0.1,0.1,0.2,0.1,0.4c0,0.1,0.1,0.3,0.1,0.4c0,0.1,0.1,0.2,0.2,0.2
		c0.1,0,0.1,0.1,0.2,0.1C72.3,121.4,72.3,121.4,72.3,121.3z M72.7,117.8c0-0.1,0-0.1,0-0.2c0-0.1,0-0.3,0-0.4c0,0,0,0,0-0.1
		c-0.1-0.1-0.2-0.1-0.3-0.1c-0.1,0-0.2,0-0.3,0c-0.1,0-0.1,0.1-0.1,0.2c0,0.1,0,0.2,0.1,0.2c0,0,0.1,0,0.2,0c0.1,0,0.3,0,0.4-0.1
		c0.1,0,0.1,0,0.2-0.1C72.6,117.5,72.6,117.6,72.7,117.8C72.6,117.8,72.7,117.8,72.7,117.8z M73.3,116.4c0,0,0,0.1,0,0.1
		c0,0.1,0,0.1,0,0.2c0,0.2,0,0.3,0,0.5c0,0.2,0,0.4,0,0.6c0,0,0,0,0,0c0,0,0,0,0.1,0c0,0,0,0,0,0c0-0.2,0-0.4,0-0.6
		C73.4,116.9,73.4,116.7,73.3,116.4C73.4,116.4,73.4,116.4,73.3,116.4C73.3,116.4,73.3,116.4,73.3,116.4z M73.1,117.8
		c0-0.2,0-0.5,0-0.7c0,0,0,0,0,0c0,0,0,0,0,0c0,0,0,0.1,0,0.1C73,117.4,73,117.6,73.1,117.8C73,117.8,73,117.8,73.1,117.8
		C73,117.8,73.1,117.8,73.1,117.8z M73.9,121.3C73.9,121.3,73.9,121.3,73.9,121.3c0-0.1-0.1-0.2-0.1-0.3c0-0.1,0-0.2,0-0.4
		c0,0,0,0,0-0.1c0,0,0,0,0,0c0,0.1,0,0.2,0,0.3C73.8,121.1,73.8,121.2,73.9,121.3C73.9,121.4,73.9,121.4,73.9,121.3
		C73.9,121.3,73.9,121.3,73.9,121.3z M73.6,117.4c0,0.1,0,0.2,0,0.4c0,0,0,0,0.1,0C73.6,117.7,73.6,117.6,73.6,117.4
		C73.6,117.4,73.6,117.4,73.6,117.4z M72.7,117.8C72.7,117.8,72.6,117.8,72.7,117.8C72.6,117.9,72.6,117.9,72.7,117.8
		C72.7,117.9,72.7,117.9,72.7,117.8C72.7,117.9,72.7,117.8,72.7,117.8z"/>
	<path class="st18" d="M74.2,120.5C74.1,120.5,74.1,120.5,74.2,120.5C74.1,120.5,74.1,120.4,74.2,120.5c-0.1-0.1-0.1-0.1,0-0.1
		c0,0,0.1,0,0.1,0C74.2,120.4,74.3,120.4,74.2,120.5C74.2,120.5,74.2,120.5,74.2,120.5z M74.2,120.5
		C74.2,120.5,74.2,120.5,74.2,120.5C74.2,120.4,74.2,120.4,74.2,120.5C74.2,120.4,74.2,120.4,74.2,120.5
		C74.1,120.4,74.1,120.4,74.2,120.5C74.1,120.4,74.1,120.5,74.2,120.5C74.1,120.5,74.1,120.5,74.2,120.5z"/>
</g>
<g>
	<path class="st17" d="M110.1,109.7c-1,0-1.8-0.8-1.8-1.8c0-1,0.8-1.8,1.8-1.8c1,0,1.8,0.8,1.8,1.8
		C111.9,108.9,111.1,109.7,110.1,109.7z M110.1,106.5c-0.7,0-1.4,0.6-1.4,1.4c0,0.7,0.6,1.4,1.4,1.4c0.7,0,1.4-0.6,1.4-1.4
		C111.5,107.2,110.9,106.5,110.1,106.5z"/>
	<path class="st17" d="M115.5,109.7c-1,0-1.8-0.8-1.8-1.8c0-1,0.8-1.8,1.8-1.8c1,0,1.8,0.8,1.8,1.8
		C117.2,108.9,116.4,109.7,115.5,109.7z M115.5,106.5c-0.7,0-1.4,0.6-1.4,1.4c0,0.7,0.6,1.4,1.4,1.4c0.7,0,1.4-0.6,1.4-1.4
		C116.8,107.2,116.2,106.5,115.5,106.5z"/>
	<path class="st17" d="M115.6,107.9c0,0.1,0,0.1-0.1,0.1c-0.1,0-0.2,0-0.2-0.1l-1.1-2.1l-1.1,1.7l-0.2-0.2l1.1-1.7h-2.2l0.8,1.6
		l-0.3,0.1l-0.8-1.6l-1.2,1.8l-0.2-0.2l1.3-1.9l-0.4-0.7l0.3-0.1l0.4,0.7h2.3l-0.3-0.6c0-0.1,0-0.1,0-0.2c0,0,0.1,0,0.1,0h0.9l0.1,0
		c0.2,0,0.5,0.2,0.5,0.4c0,0.3-0.2,0.5-0.5,0.5h-0.2c0,0-0.1,0-0.1,0c0,0,0-0.1,0-0.1c0-0.1,0.1-0.1,0.1-0.1h0.2
		c0.1,0,0.2-0.1,0.2-0.2c0-0.1-0.1-0.2-0.2-0.2l-0.1,0h-0.7L115.6,107.9C115.6,107.9,115.6,107.9,115.6,107.9z"/>
	<path class="st17" d="M111.8,105h-1c-0.1,0-0.1-0.1-0.1-0.1c0-0.1,0.1-0.1,0.1-0.1h1c0.1,0,0.1,0.1,0.1,0.1
		C112,104.9,111.9,105,111.8,105z"/>
	<path class="st17" d="M110.1,107.7c-0.1,0-0.1-0.1-0.1-0.1c0-0.1,0.1-0.1,0.1-0.2l2.7-0.2c0.1,0,0.1,0.1,0.2,0.1
		c0,0.1-0.1,0.1-0.1,0.2L110.1,107.7C110.1,107.7,110.1,107.7,110.1,107.7z"/>
	<path class="st17" d="M112.8,108.6C112.8,108.6,112.8,108.6,112.8,108.6l-2.7-0.2c-0.1,0-0.1-0.1-0.1-0.2c0-0.1,0.1-0.1,0.2-0.1
		l2.7,0.2c0.1,0,0.1,0.1,0.1,0.2C112.9,108.5,112.9,108.6,112.8,108.6z"/>
	<path class="st17" d="M115.4,105.1c0,0.3-0.2,0.5-0.5,0.5h-0.2c0,0-0.1,0-0.1,0c0,0,0-0.1,0-0.1c0-0.1,0.1-0.1,0.1-0.1h0.2
		c0.1,0,0.2-0.1,0.2-0.2c0-0.1-0.1-0.2-0.2-0.2h-0.1v-0.3h0.1C115.2,104.7,115.4,104.9,115.4,105.1z"/>
	<path class="st17" d="M112.8,108.6c-0.4,0-0.7-0.3-0.7-0.7c0-0.4,0.3-0.7,0.7-0.7c0.4,0,0.7,0.3,0.7,0.7
		C113.4,108.3,113.1,108.6,112.8,108.6z M112.8,107.5c-0.2,0-0.4,0.2-0.4,0.4c0,0.2,0.2,0.4,0.4,0.4c0.2,0,0.4-0.2,0.4-0.4
		C113.2,107.7,113,107.5,112.8,107.5z"/>
	<path class="st17" d="M110.1,108.4c-0.3,0-0.5-0.2-0.5-0.5c0-0.3,0.2-0.5,0.5-0.5c0.3,0,0.5,0.2,0.5,0.5
		C110.6,108.2,110.4,108.4,110.1,108.4z M110.1,107.7c-0.1,0-0.2,0.1-0.2,0.2c0,0.1,0.1,0.2,0.2,0.2c0.1,0,0.2-0.1,0.2-0.2
		C110.3,107.8,110.2,107.7,110.1,107.7z"/>
	<path class="st17" d="M112.5,108.8C112.5,108.8,112.5,108.8,112.5,108.8c-0.1,0-0.2-0.1-0.1-0.2l0.2-0.8c0-0.1,0.1-0.1,0.2-0.1
		c0.1,0,0.1,0.1,0.1,0.2l-0.2,0.8C112.7,108.8,112.6,108.8,112.5,108.8z"/>
</g>
<g>
	<path class="st17" d="M126.1,109.7c-1,0-1.8-0.8-1.8-1.8c0-1,0.8-1.8,1.8-1.8c1,0,1.8,0.8,1.8,1.8
		C127.8,108.9,127,109.7,126.1,109.7z M126.1,106.5c-0.7,0-1.4,0.6-1.4,1.4c0,0.7,0.6,1.4,1.4,1.4c0.7,0,1.4-0.6,1.4-1.4
		C127.4,107.2,126.8,106.5,126.1,106.5z"/>
	<path class="st17" d="M131.4,109.7c-1,0-1.8-0.8-1.8-1.8c0-1,0.8-1.8,1.8-1.8s1.8,0.8,1.8,1.8C133.2,108.9,132.4,109.7,131.4,109.7
		z M131.4,106.5c-0.7,0-1.4,0.6-1.4,1.4c0,0.7,0.6,1.4,1.4,1.4c0.7,0,1.4-0.6,1.4-1.4C132.8,107.2,132.2,106.5,131.4,106.5z"/>
	<path class="st17" d="M131.6,107.9c0,0.1,0,0.1-0.1,0.1c-0.1,0-0.2,0-0.2-0.1l-1.1-2.1l-1.1,1.7l-0.2-0.2l1.1-1.7h-2.2l0.8,1.6
		l-0.3,0.1l-0.8-1.6l-1.2,1.8l-0.2-0.2l1.3-1.9l-0.4-0.7l0.3-0.1l0.4,0.7h2.3l-0.3-0.6c0-0.1,0-0.1,0-0.2c0,0,0.1,0,0.1,0h0.9l0.1,0
		c0.2,0,0.5,0.2,0.5,0.4c0,0.3-0.2,0.5-0.5,0.5h-0.2c0,0-0.1,0-0.1,0c0,0,0-0.1,0-0.1c0-0.1,0.1-0.1,0.1-0.1h0.2
		c0.1,0,0.2-0.1,0.2-0.2c0-0.1-0.1-0.2-0.2-0.2l-0.1,0h-0.7L131.6,107.9C131.5,107.9,131.6,107.9,131.6,107.9z"/>
	<path class="st17" d="M127.8,105h-1c-0.1,0-0.1-0.1-0.1-0.1c0-0.1,0.1-0.1,0.1-0.1h1c0.1,0,0.1,0.1,0.1,0.1
		C127.9,104.9,127.9,105,127.8,105z"/>
	<path class="st17" d="M126.1,107.7c-0.1,0-0.1-0.1-0.1-0.1c0-0.1,0.1-0.1,0.1-0.2l2.7-0.2c0.1,0,0.1,0.1,0.2,0.1
		c0,0.1-0.1,0.1-0.1,0.2L126.1,107.7C126.1,107.7,126.1,107.7,126.1,107.7z"/>
	<path class="st17" d="M128.7,108.6C128.7,108.6,128.7,108.6,128.7,108.6l-2.7-0.2c-0.1,0-0.1-0.1-0.1-0.2c0-0.1,0.1-0.1,0.2-0.1
		l2.7,0.2c0.1,0,0.1,0.1,0.1,0.2C128.9,108.5,128.8,108.6,128.7,108.6z"/>
	<path class="st17" d="M131.3,105.1c0,0.3-0.2,0.5-0.5,0.5h-0.2c0,0-0.1,0-0.1,0c0,0,0-0.1,0-0.1c0-0.1,0.1-0.1,0.1-0.1h0.2
		c0.1,0,0.2-0.1,0.2-0.2c0-0.1-0.1-0.2-0.2-0.2h-0.1v-0.3h0.1C131.1,104.7,131.3,104.9,131.3,105.1z"/>
	<path class="st17" d="M128.7,108.6c-0.4,0-0.7-0.3-0.7-0.7c0-0.4,0.3-0.7,0.7-0.7c0.4,0,0.7,0.3,0.7,0.7
		C129.4,108.3,129.1,108.6,128.7,108.6z M128.7,107.5c-0.2,0-0.4,0.2-0.4,0.4c0,0.2,0.2,0.4,0.4,0.4c0.2,0,0.4-0.2,0.4-0.4
		C129.1,107.7,128.9,107.5,128.7,107.5z"/>
	<path class="st17" d="M126.1,108.4c-0.3,0-0.5-0.2-0.5-0.5c0-0.3,0.2-0.5,0.5-0.5c0.3,0,0.5,0.2,0.5,0.5
		C126.6,108.2,126.3,108.4,126.1,108.4z M126.1,107.7c-0.1,0-0.2,0.1-0.2,0.2c0,0.1,0.1,0.2,0.2,0.2c0.1,0,0.2-0.1,0.2-0.2
		C126.3,107.8,126.2,107.7,126.1,107.7z"/>
	<path class="st17" d="M128.5,108.8C128.5,108.8,128.5,108.8,128.5,108.8c-0.1,0-0.2-0.1-0.1-0.2l0.2-0.8c0-0.1,0.1-0.1,0.2-0.1
		c0.1,0,0.1,0.1,0.1,0.2l-0.2,0.8C128.6,108.8,128.5,108.8,128.5,108.8z"/>
</g>
<g>
	<path class="st17" d="M58.4,93.2h-0.7v-1.4c0-0.2-0.2-0.3-0.3-0.3h-0.7c-0.2,0-0.3,0.2-0.3,0.3v1.4h-0.7c-0.2,0-0.3,0.2-0.3,0.3
		v4.1c0,0.1,0.1,0.2,0.2,0.3c0,0.1-0.1,0.1-0.1,0.2c0,0.2,0.2,0.4,0.4,0.4c0.2,0,0.4-0.2,0.4-0.4c0-0.1,0-0.1,0-0.2h1.7
		c0,0.1,0,0.1,0,0.2c0,0.2,0.2,0.4,0.4,0.4c0.2,0,0.4-0.2,0.4-0.4c0-0.1,0-0.2-0.1-0.2c0.1-0.1,0.2-0.2,0.2-0.3v-4.1
		C58.7,93.3,58.6,93.2,58.4,93.2z M56.6,91.8c0-0.1,0.1-0.1,0.1-0.1h0.7c0.1,0,0.1,0.1,0.1,0.1v0.1h-0.9V91.8z M56.6,92.2h0.9v1
		h-0.9V92.2z M55.6,93.5c0-0.1,0.1-0.1,0.1-0.1h0.1v0.3h-0.2V93.5z M55.6,97.6v-0.2l0,0h0.2v0.3h-0.1C55.6,97.7,55.6,97.6,55.6,97.6
		z M55.9,98.3c-0.1,0-0.2-0.1-0.2-0.2c0-0.1,0.1-0.2,0.2-0.2c0.1,0,0.2,0.1,0.2,0.2C56,98.2,56,98.3,55.9,98.3z M58.2,98.3
		c-0.1,0-0.2-0.1-0.2-0.2c0-0.1,0.1-0.2,0.2-0.2c0.1,0,0.2,0.1,0.2,0.2C58.4,98.2,58.3,98.3,58.2,98.3z M58.5,97.6
		c0,0.1-0.1,0.1-0.1,0.1h-0.1v-0.3h0.2V97.6z M58.5,97.1h-0.2c-0.1,0-0.2,0.1-0.2,0.2v0.3h-2v-0.3c0-0.1-0.1-0.2-0.2-0.2h-0.2V94
		h0.2c0.1,0,0.2-0.1,0.2-0.2v-0.3h0.3h1.4h0.3v0.3c0,0.1,0.1,0.2,0.2,0.2h0.2V97.1z M58.5,93.7h-0.2v-0.3h0.1c0.1,0,0.1,0.1,0.1,0.1
		V93.7z"/>
	<rect x="55.9" y="94.2" class="st17" width="0.2" height="2.7"/>
	<rect x="56.5" y="94.2" class="st17" width="0.2" height="2.7"/>
	<rect x="57.9" y="94.2" class="st17" width="0.2" height="2.7"/>
	<rect x="57.4" y="94.2" class="st17" width="0.2" height="2.7"/>
</g>
<g>
	<path class="st17" d="M74.4,93.2h-0.7v-1.4c0-0.2-0.2-0.3-0.3-0.3h-0.7c-0.2,0-0.3,0.2-0.3,0.3v1.4h-0.7c-0.2,0-0.3,0.2-0.3,0.3
		v4.1c0,0.1,0.1,0.2,0.2,0.3c0,0.1-0.1,0.1-0.1,0.2c0,0.2,0.2,0.4,0.4,0.4c0.2,0,0.4-0.2,0.4-0.4c0-0.1,0-0.1,0-0.2h1.7
		c0,0.1,0,0.1,0,0.2c0,0.2,0.2,0.4,0.4,0.4c0.2,0,0.4-0.2,0.4-0.4c0-0.1,0-0.2-0.1-0.2c0.1-0.1,0.2-0.2,0.2-0.3v-4.1
		C74.8,93.3,74.6,93.2,74.4,93.2z M72.6,91.8c0-0.1,0.1-0.1,0.1-0.1h0.7c0.1,0,0.1,0.1,0.1,0.1v0.1h-0.9V91.8z M72.6,92.2h0.9v1
		h-0.9V92.2z M71.6,93.5c0-0.1,0.1-0.1,0.1-0.1h0.1v0.3h-0.2V93.5z M71.6,97.6v-0.2l0,0h0.2v0.3h-0.1C71.6,97.7,71.6,97.6,71.6,97.6
		z M71.9,98.3c-0.1,0-0.2-0.1-0.2-0.2c0-0.1,0.1-0.2,0.2-0.2c0.1,0,0.2,0.1,0.2,0.2C72,98.2,72,98.3,71.9,98.3z M74.2,98.3
		c-0.1,0-0.2-0.1-0.2-0.2c0-0.1,0.1-0.2,0.2-0.2c0.1,0,0.2,0.1,0.2,0.2C74.4,98.2,74.3,98.3,74.2,98.3z M74.5,97.6
		c0,0.1-0.1,0.1-0.1,0.1h-0.1v-0.3h0.2V97.6z M74.5,97.1h-0.2c-0.1,0-0.2,0.1-0.2,0.2v0.3h-2v-0.3c0-0.1-0.1-0.2-0.2-0.2h-0.2V94
		h0.2c0.1,0,0.2-0.1,0.2-0.2v-0.3h0.3h1.4h0.3v0.3c0,0.1,0.1,0.2,0.2,0.2h0.2V97.1z M74.5,93.7h-0.2v-0.3h0.1c0.1,0,0.1,0.1,0.1,0.1
		V93.7z"/>
	<rect x="71.9" y="94.2" class="st17" width="0.2" height="2.7"/>
	<rect x="72.5" y="94.2" class="st17" width="0.2" height="2.7"/>
	<rect x="74" y="94.2" class="st17" width="0.2" height="2.7"/>
	<rect x="73.4" y="94.2" class="st17" width="0.2" height="2.7"/>
</g>
<g>
	<g>
		<g>
			<path class="st17" d="M117.5,115.4h-8c-0.2,0-0.4,0.2-0.4,0.4v0.9c0,0.2,0.2,0.4,0.4,0.4h0.1v5c0,0.2,0.2,0.4,0.4,0.4h7.1
				c0.2,0,0.4-0.2,0.4-0.4v-5h0.1c0.2,0,0.4-0.2,0.4-0.4v-0.9C117.9,115.6,117.8,115.4,117.5,115.4z M117.1,122H110v-5h7.1V122
				L117.1,122z M117.5,116.7h-0.3h-7.5h-0.3v-0.9h8V116.7L117.5,116.7z"/>
		</g>
	</g>
	<g>
		<g>
			<path class="st17" d="M112.4,117.6h-1.7c-0.1,0-0.2,0.1-0.2,0.2c0,0.1,0.1,0.2,0.2,0.2h1.7c0.1,0,0.2-0.1,0.2-0.2
				C112.6,117.7,112.5,117.6,112.4,117.6z"/>
		</g>
	</g>
	<g>
		<g>
			<path class="st17" d="M111.6,118.4h-0.8c-0.1,0-0.2,0.1-0.2,0.2c0,0.1,0.1,0.2,0.2,0.2h0.8c0.1,0,0.2-0.1,0.2-0.2
				C111.7,118.5,111.7,118.4,111.6,118.4z"/>
		</g>
	</g>
</g>
<g>
	<g>
		<g>
			<path class="st17" d="M132.9,115.4h-8c-0.2,0-0.4,0.2-0.4,0.4v0.9c0,0.2,0.2,0.4,0.4,0.4h0.1v5c0,0.2,0.2,0.4,0.4,0.4h7.1
				c0.2,0,0.4-0.2,0.4-0.4v-5h0.1c0.2,0,0.4-0.2,0.4-0.4v-0.9C133.3,115.6,133.1,115.4,132.9,115.4z M132.4,122h-7.1v-5h7.1V122
				C132.4,122,132.4,122,132.4,122z M132.9,116.7h-0.3h-7.5h-0.3v-0.9h8V116.7L132.9,116.7z"/>
		</g>
	</g>
	<g>
		<g>
			<path class="st17" d="M127.8,117.6h-1.7c-0.1,0-0.2,0.1-0.2,0.2c0,0.1,0.1,0.2,0.2,0.2h1.7c0.1,0,0.2-0.1,0.2-0.2
				C127.9,117.7,127.8,117.6,127.8,117.6z"/>
		</g>
	</g>
	<g>
		<g>
			<path class="st17" d="M126.9,118.4h-0.8c-0.1,0-0.2,0.1-0.2,0.2c0,0.1,0.1,0.2,0.2,0.2h0.8c0.1,0,0.2-0.1,0.2-0.2
				C127.1,118.5,127,118.4,126.9,118.4z"/>
		</g>
	</g>
</g>
</svg>
