<?xml version="1.0" encoding="utf-8"?>
<!-- Generator: Adobe Illustrator 19.0.0, SVG Export Plug-In . SVG Version: 6.00 Build 0)  -->
<svg version="1.1" id="Layer_1" xmlns="http://www.w3.org/2000/svg" xmlns:xlink="http://www.w3.org/1999/xlink" x="0px" y="0px"
	 viewBox="0 0 635 541.3" style="enable-background:new 0 0 635 541.3;" xml:space="preserve">
<style type="text/css">
	.st0{fill:#FFFFFF;}
</style>
<g>
	<g>
		<g>
			<circle class="st0" cx="110" cy="45.5" r="44.2"/>
		</g>
	</g>
	<g>
		<g>
			<path class="st0" d="M210.2,212.3L138.4,193l-23.1-44.2l25.7,25.8l10.4,2.8l2.7-33.3c1.5-17.8-11.8-33.4-29.6-34.9L67,104.6
				c-17.8-1.5-33.4,11.8-34.9,29.6L18.5,299.6l16.9,88.6l-33,120.5c-3.8,13.7,4.3,27.9,18,31.7c13.7,3.8,27.9-4.3,31.7-18
				l34.5-125.8c1-3.5,1.2-7.1,0.6-10.7l-12.5-81.6l10,0.8l30.8,83.9L89.8,510.2c-3,13.9,6,27.6,19.9,30.6c13.9,3,27.6-6,30.6-19.9
				l27.2-128.6c1-4.7,0.7-9.7-1-14.2l-25.8-70.4l4.1-49.4c-40.9-11-29.8-8-40-10.8c-8.7-2.3-14.8-9.4-16.3-17.7l-11.2-61l27.5,52.5
				c2.8,5.3,7.7,9.2,13.5,10.8l80.9,21.8c11.5,3.1,23.3-3.7,26.3-15.2C228.5,227.2,221.7,215.4,210.2,212.3z"/>
		</g>
	</g>
</g>
<g>
	<g>
		<g>
			<path class="st0" d="M633.4,358.9L614,141.8c-1.2-13.2-11.5-23.7-24.6-25.1c-18.8-2-30.7-3.3-47.6-5.1
				c-13.1-1.4-25.4,6.7-29.4,19.3l-14.2,45.8l8.4,0l38.3-33.7l-35.9,53.6l-68.8-0.2c0,0,0,0-0.1,0c-11,0-19.9,8.9-19.9,19.8
				c0,11,8.9,19.9,19.8,20l79.5,0.2c0,0,0,0,0.1,0c6.6,0,12.8-3.3,16.5-8.8l41.8-62.5l-25.3,73.6c-3.7,10.9-13.9,17.7-24.8,17.7
				c-10.8,0-1.4,0-54.4-0.2l-25.8,82.9c-2.2,7.1,2.6,14.4,10,15.2c7.7,0.8,18,1.9,29.8,3.2v158.4c0,14,11.4,25.4,25.4,25.4
				c14,0,25.4-11.4,25.4-25.4v-153c3.7,0.4,7.3,0.8,11,1.2v151.8c0,14,11.4,25.4,25.4,25.4s25.4-11.4,25.4-25.4V369.5
				c7.9,0.8,14.8,1.6,20.4,2.2C627.8,372.5,634.1,366.3,633.4,358.9z"/>
		</g>
	</g>
	<g>
		<g>
			<circle class="st0" cx="571.9" cy="54.2" r="43.9"/>
		</g>
	</g>
</g>
<path class="st0" d="M406.5,100.1h-55.9v65.2l-27.9-18.6l-27.9,18.6v-65.2h-55.9c-10.3,0-18.6,8.3-18.6,18.6V288
	c0,10.3,8.3,18.6,18.6,18.6h167.6c10.3,0,18.6-8.3,18.6-18.6V118.8C425.1,108.5,416.8,100.1,406.5,100.1z M397.2,288h-18.6
	c-5.1,0-9.3-4.2-9.3-9.3c0-5.1,4.2-9.3,9.3-9.3h18.6c5.1,0,9.3,4.2,9.3,9.3C406.5,283.9,402.3,288,397.2,288z M397.2,260.1H360
	c-5.1,0-9.3-4.2-9.3-9.3c0-5.1,4.2-9.3,9.3-9.3h37.2c5.1,0,9.3,4.2,9.3,9.3C406.5,256,402.3,260.1,397.2,260.1z"/>
</svg>
