<?xml version="1.0" encoding="utf-8"?>
<!-- Generator: Adobe Illustrator 19.0.0, SVG Export Plug-In . SVG Version: 6.00 Build 0)  -->
<svg version="1.1" id="Layer_1" xmlns="http://www.w3.org/2000/svg" xmlns:xlink="http://www.w3.org/1999/xlink" x="0px" y="0px"
	 viewBox="0 0 227.4 289.6" style="enable-background:new 0 0 227.4 289.6;" xml:space="preserve">
<style type="text/css">
	.st0{fill-rule:evenodd;clip-rule:evenodd;fill:#215D78;}
	.st1{fill-rule:evenodd;clip-rule:evenodd;fill:#3B87C8;}
	.st2{fill-rule:evenodd;clip-rule:evenodd;fill:#3279AA;}
</style>
<path class="st0" d="M216,252.6c0.6,0.7,1.3,1.3,1.9,2c-0.1,3.3-0.4,6.6-0.2,9.9c0.2,2.8-0.6,5.1-2.5,7.1c-0.4,1-0.7,2-1.1,3
	c-4.1-1.3-8.2-0.9-12.2,0.3c-0.8-1.1-1.2-2.5-3.2-2.4c-11,0.3-22,0.8-32.8,3.9c-1.3,0.4-2.6,0.6-3,2.2c-4.4,2.2-9.9,0.2-14.1,3.4
	c-0.6-3-2.5-3.8-5.4-4.1c-4.2-0.5-9-0.3-11.4-5.2c-3.4-5.7-3.1-12.5-5.8-18.4c0.1-4.2,2.5-3,4.6-1.9c3.2,1.6,5.8,4.6,9.9,3.9
	c4.4,2.8,9.3,1.6,14,1.8c2.3,1.1,4.8,0.8,7.2,0.8c16.5,0.1,32.6-2.7,48.7-5.8C212.4,252.7,214.1,251.7,216,252.6z"/>
<path class="st1" d="M99.7,269.9c0-3.1,0-6.2,0-9.9c-5.2,3.6-9.7,7.3-15.7,8.7c-8.6,2-16.9,0.3-25-2.1c-13.1-3.9-25.5-9.4-37-17
	c-0.3-1,0.3-1.4,1.1-1.6c4.8,0.7,8.5,3.7,12.5,5.9c4.8,1.4,9.2,3.9,13.8,5.7c5.7,2.2,5.7,2.1,5.9-3.8c0.6-25.8-1.2-51.5-1-77.3
	c0-5.1-0.4-10.3,0.4-15.4c0.6-1.6,0.7-3.5,2.3-4.7c2.1,0.5,2.1,2.4,2.3,4c0.2,1.3,0.2,2.7,0.1,4c-0.6,29.5,1.7,58.9,1,88.4
	c0,0.9-0.4,2,0.8,3c3.5-4.5,6.3-9.4,8.1-14.7c4.8-14,7.6-28.3,6-43.1c-0.1-1.3-0.2-2.7,0-4c0.3-1.4,0.4-2.8,1.8-3.6
	c2.8,1,2.7,3.6,2.9,5.7c2,21.5-1.9,41.7-13.1,60.3c-0.9,1.5-2.5,2.7-2.5,5c4.4-1.1,8.2-3.1,11.8-5.4c6.8-4.2,13.1-9.2,19.2-14.3
	c2.6-2.1,2.2-4.6,2-7.2c0.1-1.3,0.3-2.6,1.7-3.3c1.4,0.1,1.5,1.3,1.7,2.3c-0.1,14-0.2,27.9-0.3,41.9c-0.5,1.4-1.3,2-2.8,1
	c1.9-2.1,2.3-4.6,1.7-7.3C99.6,270.8,99.5,270.4,99.7,269.9z"/>
<path class="st2" d="M101.1,235.7c-0.8-0.5-1.1-1.2-1.1-2.1c-1.7-1.8-2.1-4.1-2.3-6.4c-1.7-17.9-1.1-35.8-0.9-53.6
	c0.1-0.5,0.2-1.1,0.5-1.6c1.3-1.6,3.2-2.3,4.8-3.4c1,5.2,3.4,10,1.2,15.7c-1.2,3.1-0.1,6.6,0.9,10.1c1.7,6.1,2.7,12.8-0.9,18.7
	c-1.6,2.7-1.3,5.4-1.4,8.2c-0.1,4.6,0,9.3,0,14C101.6,235.4,101.4,235.5,101.1,235.7z"/>
<path class="st2" d="M122.3,254.7c0.9-0.4,1.7-0.8,2.6-1.2c0.6-0.5,1.3-0.5,2-0.2c3.1,6.1,4.4,12.7,5.1,19.4c-2.7,2-5.6,2.9-8.6,0.7
	c-3.6-2.7-4.5-6.7-4.2-11C119.4,259.6,120.7,257,122.3,254.7z"/>
<path class="st2" d="M148.8,281.9c0.4-1.2,0-3.2,1.7-3.1c4.2,0.3,8.2-1.8,12.4-0.3c1,3.5-0.8,5.3-3.8,6.2
	C155,286.1,151.4,286,148.8,281.9z"/>
<path class="st2" d="M201.8,274.9c2.5-3.3,10.3-3.5,12.2-0.3c-0.4,3.5-2.8,5.2-6,5.2C204.8,280,202.4,278.4,201.8,274.9z"/>
<path class="st0" d="M9.2,279.5c2.4,1.4,5,2.6,7.8,3.2c0,2.1-1.4,1.2-2.4,1.1c-1.2-0.2-2.3-0.3-3.5-0.5c-1.4-0.9-2.7-1.8-4.1-2.7
	C7.5,279.7,8.3,279.6,9.2,279.5z"/>
<path class="st0" d="M14.6,283.8c0.8-0.4,1.6-0.7,2.4-1.1c1.3,0.7,3,0.6,4.1,1.9C18.8,284.9,16.6,285.1,14.6,283.8z"/>
<path class="st1" d="M184.8,25c0.1,1.6,1.2,2.5,2.2,3.6c10,20.7,15.1,42.7,18.2,65.4c0.1,0.6,0.5,1.2,0.8,1.8
	c0.8,14.6,2.8,29,8.1,42.8c-0.2,4.4-11.4,19.3-15.4,20.5c-0.7,0.2-1.3,0-1.9-0.4c-3.8-5.8-4.9-12.5-5.1-19
	c-1-25.7-5.4-50.9-9.7-76.1c-1.6-9.5-3.1-19-2.6-28.7c0.3-4.5-1.6-8.8-1.4-13.3c0.2-0.9,0.5-1.6,1.3-2.1
	C183.1,19.2,184.1,22,184.8,25z"/>
<path class="st0" d="M197.8,158.7c6.6-5.8,11.6-12.8,16.2-20.2c0.6,1.4,1.2,2.8,1.9,4.1c2,3,3.9,6.1,3,10c0,0.7,0,1.3,0,2
	c-2.2,1.5-4.2,3.4-6,5.4c-0.6,0.7-1.2,1.4-1.9,1.9c-3.5,1.7-6,4.7-8.6,7.5c-2,1.9-2.5,4.2-2.2,6.8c0.3,2.6,1,5.2,1.1,7.9
	c0.2,5.7,2.7,10.2,7.5,13.4c2.5,1.7,4.5,4,6.6,6.1c3.3,4.2,8.3,6.6,11.4,11c0.4,1.8-0.3,3.4-0.9,5c-1.1,0.6-2.1-0.6-3.3-0.2
	c0.7,1.3,2.9,0.5,3.2,2.2c-0.4,1.6-0.7,3.3-1.1,4.9c-0.5,0.7-1.1,1.5-1.6,2.2c-3.9-0.4-5.6-3.9-8.5-5.8c-4-6.4-10.1-11-14.6-17
	c-1.3-1.8-3.1-2.7-5.2-1.1c-11.1,8.7-23.2,16.1-33.2,26.1c-0.8,0.2-1.5,0-2-0.6c-1.5-4.5-1.4-9.1-1.8-13.7c-0.3-3.5,2.3-5.2,5.1-6.7
	c7.7-3.9,15.4-7.9,23.2-11.5c4.1-1.9,5.2-4.4,4.7-9c-1-10.4-4.6-18.9-14.2-24c-1.6-0.9-3-2.1-4.5-3.1c-3.8-4.4-8.4-7.8-12.9-11.3
	c-2.3,0.6,0.3,5.2-3.6,4.2c-2.5-8.6-2.8-17.4-1.8-26.2c2.4-4.1,4.3-0.6,5.6,0.8c4.5,4.8,8.3,10.2,12.8,14.9c1.2,1.3,2.4,2.6,4,3.6
	c3.7,5.3,8.2,9.9,12.3,14.9c1.8,2.2,3.1,1.8,4.7-0.1C194.7,161.5,195.7,159.5,197.8,158.7z"/>
<path class="st0" d="M215.1,222.6c3.6,0.8,5.1,4.3,8,6.1c-0.2,2.4-2.3,3.7-3.1,5.7c-1.8,1-0.5,2.3-0.3,3.5
	c0.8,5.4-0.8,10.2-3.6,14.7c-7.9,4.1-16.7,4-25.1,5.6c-8.2,1.6-16.8,1.7-25.2,2.3c-1.6,0.1-3.4,0.5-4.7-1c-1.3-7.4-0.8-15-1.9-22.5
	c-0.3-2.2-1-4.6,0.9-6.5c0.7,0,1.3,0,2,0c2.7-1.1,4.8,0.6,7,1.4c7.5,2.8,15,5,23.2,3.6c6.8-1.1,12.5-4.2,17.3-9.1
	C211.1,224.9,212.5,222.9,215.1,222.6z"/>
<path class="st1" d="M226.9,214.6c-4.8-2.5-8.9-5.8-12-10.3c-3.5-8.5-2.5-17.6-3.3-26.5c0.6-4.4-1.1-8.7-0.9-13
	c0-1.8,0.8-3.4,1.3-5.1c2.1-2,2.9-5.9,7-5.1C224.6,174.2,228.7,194,226.9,214.6z"/>
<path class="st1" d="M225.8,221.6c-0.5-0.1-1.1-0.6-1.4-0.4c-1.4,0.8-2.6,1.3-3.7-0.5c-0.8-1.4-0.2-2.2,0.8-3
	c1.9-1.5,2.5,0.8,3.6,1.4c0.3,0.1,0.6,0.3,0.9,0.5C225.9,220.3,225.8,220.9,225.8,221.6z"/>
<path class="st0" d="M9.2,279.5c-0.4,0.9-1.3,1-2.1,1.1c-5.2-2.5-5.9-7.6-6.9-12.5c0.5-2.7,0.5-5.6,1.5-8.2c0.3-0.5,0.7-0.7,1.3-0.5
	c2.1,1.5,1,3.7,1,5.5C3.8,270.5,5.1,275.5,9.2,279.5z"/>
<path class="st0" d="M99.7,269.9c0,0.5,0,0.9,0,1.4c-4.6,3.2-10.3,3.3-15.5,5c-4.1,1.3-8.3,2.2-12.5,3.3c-1.3,0.3-2.9,0.3-3.3-1.3
	c-0.5-1.7,0.9-2.3,2.2-2.6c8.5-2.3,16.9-4.5,25.4-6.8C97.6,268.5,98.7,268.9,99.7,269.9z"/>
<path class="st2" d="M5.1,239.6c0-1-0.1-2-0.1-3c5.2,0.3,8.4,3.7,11.3,7.4c0,0.9-0.6,1.3-1.3,1.5C11.6,243.8,8.9,240.8,5.1,239.6z"
	/>
<path class="st2" d="M15,245.6c0.5-0.4,0.9-0.8,1.4-1.2c3.5-0.6,5.7,0.9,6.8,4.2c-0.4,0.4-0.8,0.7-1.2,1.1
	C19.7,248.3,17.4,246.9,15,245.6z"/>
<path class="st1" d="M139.9,256.6c-4-6.3-3.9-13.3-3.4-20.2c1.5-19,3.8-38,3.3-57.1c-0.5-19.6-2.2-39.1-9-57.8c-2-5.7-4.9-10.9-8-16
	c-1.3-2-0.7-3.6,1.2-4.8c1.8-1.5,2.6,0.1,3.5,1.2c6.3,8,12.6,15.9,18.9,23.8c1.8,2.2,2.4,4.5,2.5,7.3c0.8,18.8,1.9,37.5,2.8,56.3
	c1.1,23.1,2.1,46.2,3.2,69.2C149.7,259.6,144.4,261.6,139.9,256.6z"/>
<path class="st0" d="M95,120.6c0.3,0.3,0.6,0.7,0.9,1c0.1,0.9,0.2,1.9,0.2,2.8c0.8,2.2-0.5,2.8-2.2,3.2c1.8,0.6,3.4,1.8,5,2.9
	c7.6,5.5,6.8,13.7,6.7,21.6c0,2.9-0.1,6.1-3.5,7.6c-1.7,1.4-2.5,3.7-4.8,4.5c-0.7,0.3-1.4,0.7-2.1,1c0.8,0.2,1.2-0.5,1.8-0.5
	c0.5-0.1,0.9-0.2,1.4-0.2c3-0.1,2.6,2.4,3.4,4.1l0,0c0,2.8-1.7,3.1-3.9,2.9c-1.8,0.6-3.7,1-5.4,0.6c-7.1-2-13.8,0.2-20.6,1.6
	c-1.3,0.3-2.6,0.5-4,0.4c-2.6-0.1-5.2-0.4-5.9-3.5c-0.7-3.1,1.7-3.9,4.2-4.5c-8.6-8.2-9.3-24.8-1.7-35.2c-0.6-0.8-1.5-0.7-2.2-0.7
	c-2.5,0-3.6-1.4-3.6-3.8c0-2.3,1.3-3.7,3.6-4c1.3-0.2,2.7-0.1,4,0.1c4.4,0.8,8.7,1.7,13.1,0c3.1-1.2,6.2-2.2,9.4-2.8
	c0.5-0.2,1-0.2,1.6-0.3C92.2,119.2,93.7,119.4,95,120.6z"/>
<path class="st1" d="M99,130.6c-3.1-0.9-6.3-1.9-9.8-2.9c2.4-2.3,6.1,0.7,7-3.2C97.3,126.4,97.3,128.9,99,130.6z"/>
<path class="st1" d="M96.9,163.4c1.8-1.2,3.6-2.5,5.4-3.7c-2.3,2.9,0.4,5.9-0.2,8.9c-1.1-1.3-1.5-3.7-4.1-3.1
	C97.3,164.9,96.8,164.3,96.9,163.4z"/>
<path class="st0" d="M23.2,248.5c-2.1-1.7-4.3-3.2-6.8-4.2c-3.8-2.6-7.6-5.2-11.4-7.8l0,0c-0.8-1.6-0.4-3.3-0.4-4.9
	c0-38,0-76.1,0-114.1c0-0.3,0-0.7,0-1c0.2-1.3-0.6-3,0.6-3.7c1.8-0.9,2.3,1.2,3.3,2.2c10.1,24.2,21.9,47.8,29.2,73.1
	c4.4,15.3,6.8,30.8,5.9,46.8c-0.3,5.7-2,11.1-4.4,16.3c-0.9,2-2,4.4-5.1,3.3C30.4,252.6,26.8,250.6,23.2,248.5z"/>
<path class="st0" d="M99.6,245.1c1.8,16-15.1,27.5-31.1,21.1c5.9-2.7,11.3-5.8,16.3-9.5C89.6,253.1,94.3,249.2,99.6,245.1z"/>
<path class="st2" d="M56,162.6c0.2-2.2-0.5-3.7-2.4-5c-14-9.8-26.8-21-38.6-33.4c-2.4-2.5-3.8-5.9-7-7.6c-0.7-1.1-1.4-2.2-2.1-3.3
	c-0.3,0-0.6,0.1-1,0.1c0,41.1,0,82.2,0,123.2c-1.6-1.5-0.9-3.4-0.9-5.2c0-38.3,0-76.7-0.1-115c0-2.4,0.2-4.6,1.1-6.8
	c4.8,5.6,9.4,11.5,14.5,16.8c7,7.2,14.6,13.8,22.4,20.3c4.9,4.1,10.9,6.9,15,11.9C56.9,160,57.4,161.5,56,162.6z"/>
<path class="st1" d="M99,236.6c-1.7-3-1.5-6.4-1.8-9.6c-1.7-17.2-1.1-34.6-1.1-51.9c0-1.4-0.5-3.2,1.8-3.4c0,9.4,0.3,18.9,0.1,28.3
	c-0.2,11.2,0.7,22.4,2,33.5C98.9,234.3,99,235.5,99,236.6z"/>
<path class="st1" d="M77,195.6c-2.1-7.3-2.4-14.8-3.1-22.2c0.6-0.1,1.1-0.2,1.7-0.2c0.8,6.5,1.6,13,2.5,19.4
	C76.9,193.4,77,194.5,77,195.6z"/>
<path class="st1" d="M178.9,20.7c-1.2-3.9-5.1-3.8-8-5.1c1.4-1.7,3.3-1.5,5.1-1.2c1.4,1.7,2.7,3.4,4.1,5.1
	C179.7,19.9,179.3,20.3,178.9,20.7z"/>
<path class="st1" d="M176.1,14.5c-1.4,1.8-3.4,0.9-5.1,1.2c-0.3-0.1-0.6-0.1-0.9-0.1c-6.4-6.7-12.7-6.6-19,0.1
	c-1.7,0.4-3.5,0.9-5.6,1.4c17.8,14.9,21.2,35.6,23.6,56.8c2.4,21.5,5,42.9,7.6,64.4c0.4,3.5,0,7-0.7,10.4c-2.1,1.2-2.8-0.6-3.9-1.8
	c-6-6.1-10.3-13.7-17-19.2c-2.5-29.4-4.4-58.9-10-87.9c-1.5-7.8-4.5-15.2-6.9-22.7c2.7-3.7,5.1-7.6,8.2-10.9
	c6.8-7.2,17.5-7.6,23.3-1.2C172.2,7.7,175.5,10.2,176.1,14.5z"/>
<path class="st1" d="M172,161.7c-3.1,8.5-8,15.9-13.7,24.3c-1.1-10.8-1.5-20.5-1.5-30.2c0-2.4,0-4.8,0-7.2
	C162.2,153.1,169.3,155,172,161.7z"/>
<path class="st1" d="M210.8,181.5c-3.8-3.7-6.4-8.2-8.8-12.8c2.6-2.8,4.2-7.1,9-7.1c0.9,1.1,0.4,2.3,0.5,3.5
	C211.5,170.6,213,176.2,210.8,181.5z"/>
<path class="st1" d="M159.4,138.7c1.6,0.3,2.5,1,2.4,2.6c-0.1,1.3-1,2.1-2.3,2.1c-1.5,0-2.4-1-2.3-2.6
	C157.3,139.5,158.3,138.9,159.4,138.7z"/>
<path class="st1" d="M165.7,219.4c-0.1,1.3-0.9,2.3-2.1,2.5c-1.3,0.2-2.2-1-2.3-2.1c-0.2-1.3,0.8-2.3,2-2.5
	C164.7,217.1,165.3,218.3,165.7,219.4z"/>
<path class="st1" d="M215.9,148.5c0,1.1-0.4,2-1.6,1.9c-1.3-0.1-2.1-1-2.1-2.2c0-1.2,0.6-2.3,2-2.2
	C215.5,146.2,215.8,147.3,215.9,148.5z"/>
<path class="st0" d="M211.1,164.7c-0.1-1-0.1-2-0.2-3c0.3-0.6,0.6-1.3,1-1.9c0,1.6,0,3.3,0,4.9C211.6,165.1,211.4,165.1,211.1,164.7
	z"/>
<path class="st0" d="M211.1,164.7c0.3,0,0.5,0,0.8,0c0.1,4.4,1.7,8.6,1,13c-1.5,0.9-0.2,3.2-2.1,3.8
	C210.9,175.9,211,170.3,211.1,164.7z"/>
<path class="st2" d="M4.9,15.6C36,29,53,53.9,62.2,85.4c3.5,11.8,4.4,24,6.3,36.1c0.2,1.3,0,1.9-1.3,2c-2.3-10.3-2.5-21-5.1-31.3
	c-7.8-30.9-22.5-56.7-51.9-71.9c-1.9-1-4-1.7-6-2.5C4,16.9,4.2,16.2,4.9,15.6z"/>
<path class="st2" d="M96,280.3c-12,4.6-24.1,8.2-37.1,8.8c-9.7,0.4-19.2-0.9-28.6-2.6c-3.1-0.5-6.2-1.2-9.2-1.8
	c-1.5-0.9-3.2-0.5-4.8-1.1c-2.8-1.1-6-1.3-8.3-3.6c-4.1-3.5-5.4-8.2-5.4-13.3c0-2.5,0-5-0.1-7.4c1.9-4,0.9-8.3,1.2-12.5
	c0.1-2.1-0.3-4.2,0.6-6.3c1.4-2.1,3.1-1.2,4.7-0.3c2.3,1.3,4.4,2.9,6.6,4.3c2.6,1.4,5,3.2,7.7,4.5c15.1,9.4,31.1,16.6,48.9,19.1
	c7.6,1.1,14.9-0.5,21.3-5.1c0.7-0.5,1.3-1.1,2-1.4c1.4-0.7,2.7-2.6,4.4-1.6c1.4,0.8,0.6,2.8,0.6,4.2c0.1,1.8,0.2,3.7-0.1,5.5
	c-9.6,2.6-19.3,4.5-28.6,8.2c7.7-1.6,15.4-3.5,23-5.4c1.7-0.4,3.4-1.4,5.3-0.8c0.8,2.6,0.5,5-0.8,7.4
	C98.5,279.9,97.5,280.6,96,280.3z"/>
<path class="st2" d="M160,230.6c0.6,6.2,1.3,12.4,1.8,18.7c0.3,3.5,0.2,6.9-0.8,10.3c-2.2,0.7-4.6,2.5-6.1-1
	c-2.7-5.4-2.2-11.4-2.4-17c-1.1-26.1-2.7-52.1-3.9-78.2c-0.4-9.1-1.2-18.3-1.2-27.4c0-4.4-1.2-8.1-4.1-11.4
	c-6.8-8-12.8-16.6-19.9-24.3c-1.1-10.4-1-20.8-1.1-31.2c-0.2-11.3,0.8-22.5,3.2-33.5c0-0.5,0.1-1.1,0.3-1.6c1.2-3.4,2.7-6.6,4.4-9.8
	c1.4-1.8,1.9-4.2,3.7-5.7c1.4-1.2,2.8-3.2,5-1.1c6.3,11.5,8.2,24.2,10.2,36.8c3.6,22.8,5.2,45.9,7.1,68.9c0.1,1.7,0.2,3.3-1.2,4.6
	c-0.2,9.5,0,18.9,1.8,28.2c1.9,1.5,1.5,3.6,1.5,5.5c-0.1,6.5,0.1,12.9,1.4,20c3.3-4.8,5.9-9.4,8.4-14.1c1.1-2,1.6-4.4,3.9-5.6
	c3.8-0.5,5.1,3.2,7.9,4.6c11.9,5.9,10.9,17.8,13,28.2c0.5,2.4-1.6,3-3.2,3.8c-8.9,4.4-17.8,9-26.9,13.2c-3.2,1.5-4,3.5-3.7,6.6
	C159.6,222.3,159.7,226.5,160,230.6z"/>
<path class="st2" d="M126.9,253.3c-0.7,0.1-1.3,0.1-2,0.2c0.1-0.1,0.3-0.4,0.2-0.4c-2.7-3.6-2-9.5-4.7-12
	c-8.1-7.8-8.9-17.3-8.3-27.1c0.5-7.7-0.3-15.2-0.7-22.8c-1-19-1.7-37.9,1.2-56.7c0.6-3.6,1.5-7.1,2.2-10.7c1.7-5.1,4.2-9.8,5.2-15.1
	c0.3-1.5,0.8-3.8,3.5-2.9c6.3,6.3,8.7,14.5,11,22.6c6.5,23.8,7.9,48.1,6.2,72.8c-0.9,12.8-2.1,25.5-3,38.3
	c-0.4,5.8,1.8,11.5,2.1,17.3c-3.1,2.9-4.8-0.8-7.1-1.4C130.8,254.6,129.8,251,126.9,253.3z"/>
<path class="st2" d="M66.9,123.7c-1.7-0.1-3.3-0.2-5-0.1c-2.2,0.1-1.9,1.9-1.9,3.4c-0.1,2,1,2.1,2.5,1.8c1.1-0.2,2.3-0.2,3.5-0.2
	c1,0,2.1,0.1,2.5,1.2c0.3,0.9-0.6,1.4-1.3,1.9c-2.7,2.1-5.9,4-6.1,8c-0.3,7.7-0.5,15.3,3.1,22.4c1.2,2.4,4.1,2.6,6,4.2
	c-1.1,1.7-2.7,1.1-4.1,1.2c-1.6,0.1-3.1,0.1-3,2.3c0.1,2,1.1,2.9,3.2,3c4,0,8-0.8,11.7-2c6.8-2.1,13.4-0.3,20,0.7l-0.3,0.3
	c-1.3,1.8-0.8,3.9-0.8,5.8c0,16.3-0.5,32.6,1.1,48.8c0.3,3.4,0.5,6.8,0.9,10.2c1.7,4.5-0.5,7-4,9.7c-7.9,6.3-15.8,12.6-25.1,16.8
	c-1.7,0.8-3.4,1.4-5.1,2c-1.1,0.4-2.4,0.9-3.2-0.3c-0.7-1,0.5-1.7,1.1-2.5c7.7-10.1,12.2-21.5,14.5-33.9c2.3-11.9,3.7-23.8,0.7-35.8
	c-2.6-4.1-1.2-9.1-2.8-13c1.2,5,1.3,10.6,1.8,16.1c1.9,16.4-0.3,32.4-5.8,47.9c-2.5,6.9-6.1,13.1-12.1,19.6c0-5.2,0-9.1,0-13
	c0-10.3,0.5-20.7-0.1-31c-1.1-18.9-0.8-37.9-0.9-56.8c0-1.3,0.2-2.7-1-3.7c-8.5-4.3-15.7-10.5-22.8-16.7c-9.3-8-18.1-16.6-25.7-26.3
	c-1.5-1.9-2.5-3.9-3.4-6C5,91.8,4.9,74,4.7,56.1c-0.1-12.8-1-25.6-0.5-38.4c2.5-1.1,4.5,0.3,6.6,1.3C26.9,27,39.1,39.3,48.4,54.5
	c10.6,17.3,16.2,36.3,18.1,56.5c0.4,4.1,1.8,8.1,1,12.3C67.3,123.4,67.1,123.6,66.9,123.7z"/>
<path class="st2" d="M34,254.6c3.5-0.3,3.8-3.5,4.7-5.8c4.7-11.3,4.1-23.2,2.7-34.9c-3.2-27-14.2-51.5-24.8-76.1
	c-3-7-5.7-14.1-8.6-21.2c4,0.7,5.5,4.5,7.8,7C27.2,136,40,146.8,53.7,156.5c2.2,1.6,3.8,3.2,2.4,6.1c0,13.5-0.7,27,0.2,40.5
	c1.3,19.1,0.2,38.2,0.9,57.3c0.1,3.5-1,3.6-3.6,2.5C47.1,260.1,40.5,257.4,34,254.6z"/>
<path class="st2" d="M197.8,158.7c-5.1,9.9-6.1,10.3-13,2.1c-3.2-3.8-8-6.6-8.9-12.1c-0.8-7.4-1.6-14.7-2.5-22.1
	c-2.7-22.5-4.5-45.1-8.1-67.4c-2.3-14.7-7.2-28.4-18.7-38.9c-1-0.9-2.4-2-1.6-3.3c1.2-2.2,3.7-1.9,5.8-2.1
	c6.1,0.5,12.1,0.3,18.2,0.1c0.5-0.1,1.1-0.1,1.6-0.1c3.9,0.4,7.3,1.4,8.2,5.9c0.7,4.1,2.1,8.2,1.9,12.3c-0.7,16.2,3.3,31.7,5.6,47.5
	c2.8,18.9,6.1,37.8,6.5,57C193.1,144.7,195,151.9,197.8,158.7z"/>
<path class="st2" d="M215.1,222.6c-12.4,15-26.9,18.6-45.3,11.3c-2.6-1-5.2-2.2-7.8-3.3c-1.4-1.8,0-2.6,1.2-3.5
	c10.6-8,21.2-16,31.8-24c1.1-0.8,2.2-2,3.4-0.5C203.8,209.3,211.2,214.5,215.1,222.6z"/>
<path class="st2" d="M212.9,177.7c0.6,8.9,1.3,17.8,1.9,26.6c-3.9-3.3-7.8-6.6-11.7-9.9c-1.5-1.3-2.1-2.8-2.3-4.7
	c-0.5-4.7-1-9.5-2.1-14.2c-0.7-3.3,0-5.5,3.1-6.8c4.1,2.2,4.7,7.5,8.5,10C211.3,178.6,211.7,177.2,212.9,177.7z"/>
<path class="st2" d="M9.1,7.8c4.1-1.8,8.1-3.8,12.7-2.4c1.7,2.8-1.5,4.4-1.6,6.4c1.1-1.7,1.6-4.3,4.6-4.7c4.9,1.6,8.2,5.3,11.1,9.2
	c1.8,2.4,3.7,4.6,6,6.4c0.3,0.3,0.6,0.7,0.8,1.2c3.4,5.9,7.3,11.4,10.5,17.4c4,7.6,7.5,15.4,10.6,23.4c0.5,1,1.3,1.8,1.9,2.8
	c0.3,0.6,0.4,1.3,0.5,2c0.4,3.8,1.9,7.4,3.2,10.9c3.9,10.6,5.8,21.6,8.7,32.5c0.4,3.2,0.8,6.4,2.3,9.3c0.1,0.5,0,0.9-0.3,1.3
	c-4.3,2.7-8.7,0.9-13.1,0.1l0.3-0.3c0.9-5.1-0.7-10.1-1.3-15.1c-1.8-15.9-6-31.2-13.2-45.5C42.6,43,28.4,27.3,7.8,18
	c-1.2-0.5-2.6-0.9-2.9-2.4C5.1,12.4,7.4,10.3,9.1,7.8z"/>
<path class="st2" d="M55.2,24.5c5.3,5.4,8.3,12.3,12.9,18.1c6.2,12.9,12.8,25.7,17.4,39.3c1.7,5,3.6,9.9,5.4,14.9
	c1.1,4.1,2,8.3,3.3,12.3c1.1,3.8,2.2,7.5,0.8,11.5c-1.7,0-3.4,0-5.1-0.1c-3.9-5.8-4.3-12.8-6.1-19.3c-7.1-24.9-17.1-48.5-29-71.4
	C53.1,26.5,53,26.5,55.2,24.5z"/>
<path class="st2" d="M65,69.6c0-0.6,0-1.3,0-1.9c-0.8-1.3-0.8-2.8-1.4-4.2c-6-13.9-11.8-28-21.6-39.8l0,0c-2-4.6-5.8-7.9-8.8-11.7
	c-0.6-0.8-4-3.2,0.7-3.2c3.3,1.4,6.6,2.7,10,4.1c0,0,0,0,0,0c1.1,0.5,2.5,0.6,3.1,1.9c7.4,12.1,13.3,24.9,19.3,37.7
	c9.9,21.1,16.9,43.3,22.5,65.9c0.2,0.8,0.2,1.7,0.3,2.5c-3,1-6.1,1.9-9.1,2.9c0-0.3,0-0.6,0-1c-0.3-4.1-1.1-8-2-12
	c-2.5-11.2-5.8-22.2-9.1-33.1C68,74.7,67,71.9,65,69.6z"/>
<path class="st2" d="M70,135.6c3.5-2.3,6.4-5.8,11.2-5.1c0.4,2,0.7,4.1,1.1,6.1c0.4,5.4,2.2,10.6,2.4,16c0.7,3.2-0.3,6.8,2.2,9.6
	c0.1,0.2,0.1,0.4,0.2,0.6c-4.4,2.5-8.8,2.7-13.1-0.1c-2.6-3-2.3-6.8-2.8-10.4C70.6,146.7,69,141.2,70,135.6z"/>
<path class="st2" d="M83,130.7c3.4,0.9,6.8,1.8,10.2,2.7c0,0.3,0,0.5-0.1,0.8c0.2,7.1,2.2,14.1,2.5,21.2c0,1.2,0.3,2.3-0.6,3.3
	c-2.4,1.8-5.1,3-7.9,4l-0.3-0.3c-3.7-2.6-1.2-6.5-1.9-9.7c-0.5-5.5-1.6-11-2.6-16.4C82.4,134.5,81.8,132.5,83,130.7z"/>
<path class="st1" d="M89.1,120.7c-2.9-9.5-5.9-18.9-8.7-28.4c-4.6-16-10.9-31.3-18.2-46.2C57,35.6,51.4,25.2,46,14.8
	c3-0.5,3.4,2.5,5.1,3.8c1.4,2,2.8,4,4.1,6c-2.1,2,0.1,3.2,0.9,4.7c15.2,29,27.2,59.2,33.9,91.4C89.7,120.7,89.4,120.7,89.1,120.7z"
	/>
<path class="st2" d="M93.2,133.4c8.7,0.9,8.9,6.1,9.2,15.3c0.1,3.9-0.6,7.7-5.4,8.9c-3.5-2.1-1.6-5.7-2.2-8.5
	c-1-5-2.5-10.1-1.9-15.3L93.2,133.4z"/>
<path class="st2" d="M71.9,161.8c-4.4-0.3-6.3-3.1-6.8-7.1c-0.4-4-1.4-8-0.5-12.2c0.6-2.9,1.6-4.9,4.2-6.1c2.4,5.9,2.3,12.2,3,18.4
	C72.1,157,74.1,159.5,71.9,161.8z"/>
<path class="st1" d="M71.9,161.8c-1-8.5-2-16.9-3-25.4c0.4-0.3,0.7-0.5,1.1-0.8c2.2,6.1,1.6,12.6,3,18.8c0.6,2.7,0.7,5.5,1.1,8.3
	C73.3,162.3,72.6,162.1,71.9,161.8z"/>
<path class="st1" d="M92.9,133.7c1.4,8,2.7,15.9,4.1,23.9c-0.7,0.4-1.3,0.8-2,1.2c-1.2-7.9-2.4-15.7-3.6-23.6
	C91.2,134,92,133.8,92.9,133.7z"/>
<path class="st1" d="M83,130.7c0.3,1.6,1.3,3.2,0.1,4.8c-0.7,0.6-1.3,0.6-2,0c-0.4-1.7-1.6-3.5,0.2-5.2
	C81.8,130.5,82.4,130.6,83,130.7z"/>
<path class="st1" d="M97.1,165.7c-1.5,1.6-3.3,0.9-5.1,0.8c0.4-1.7,1.8-1.6,2.9-2C95.8,164.6,96.7,164.7,97.1,165.7z"/>
<path class="st1" d="M97.1,165.7c-0.9-0.1-1.7-0.3-2.2-1.2c0.6-0.4,1.3-0.7,1.9-1.1c0.8,0.5,1.1,1.2,1.1,2
	C97.7,165.5,97.4,165.6,97.1,165.7z"/>
<path class="st1" d="M91.2,212.8c0,2.6-0.1,5.3,0,7.9c0,0.9,0.1,1.7-1,1.8c-1,0.1-1.3-0.3-1.5-1.4c-0.9-5.7-0.7-11.5-0.7-17.3
	c0-1.3,0.5-2.4,2-2.3c1.5,0.1,1,1.5,1,2.3c0.1,3,0,6,0,8.9C91.1,212.8,91.1,212.8,91.2,212.8z"/>
<path class="st1" d="M90,184.6c0,3.3,0,6.6,0,10c0,0.9,0.3,2.3-1.1,2.4c-1.5,0.1-1.8-1.2-1.9-2.4c-0.1-2-0.1-4-0.1-6
	C86.5,186.2,85.2,183.1,90,184.6z"/>
<path class="st1" d="M92,232.8c-0.6,1.7,1.1,5.2-1.4,5.2c-3-0.1-1.5-3.7-1.5-5.6c0-2.2-1.6-5.9,1.4-6.2
	C92.3,226,91.9,230.2,92,232.8z"/>
<path class="st1" d="M87,179.6c-1.2-1.9-1-4.1-1-6.2c0-0.9-1.3-2.6,0.9-2.5c1.6,0.1,2.3,1.5,1.8,2.9c-0.7,1.9-0.7,3.9-0.7,5.8
	C87.7,180,87.3,180,87,179.6z"/>
<path class="st1" d="M87,179.6c0.3,0,0.7,0,1,0c0.7,1.7,1.3,3.3,2,5c-3.2-0.3-3,1.9-3,4C85.3,185.6,85.8,182.6,87,179.6z"/>
<path class="st0" d="M25.1,7.7c-4.1,1.4-3.5,6-6.4,9.5c-0.8-5.1,2.1-8.3,3.2-11.9c0.4-0.6,0.8-1.1,1.2-1.7c3.8-2.7,5.4,0.2,7,2.9
	C29.1,10,26.9,8.3,25.1,7.7z"/>
<path class="st1" d="M25.1,7.7c1.5-1,3.7,0.8,5-1.1c1.3,0.5,2.5,0.9,3.8,1.4c0,0.2,0,0.5,0.1,0.7c-1.6,0.2-1.4,0.9-0.5,1.8
	c2.2,2.4,4.4,4.8,6.6,7.2c1.5,1.7,3.2,3.3,2.1,6c-3.1-0.5-4.6-3-6.1-5.3C33,14,28.9,11,25.1,7.7z"/>
<path class="st1" d="M42,23.6c5,1.6,6.5,6.3,8.7,10.2c5.5,9.6,10.4,19.4,14.2,29.8c-0.8,0.6-1,1.7-2,2c-3.6-6.4-5.5-13.6-9.2-19.9
	c-3.7-6.4-6.5-13.3-11.5-18.9C41.4,25.8,41.4,24.7,42,23.6z"/>
<path class="st1" d="M65,69.6c3.7-0.3,3.8,3,4.3,5c3.3,12,7.9,23.6,9.7,36c0.8,2.2,0.1,2.8-2,2c-4.4-13.5-6.2-27.7-12.2-40.7
	C64.5,71.3,64.9,70.4,65,69.6z"/>
<path class="st1" d="M77,112.6c1.3-0.1,2-0.7,2-2c0.6,4,3.7,7.8,1,12C76.5,120.1,77.1,116.2,77,112.6z"/>
<path class="st1" d="M63,65.6c0.1-1.3,0.7-2,2-2c0.1,1.4,1,2.7,0,4.1C63.8,67.6,63.1,66.9,63,65.6z"/>
<path class="st1" d="M81,135.6c0.7,0,1.4,0,2,0c2.5,5.8,3,11.8,3,18c-0.7,0.5-1.3,0.6-2,0C82.6,147.7,81.1,141.8,81,135.6z"/>
<path class="st1" d="M84,153.6c0.7,0,1.3,0,2,0c0.6,2.9-1,6.1,0.9,8.9C81.8,160.9,84.7,156.7,84,153.6z"/>
</svg>
