<?xml version="1.0" encoding="utf-8"?>
<!-- Generator: Adobe Illustrator 19.0.0, SVG Export Plug-In . SVG Version: 6.00 Build 0)  -->
<svg version="1.1" xmlns="http://www.w3.org/2000/svg" xmlns:xlink="http://www.w3.org/1999/xlink" x="0px" y="0px"
	 viewBox="-288 379.9 34.1 34.1" style="enable-background:new -288 379.9 34.1 34.1;" xml:space="preserve">
<style type="text/css">
	.st0{display:none;}
	.st1{display:inline;}
	.st2{display:inline;fill:#FF1200;}
	.st3{fill:#FF1200;}
</style>
<g id="Layer_1" class="st0">
	<g id="Capa_1">
		<g class="st1">
			<g>
				<path d="M-56.5,537.1h2.6c0.1,0,0.2-0.1,0.2-0.1v-0.7h-0.1H-54c-0.3,0-0.5-0.2-0.5-0.5v-0.2c0-0.3,0.2-0.5,0.5-0.5h0.2h0.1v-0.7
					c0-0.1-0.1-0.1-0.2-0.1h-2.6c-0.1,0-0.2,0.1-0.2,0.1v2.6C-56.7,537-56.6,537.1-56.5,537.1z"/>
				<path d="M-51.4,538.5h-0.7c-0.2-0.4-0.6-0.6-1-0.6h-4.2c-0.4,0-0.8,0.2-1,0.6H-59c-0.6,0-1.2,0.5-1.2,1.2v0.2
					c0,0.3,0.1,0.6,0.3,0.8v14.5c-0.2,0.2-0.3,0.5-0.3,0.8v0.2c0,0.7,0.5,1.2,1.2,1.2h7.6c0.7,0,1.2-0.5,1.2-1.2V556
					c0-0.3-0.1-0.6-0.3-0.8v-14.5c0.2-0.2,0.3-0.5,0.3-0.8v-0.2C-50.2,539.1-50.7,538.5-51.4,538.5z M-51.8,549.3
					c0,0.4-0.3,0.7-0.7,0.7s-0.7-0.3-0.7-0.7v-1.2c0-0.4,0.3-0.7,0.7-0.7s0.7,0.3,0.7,0.7V549.3z M-51.8,545.9
					c0,0.4-0.3,0.7-0.7,0.7s-0.7-0.3-0.7-0.7v-4c0-0.4,0.3-0.7,0.7-0.7s0.7,0.3,0.7,0.7V545.9z"/>
				<path d="M-49.2,533.9c0.1,0,0.1-0.1,0.2-0.2c0-0.1,0-0.1,0-0.2c0-0.1-0.1-0.2-0.3-0.2h-0.1l-4,1.7L-49.2,533.9
					C-49.3,533.9-49.3,533.9-49.2,533.9z"/>
				<path d="M-49.2,537.3C-49.3,537.3-49.3,537.3-49.2,537.3l-4.2-1.2l4,1.7h0.1c0.1,0,0.2-0.1,0.3-0.2c0-0.1,0-0.1,0-0.2
					C-49.1,537.4-49.2,537.4-49.2,537.3z"/>
			</g>
		</g>
		<path class="st2" d="M-55,528.4c-9.4,0-17,7.6-17,17s7.6,17,17,17s17-7.6,17-17S-45.6,528.4-55,528.4z M-69,545.4
			c0-7.7,6.3-14,14-14c3.7,0,7,1.4,9.5,3.8l-20,19.5C-67.6,552.1-69,548.9-69,545.4z M-55,559.4c-3.1,0-6-1-8.3-2.7l19.8-19.2
			c1.6,2.3,2.5,5,2.5,8C-41,553.1-47.2,559.4-55,559.4z"/>
	</g>
	<g id="Layer_2">
		<g class="st1">
			<g>
				<g>
					<path class="st3" d="M-38.6,555.7l-13.8-22.8c-0.5-0.9-1.5-1.5-2.6-1.5s-2,0.6-2.6,1.5l-13.8,22.9c-0.6,0.9-0.6,2.1,0,3
						c0.5,0.9,1.5,1.5,2.6,1.5h27.6c1.1,0,2.1-0.6,2.6-1.5C-38,557.8-38,556.6-38.6,555.7z M-40.5,557.7c-0.1,0.3-0.4,0.4-0.7,0.4
						h-27.6c-0.3,0-0.6-0.2-0.7-0.4c-0.1-0.3-0.1-0.6,0-0.8l13.8-22.9c0.1-0.2,0.4-0.4,0.7-0.4s0.6,0.2,0.7,0.4l13.8,22.9
						C-40.3,557.1-40.3,557.4-40.5,557.7z"/>
				</g>
			</g>
			<g>
				<g>
					<path class="st3" d="M-55,540.4c-0.8,0-1.5,0.4-1.5,1.2c0,2.4,0.3,5.9,0.3,8.3c0,0.6,0.5,0.9,1.2,0.9c0.5,0,1.2-0.3,1.2-0.9
						c0-2.4,0.3-5.9,0.3-8.3C-53.5,540.8-54.2,540.4-55,540.4z"/>
				</g>
			</g>
			<g>
				<g>
					<path class="st3" d="M-54.9,552.2c-0.9,0-1.6,0.7-1.6,1.6c0,0.8,0.7,1.6,1.6,1.6c0.8,0,1.5-0.7,1.5-1.6S-54.1,552.2-54.9,552.2
						z"/>
				</g>
			</g>
		</g>
	</g>
	<g id="Layer_3" class="st1">
		<g>
			<g>
				<g>
					<path class="st3" d="M-277.9,386c-0.1-0.1-0.2-0.3-0.3-0.4c-0.1-0.1-0.3-0.2-0.4-0.2c-0.2-0.1-0.4-0.1-0.6-0.2h-0.2v-1.1
						c0.1,0,0.2,0,0.3,0.1c0.1,0,0.2,0.1,0.3,0.1c0.1,0,0.2,0.1,0.2,0.1c0.1,0,0.1,0.1,0.1,0.1l0.4-0.7c-0.2-0.1-0.4-0.2-0.6-0.3
						c-0.2-0.1-0.5-0.1-0.7-0.2v-0.6h-0.3v0.6c-0.2,0-0.4,0.1-0.6,0.1c-0.2,0.1-0.3,0.2-0.4,0.3c-0.1,0.1-0.2,0.3-0.3,0.4
						c-0.1,0.2-0.1,0.3-0.1,0.6c0,0.2,0,0.3,0.1,0.4c0.1,0.1,0.1,0.2,0.2,0.3c0.1,0.1,0.2,0.2,0.4,0.2c0.2,0.1,0.3,0.1,0.5,0.2h0.1
						h0.1v1.1c-0.1,0-0.3,0-0.4-0.1c-0.1,0-0.3-0.1-0.4-0.1c-0.1-0.1-0.2-0.1-0.3-0.2c-0.1-0.1-0.1-0.1-0.2-0.1l-0.4,0.7
						c0.2,0.2,0.5,0.3,0.7,0.4c0.3,0.1,0.6,0.2,0.8,0.2v0.7h0.4v-0.7c0.2,0,0.4,0,0.6-0.1c0.2-0.1,0.3-0.1,0.5-0.2
						c0.1-0.1,0.2-0.2,0.3-0.4c0.1-0.2,0.1-0.4,0.1-0.6C-277.8,386.3-277.8,386.3-277.9,386z M-279.6,385.1
						c-0.2-0.1-0.3-0.1-0.4-0.2c-0.1-0.1-0.1-0.2-0.1-0.3c0-0.3,0.2-0.5,0.6-0.5v1H-279.6z M-279.4,387.1v-1
						c0.2,0.1,0.4,0.1,0.5,0.2c0.1,0.1,0.2,0.2,0.2,0.3C-278.7,387-278.9,387.1-279.4,387.1z"/>
				</g>
			</g>
			<g>
				<g>
					<path class="st3" d="M-277.6,407v4.5h4.5V407H-277.6z M-274.2,410.5h-2.4V408h2.4V410.5z"/>
				</g>
			</g>
			<g>
				<g>
					<path class="st3" d="M-271.7,407v4.5h4.5V407H-271.7z M-268.3,410.5h-2.4V408h2.4V410.5z"/>
				</g>
			</g>
			<g>
				<g>
					<path class="st3" d="M-277.6,401.3v4.5h4.5v-4.5H-277.6z M-274.2,404.8h-2.4v-2.4h2.4V404.8z"/>
				</g>
			</g>
			<g>
				<g>
					<path class="st3" d="M-271.7,401.3v4.5h4.5v-4.5H-271.7z M-268.3,404.8h-2.4v-2.4h2.4V404.8z"/>
				</g>
			</g>
			<g>
				<g>
					<path class="st3" d="M-277.6,395.6v4.5h4.5v-4.5H-277.6z M-274.2,399h-2.4v-2.4h2.4V399z"/>
				</g>
			</g>
			<g>
				<g>
					<path class="st3" d="M-266.3,395.6v4.5h4.5v-4.5H-266.3z M-262.8,399h-2.4v-2.4h2.4V399z"/>
				</g>
			</g>
			<g>
				<g>
					<path class="st3" d="M-271.7,395.6v4.5h4.5v-4.5H-271.7z M-268.3,399h-2.4v-2.4h2.4V399z"/>
				</g>
			</g>
			<g>
				<g>
					<rect x="-279.9" y="392.6" class="st3" width="1" height="1"/>
				</g>
			</g>
			<g>
				<g>
					<path class="st3" d="M-273.9,384.5c-0.7-2.5-2.9-4.3-5.6-4.3c-3.2,0-5.8,2.6-5.8,5.8c0,3.2,2.6,5.8,5.8,5.8
						c0.7,0,1.3-0.1,1.9-0.3v2.3h15.8v-7h-12c0-0.2,0-0.5,0-0.7c0-0.2,0-0.3,0-0.5h13.2v27.2h-18.3V395h-1v18.8h20.3v-29.3H-273.9z
						 M-279.5,390.6c-2.6,0-4.8-2.1-4.8-4.8c0-2.6,2.1-4.8,4.8-4.8c2.6,0,4.8,2.1,4.8,4.8C-274.8,388.5-276.9,390.6-279.5,390.6z
						 M-262.8,387.6v5h-13.8V391c1.2-0.7,2.2-1.9,2.6-3.3H-262.8z"/>
				</g>
			</g>
			<g>
				<g>
					<rect x="-266.3" y="406.6" class="st3" width="1" height="1"/>
				</g>
			</g>
			<g>
				<g>
					<polygon class="st3" points="-266.3,401.3 -266.3,405.3 -265.2,405.3 -265.2,402.3 -262.8,402.3 -262.8,410.5 -265.2,410.5 
						-265.2,408.8 -266.3,408.8 -266.3,411.5 -261.8,411.5 -261.8,401.3 					"/>
				</g>
			</g>
		</g>
	</g>
</g>
<g id="Layer_2_1_">
	<g>
		<path class="st3" d="M-268.4,403.8l7.8-10c-1.1-0.3-2.2-0.3-3.3-0.3c-2.5,0-4.5,1-6.1,2.8c-1.2,1.5-1.8,3.2-2.4,4.7
			c-0.2,0.6-0.5,1.5-0.7,1.7c-0.7,0.8-1.5,0.7-1.6,0.7c-0.9-0.2-1.8,0.3-2.1,1.1c-0.3,0.9,0.2,1.9,1.1,2.3c0.7,0.3,3.3,0.5,5.3-1.8
			c0.6-0.7,1-1.7,1.4-2.8c0.2-0.5,0.4-1,0.5-1.4L-268.4,403.8L-268.4,403.8z"/>
		<path class="st3" d="M-254.4,407.2c-0.4-5.9-1.2-9-2.6-11c-0.5-0.7-1.1-1.2-1.7-1.6l-8.3,10.6h8v-4.7c0.4,1.6,0.7,3.9,1,7
			c0.1,0.9,0.9,1.6,1.8,1.6c0,0,0.1,0,0.1,0C-255.1,409-254.3,408.2-254.4,407.2z"/>
		<rect x="-268.4" y="407.2" class="st3" width="9.5" height="2.8"/>
		<polygon class="st3" points="-258.3,384.2 -258.3,380.9 -271,380.9 -269.5,384.2 		"/>
		<path class="st3" d="M-269.5,387.1c0,3.1,2.5,5.6,5.6,5.6c3.1,0,5.6-2.5,5.6-5.6v-1.8h-11.2V387.1z"/>
		<path class="st3" d="M-284.7,410.1c0,0.3,0.3,0.6,0.6,0.6h10.8c0.3,0,0.6-0.3,0.6-0.6v-2h-12V410.1z"/>
		<path class="st3" d="M-287.4,396.5v10.8c0,0.3,0.3,0.6,0.6,0.6h2v-12h-2C-287.1,396-287.4,396.2-287.4,396.5z"/>
	</g>
</g>
</svg>
