<?xml version="1.0" encoding="utf-8"?>
<!-- Generator: Adobe Illustrator 19.0.0, SVG Export Plug-In . SVG Version: 6.00 Build 0)  -->
<svg version="1.1" id="Layer_1" xmlns="http://www.w3.org/2000/svg" xmlns:xlink="http://www.w3.org/1999/xlink" x="0px" y="0px"
	 viewBox="0 0 60.4 64.7" style="enable-background:new 0 0 60.4 64.7;" xml:space="preserve">
<style type="text/css">
	.st0{fill:#FFFFFF;}
</style>
<path class="st0" d="M1,29.6h38l0,0c0.4,0,0.7-0.3,0.7-0.7c0-0.1,0-0.3-0.1-0.4L36,21V0.9c0-0.4-0.3-0.7-0.7-0.7h-8.1
	c-0.4,0-0.7,0.3-0.7,0.7c0,0.4,0.3,0.7,0.7,0.7h7.4v18.8H5.6V1.6h24.9c0.4,0,0.7-0.3,0.7-0.7c0-0.4-0.3-0.7-0.7-0.7H4.9
	c-0.4,0-0.7,0.3-0.7,0.7V21l-3.7,7.5c-0.1,0.2-0.1,0.5,0,0.7C0.5,29.4,0.8,29.6,1,29.6z M15,28.1l0.6-1.3h8.8l0.6,1.3H15z M5.3,21.9
	h29.5l3.1,6.2H26.7l-1.2-2.3c-0.1-0.3-0.4-0.4-0.7-0.4h-9.7c-0.3,0-0.5,0.2-0.7,0.4l-1.2,2.3H2.2L5.3,21.9z"/>
<path class="st0" d="M53.9,15.4c0.1,0,0.2,0,0.3,0c0.1,0,0.2-0.1,0.3-0.2c0.1-0.1,0.2-0.2,0.2-0.3l3.4-6.3c0.2-0.4,0.1-0.9-0.3-1.1
	c-0.4-0.2-0.9-0.1-1.1,0.3l-2.5,4.5l-0.6-2.1C51.9,4.5,45.8,1.2,40,2.8c-0.4,0.1-0.7,0.6-0.6,1c0.1,0.4,0.6,0.7,1,0.6
	C45.4,3,50.6,5.9,52,10.8l0.6,2.1l-4.5-2.5c-0.4-0.2-0.9-0.1-1.1,0.3c-0.2,0.4-0.1,0.9,0.3,1.1l6.3,3.4
	C53.7,15.4,53.8,15.4,53.9,15.4z"/>
<path class="st0" d="M32.6,58.1c0,0.1-0.1,0.2-0.1,0.3c0,0.1,0,0.2,0.1,0.3c0,0.1,0.1,0.2,0.2,0.3l4.9,5.2c0.3,0.3,0.8,0.4,1.2,0
	c0.3-0.3,0.4-0.9,0-1.2l-3.5-3.8l2.2,0.1c6,0.2,11.1-4.5,11.4-10.6c0-0.5-0.3-0.9-0.8-0.9c-0.5,0-0.9,0.3-0.9,0.8
	c-0.2,5.1-4.5,9.1-9.6,8.9l-2.2-0.1l3.8-3.5c0.3-0.3,0.4-0.9,0-1.2c-0.3-0.3-0.9-0.4-1.2,0l-5.2,4.9C32.7,57.9,32.7,58,32.6,58.1z"
	/>
<g>
	<path class="st0" d="M58.2,17.2H45.9c-1.2,0-2.1,1-2.1,2.1v24.9c0,1.2,1,2.1,2.1,2.1h12.3c1.2,0,2.1-1,2.1-2.1V19.3
		C60.3,18.2,59.3,17.2,58.2,17.2z M44.7,21.1h14.6v18.5H44.7V21.1z M45.9,18.2h12.3c0.6,0,1.2,0.5,1.2,1.2v0.8H44.7v-0.8
		C44.7,18.7,45.3,18.2,45.9,18.2z M58.2,45.4H45.9c-0.6,0-1.2-0.5-1.2-1.2v-3.7h14.6v3.7C59.3,44.9,58.8,45.4,58.2,45.4z"/>
	<path class="st0" d="M52,41c-1.1,0-1.9,0.9-1.9,1.9c0,1.1,0.9,1.9,1.9,1.9c1.1,0,1.9-0.9,1.9-1.9C54,41.9,53.1,41,52,41z M52,44
		c-0.5,0-1-0.4-1-1c0-0.5,0.4-1,1-1c0.5,0,1,0.4,1,1C53,43.5,52.6,44,52,44z"/>
	<path class="st0" d="M50.1,19.6H52c0.3,0,0.5-0.2,0.5-0.5c0-0.3-0.2-0.5-0.5-0.5h-1.9c-0.3,0-0.5,0.2-0.5,0.5
		C49.6,19.4,49.8,19.6,50.1,19.6z"/>
	<path class="st0" d="M53.5,19.6H54c0.3,0,0.5-0.2,0.5-0.5c0-0.3-0.2-0.5-0.5-0.5h-0.5c-0.3,0-0.5,0.2-0.5,0.5
		C53,19.4,53.2,19.6,53.5,19.6z"/>
</g>
<g>
	<path class="st0" d="M29.1,57.9c-0.1-0.7-0.5-1.2-1.1-1.6l-6.8-3.9c-0.8-0.5-1.9-0.3-2.6,0.3l-1.3,1.3c-0.4,0.4-0.9,0.4-1.3,0.1
		c-1.1-0.9-2.1-1.8-3.1-2.8c-1-1-1.9-2-2.8-3.1c-0.3-0.4-0.3-1,0.1-1.3l1.3-1.3c0.7-0.7,0.8-1.7,0.3-2.6l-3.9-6.8
		c-0.3-0.6-0.9-1-1.6-1.1c-0.7-0.1-1.3,0.1-1.8,0.6l-2,2c-1.4,1.4-1.4,4-0.1,7.3c1.3,3.2,3.8,6.6,6.9,9.8c3.1,3.1,6.6,5.6,9.8,6.9
		c1.6,0.7,3.1,1,4.3,1c1.3,0,2.3-0.4,3-1.1l2-2C28.9,59.2,29.1,58.6,29.1,57.9L29.1,57.9z M20.7,53.2l6.8,3.9
		c0.3,0.2,0.6,0.5,0.6,0.9c0,0.3,0,0.6-0.2,0.9l-9.1-5.2l0.4-0.4C19.6,53,20.3,52.9,20.7,53.2L20.7,53.2z M6.2,36.1
		c0.4,0.1,0.7,0.3,0.9,0.6l3.9,6.8c0.3,0.5,0.2,1.1-0.2,1.5l-0.3,0.3l-5.2-9c0.2-0.2,0.5-0.2,0.7-0.2C6.1,36.1,6.2,36.1,6.2,36.1
		L6.2,36.1z M25.8,61.1c-1.1,1.1-3.4,1.1-6.3-0.1c-3-1.3-6.4-3.7-9.5-6.7c-3.1-3.1-5.5-6.4-6.7-9.5c-1.2-2.9-1.3-5.2-0.1-6.3
		l1.5-1.5l5.2,9l-0.3,0.3c-0.7,0.7-0.7,1.8-0.1,2.5c0.9,1.1,1.8,2.1,2.8,3.2c1,1,2.1,2,3.2,2.9c0.7,0.6,1.8,0.5,2.5-0.1l0.3-0.3
		l9.1,5.2L25.8,61.1L25.8,61.1z"/>
</g>
</svg>
