<?xml version="1.0" encoding="utf-8"?>
<!-- Generator: Adobe Illustrator 19.0.0, SVG Export Plug-In . SVG Version: 6.00 Build 0)  -->
<svg version="1.1" id="Capa_1" xmlns="http://www.w3.org/2000/svg" xmlns:xlink="http://www.w3.org/1999/xlink" x="0px" y="0px"
	 viewBox="216 148.4 34.1 34.1" style="enable-background:new 216 148.4 34.1 34.1;" xml:space="preserve">
<style type="text/css">
	.st0{fill:#FF1200;}
</style>
<g>
	<g>
		<g>
			<path d="M231.5,157.2h2.6c0.1,0,0.2-0.1,0.2-0.1v-0.7c0,0-0.1,0-0.1,0H234c-0.3,0-0.5-0.2-0.5-0.5v-0.2c0-0.3,0.2-0.5,0.5-0.5
				h0.2c0,0,0.1,0,0.1,0v-0.7c0-0.1-0.1-0.1-0.2-0.1h-2.6c-0.1,0-0.2,0.1-0.2,0.1v2.6C231.3,157.1,231.4,157.2,231.5,157.2z"/>
			<path d="M236.6,158.6h-0.7c-0.2-0.4-0.6-0.6-1-0.6h-4.2c-0.4,0-0.8,0.2-1,0.6H229c-0.6,0-1.2,0.5-1.2,1.2v0.2
				c0,0.3,0.1,0.6,0.3,0.8v14.5c-0.2,0.2-0.3,0.5-0.3,0.8v0.2c0,0.7,0.5,1.2,1.2,1.2h7.6c0.7,0,1.2-0.5,1.2-1.2v-0.2
				c0-0.3-0.1-0.6-0.3-0.8v-14.5c0.2-0.2,0.3-0.5,0.3-0.8v-0.2C237.8,159.2,237.3,158.6,236.6,158.6z M236.2,169.4
				c0,0.4-0.3,0.7-0.7,0.7s-0.7-0.3-0.7-0.7v-1.2c0-0.4,0.3-0.7,0.7-0.7s0.7,0.3,0.7,0.7V169.4z M236.2,166c0,0.4-0.3,0.7-0.7,0.7
				s-0.7-0.3-0.7-0.7v-4c0-0.4,0.3-0.7,0.7-0.7s0.7,0.3,0.7,0.7V166z"/>
			<path d="M238.8,154c0.1,0,0.1-0.1,0.2-0.2c0-0.1,0-0.1,0-0.2c0-0.1-0.1-0.2-0.3-0.2c0,0-0.1,0-0.1,0l-4,1.7L238.8,154
				C238.7,154,238.7,154,238.8,154z"/>
			<path d="M238.8,157.4C238.7,157.4,238.7,157.4,238.8,157.4l-4.2-1.2l4,1.7c0,0,0.1,0,0.1,0c0.1,0,0.2-0.1,0.3-0.2
				c0-0.1,0-0.1,0-0.2C238.9,157.5,238.8,157.5,238.8,157.4z"/>
		</g>
	</g>
	<path class="st0" d="M233,148.5c-9.4,0-17,7.6-17,17c0,9.4,7.6,17,17,17c9.4,0,17-7.6,17-17C250,156.1,242.4,148.5,233,148.5z
		 M219,165.5c0-7.7,6.3-14,14-14c3.7,0,7,1.4,9.5,3.8l-20,19.5C220.4,172.2,219,169,219,165.5z M233,179.5c-3.1,0-6-1-8.3-2.7
		l19.8-19.2c1.6,2.3,2.5,5,2.5,8C247,173.2,240.8,179.5,233,179.5z"/>
</g>
</svg>
