<?xml version="1.0" encoding="utf-8"?>
<!-- Generator: Adobe Illustrator 19.0.0, SVG Export Plug-In . SVG Version: 6.00 Build 0)  -->
<svg version="1.1" id="Layer_1" xmlns="http://www.w3.org/2000/svg" xmlns:xlink="http://www.w3.org/1999/xlink" x="0px" y="0px"
	 viewBox="0 0 65.8 209.9" style="enable-background:new 0 0 65.8 209.9;" xml:space="preserve">
<style type="text/css">
	.st0{fill-rule:evenodd;clip-rule:evenodd;fill:#215D78;}
	.st1{fill-rule:evenodd;clip-rule:evenodd;fill:#3279AA;}
	.st2{fill-rule:evenodd;clip-rule:evenodd;fill:#2F2D2C;}
	.st3{fill-rule:evenodd;clip-rule:evenodd;fill:#2F2D2D;}
</style>
<path class="st0" d="M15.5,85.6c1.6,0.7,3.9,0.8,1.8,3.6c-1.3,1.8-0.7,4.2-0.5,6.3c1.1,11.3,0.5,22.6,0.9,33.9
	c0,1.6-1.2,4.5,2.6,3.6c1-0.2,1.1,1,1.5,1.7c2.8,5.7,4.2,6.2,10.7,3.8c2.2,3.5,3,7.1,0.7,10.9c-6.6,7.9-10.8,16.9-12.9,27
	c-0.7,3.5,1.3,5.6,4.9,5.8c2.9,0.2,5.5-0.9,8.1-2c1.8-0.8,3.6-1.9,5.6-0.8c2.7,3.4,3.1,7.5,3.1,11.7c-7.2,4.4-14.9,6.3-23.3,4.5
	c-0.3-0.2-0.6-0.4-0.9-0.5C5,191.8,3.3,189.6,3.3,175.9c0-4.6,0.3-9.3,0.2-13.9c0-3.2,2.3-4.9,4.4-7.6c-6,2.8-6.9-1.2-7.2-4.8
	c-1.3-17.6,0.9-34.7,8.9-50.8c0.6-0.3,1-0.2,1.5,0.2c1.5,2.5,1.1,5.2,0.1,7.7c-5.3,12.8-4.5,26-2.6,39.9c3.7-3.5,5.6-7,5.1-11.9
	c-1.1-12-1.1-23.9,0-35.9c0.3-3,1.4-6.3-0.9-9.1c-0.7-1-1-2-0.2-3.1C13.3,85.5,14.5,85.8,15.5,85.6z"/>
<path class="st0" d="M31.6,2.8c-3.3,1.4-5.9,3.6-8.7,5.7c-2.8,2.2-4.2,5-4.2,8.6c0.1,10.4,0.1,20.9,0,31.3c0,3,1.4,5.4,2,8.2
	c3.2,6.8,0.6,13.7,0.4,20.6c-0.1,2.3-1.8,2.4-3.6,1.6c-0.4,0-0.7,0.1-1.1,0.1c-1.5-9.6-1.6-19.3-1.9-29c-0.1-4.9,0.4-9.8,0.2-14.8
	c-0.3-5.1,0.2-10.3-0.5-15.4c-0.9-7.2,2.6-12.4,8.3-16.4c2.6-2,5.3-3.7,8.8-2C31.9,1.7,31.9,2.2,31.6,2.8z"/>
<path class="st0" d="M10.6,98.8l-0.5,0l-0.5-0.1c-1-0.1-1.9-0.1-2.9-0.2c0.6-1,1.2-1.9,1.8-2.9c1,0,2.2-0.7,2.8,0.8
	C11.5,97.4,11.4,98.2,10.6,98.8z"/>
<path class="st0" d="M10.5,92.5c0.3-1.6-0.2-3.4,1.2-4.8c0.9,1.2,1.5,2.6,1.5,4.1c-0.2,1.1-0.7,1.9-1.8,2.2
	C10.5,93.9,10.1,93.4,10.5,92.5z"/>
<path class="st0" d="M10.5,92.5c0.4,0.4,0.8,0.9,1.2,1.3c0.6,1.1,0.6,1.9-0.9,2.1c-0.7,0.1-1.6,1-2.2-0.2
	C9.2,94.6,9.8,93.5,10.5,92.5z"/>
<path class="st0" d="M12.4,91.7c-1.2-1.2-0.5-2.7-0.8-4c0.3-0.4,0.6-0.7,1-1.1c0.1,0.9,0.4,1.8,1.3,2.3
	C14.1,90.2,13.8,91.3,12.4,91.7z"/>
<path class="st0" d="M55.6,100.8c0.9,1.5,2.5,2.2,3.9,3c4.5,5.4,6.2,11.3,5.6,18.7c-1,12-0.8,24.2,0.1,36.3
	c0.7,9.1-2.4,17.2-8.5,24.1c-1.7,3-3.2,6.2-7.6,4.7c-1.8-3.7-0.9-7.8-1.6-11.8c-0.8-4.9-1.3-9.9-1.9-14.8
	c-0.9-7.7,3.7-13.5,8.3-19.1c2.1-2.5,4.9-4.6,6.3-7.7c1.4-2.9,3.2-6,0.6-9.2c-2.9-3.3-4.1-7.6-6.3-11.2c-1.1-1.7-2.2-3.5-4.6-3.2
	c-2.2,0.3-2.7,2.2-3.5,3.9c-1.8,4-2.2,8.4-2.3,12.6c-0.2,6.3-1.4,12.5-1.2,18.8c-3.3,3.2-5.7,3-6.3-0.8c-2.4-15.8-3-31.7,2.2-47.2
	c0.3-0.9,0.9-1.8,1.8-2.3c5,0.9,9.8,2.3,14.1,5C55.2,100.3,55.5,100.4,55.6,100.8z"/>
<path class="st0" d="M56.9,189.6c4.9,2,3.5,6.7,3.9,10.2c0.8,7.3,0,6.7-7.3,6.1c-5.9-0.5-12.2,1.2-17.9,3c-2.7,0.9-4.9,1.5-7.2,0.1
	c-2.4-1.4-5-1.7-7.5-2.3c-1.6-3.6-0.4-6,3.2-7.2c9.4-3.1,18.7-6.6,28.1-9.7C53.7,189.1,55.3,188.6,56.9,189.6z"/>
<path class="st1" d="M56.9,189.6c-11,3.8-21.9,7.7-33,11.2c-3.3,1.1-3.3,3.2-3.1,5.8c-2.2-3.4-0.7-7.4-1.9-10.9
	c7.8-0.8,15.4-2.1,22.8-4.7c2-2.6,4.8-3.3,7.9-3.3c3-0.7,4.9-3,7.2-4.7C56.8,185.1,56.8,187.3,56.9,189.6z"/>
<path class="st0" d="M49.6,187.6c-2.1,2.4-5.2,2.3-7.9,3.3c-1-3.7-2-7.4-3.1-11.1c-1.4-1.1-2.5,0-3.6,0.6c-2.3,1.1-4.6,1.9-7,2.4
	c-6.2,1.3-8.8-1.1-7.9-7.3c1.1-7.2,4.6-13.4,8-19.6c1.3-2.3,2.7-4.5,3.6-7c1.4-0.2,2.3-0.9,1.7-2.3c-1-2.6-0.5-5.2-0.8-7.8
	c-1.5-13.7-2.2-27.4,2.1-40.8c1.1-3.5,2.9-4.6,6-2.2c-2.9,10.8-4.4,21.7-4.1,32.8c0.1,5.1,1.6,10.1,1.1,15.3
	c-0.1,1.3,0.3,2.9,1.6,3.4c1.8,0.6,2.5-1.2,3.3-2.4c0.1-10.6,0.3-21.1,3.5-31.3c0.6-1.8,1.2-4,3.7-4.2c2.4-0.2,3.4,1.6,4.6,3.2
	c2.9,3.8,3.6,8.9,7.2,12.3c1.7-0.7,1.9,0.1,2,1.6c0.4,5.2-1.6,9.4-5.1,13c-2.7,2.7-5.5,5.3-7.4,8.7c-3.2,5.6-5,10.9-3.2,17.9
	C49.7,172.8,50,180.3,49.6,187.6z"/>
<path class="st0" d="M54.6,9.9c-0.1,2.6,1.3,5.2,0.1,7.9c-4.5,4.7-10.8,4.6-16.6,5.9c-1.9,0.4-3.9,0.5-5.9,0.8
	c-1.5,0.2-3.1,0.6-4-1.1c-0.8-1.5-0.3-2.9,0.6-4.2c1.5-2.3,3.7-3.8,5.9-5.3c6-3.7,6-5.9-0.1-9.2c-1-0.6-1.9-1.2-2.9-1.9
	c0-0.3,0-0.7,0-1c3.8-3.1,7.7-0.1,11.5-0.1c2.8,0,5.5,1.2,8,2.7c0.7,0.4,1.3,0.8,1.9,1.4C54.2,6.9,54.2,8.5,54.6,9.9z"/>
<path class="st0" d="M54.6,23.8c0,2.6,0,5.3,0,7.9c-4.1,6.4-11.1,6.5-17.5,8c-1.1,0.3-2.3,0.2-3.5,0.3c-5.6,0.9-7.2-0.9-5.8-6.3
	c0.3-1.1,0.7-2,1.8-2C38.9,32.2,47,28.8,54.6,23.8z"/>
<path class="st2" d="M53.1,38.2c1.6,8.7,0.5,10.9-6.6,14.2c-4.6,2.1-9.5,3-14.5,3.4c-3.5,0.3-4.1-1.9-4.5-4.7
	c-0.4-3.3,1.7-3.2,4.1-3.4C39.8,47.1,47.2,44.6,53.1,38.2z"/>
<path class="st3" d="M53.3,52.8c-0.2,4.8,2.2,9.8-3,13.8c-1.9,1.5-0.4,5.4-0.6,8.2c-0.1,1.8,0.4,3.9-2.4,4c-2.8,0.1-2.9-1.8-2.7-3.7
	c0.5-4.6,0.2-8.1-6.1-6.3c-2,0.6-3.5-0.5-3.7-2.9c-0.2-2,0.5-3,2.6-3.3C44.1,61.8,49,58,53.3,52.8z"/>
<path class="st0" d="M17.6,78.8c1-0.3,2.3,0.4,2.4-1.6c0.2-6.9,0.5-13.7,0.8-20.6c2,2.2,4,4.4,5.9,6.6c3,3.5,2.5,8.1-0.8,13.3
	C23.7,80,21.1,80.7,17.6,78.8z"/>
<path class="st1" d="M31.7,148.8c0.2,2.9-1.5,5.1-2.9,7.3c-3.1,5-5.4,10.3-7.3,15.8c-1,3-2,6.4,0.2,9c2.5,3.1,5.8,0.8,8.8,0.5
	c2.8-0.3,4.9-3.9,8.2-1.6c-4.3,1-7.9,4.1-12.7,4c-5.4-0.1-7.9-3-6.8-8.2C21.3,165.7,26.1,157,31.7,148.8z"/>
<path class="st1" d="M61.7,124.8c-0.8,2.2-1.5,1.2-1.9-0.1c-1.6-4.4-3.7-8.5-6.4-12.3c-2.6-3.6-4.6-3.3-6.3,0.8
	c-2.3,5.4-2.7,11.3-3.2,17c-0.4,4.9-0.9,9.8-1.2,14.6c-1.8-1.8-1.3-4.2-0.9-6.1c1.5-6,0.4-12.2,1.7-18.2c0.6-2.6,1-5.2,2.1-7.6
	c0.9-1.9,1.5-4.1,4.3-4.2c2.8-0.1,4.3,1.7,5.5,3.7C57.6,116.5,59.6,120.7,61.7,124.8z"/>
<path class="st1" d="M15.5,85.6c2-2,0.6-4.5,1-6.7c0.3-0.4,0.7-0.6,1.2-0.7c4.1,0.8,6.6-1.1,8.2-4.6c1.7-3.6,1.8-7-1-10.1
	c-2.1-2.3-4-4.8-5.7-7.4c-0.7-1.3-1.4-2.7-1.5-4.2c-1-12.4-1.2-24.8,0-37.2c0.7-6.9,6.9-10,12.9-12.5c1.6-0.2,2.9,0.5,4.3,1.1
	c6.5,3.1,6.9,7.2,1,11.4c-2.5,1.8-6.9,3.6-5.7,6.7c1.3,3.3,5.6,0.8,8.5,0.6c4.5-0.3,8.8-1.5,12.9-3.5c1.1-0.5,2.2-1.7,3.6-0.4
	c1,1.8,0.9,3.6,0.1,5.4C50,29.7,42.8,31.8,35.1,33c-1.3,0.2-2.6,0.2-3.9,0.5c-1.6,0.5-1.9,1.7-1.9,3.1c0.1,1.7,1.1,2.3,2.7,2.1
	c6.7-0.9,13.5-1.3,19.3-5.5c1.3-0.9,2.7-3.2,4.3-0.3c0.9,5.6,0.4,11.2,0.4,16.9c-0.1,16.5,0.5,33.1-0.3,49.6c-0.9,2.3-2.5,1.7-4,1
	c-3.6-1.6-7.5-2.5-11.3-3.5c-2.8-0.7-3.9,1-4.7,3.2c-1.6,4.6-2.4,9.4-2.5,14.2c0,7-0.4,14,0.3,21c0.1,1.3,0.2,2.7-0.5,3.9
	c-5,3.3-7.9,2.3-12-1.6c-4.6-4.3-5.2-9.1-4.9-14.7C16.9,110.4,15,98.1,15.5,85.6z"/>
<path class="st1" d="M23.7,3.8C17.1,8.6,15,15,15.5,23.2c0.5,8.9,1.1,17.9-1,26.7c-1.1-7.1-0.7-14.3-1-21.5
	c-0.1-2.3,0.5-4.6-0.8-6.7c0-0.6-0.1-1.3-0.1-1.9c-0.1-4.1,0.6-8.1,2.4-11.9c0.2-0.4,0.5-0.8,0.8-1.1C18.3,5.6,20,2,23.7,3.8z"/>
</svg>
