<?xml version="1.0" encoding="utf-8"?>
<!-- Generator: Adobe Illustrator 19.0.0, SVG Export Plug-In . SVG Version: 6.00 Build 0)  -->
<svg version="1.1" id="Layer_1" xmlns="http://www.w3.org/2000/svg" xmlns:xlink="http://www.w3.org/1999/xlink" x="0px" y="0px"
	 viewBox="0 0 38.3 167.4" style="enable-background:new 0 0 38.3 167.4;" xml:space="preserve">
<style type="text/css">
	.st0{fill-rule:evenodd;clip-rule:evenodd;fill:#215D78;}
	.st1{fill-rule:evenodd;clip-rule:evenodd;fill:#3279AA;}
	.st2{fill-rule:evenodd;clip-rule:evenodd;fill:#3B87C8;}
	.st3{fill-rule:evenodd;clip-rule:evenodd;fill:#0C0C0C;}
	.st4{fill-rule:evenodd;clip-rule:evenodd;fill:#727272;}
	.st5{fill-rule:evenodd;clip-rule:evenodd;fill:#949393;}
</style>
<path class="st0" d="M10.3,41.4c0.1,6.1,0.1,12.1,0.2,18.2c0.7,1.3,0.9,2.7,0.8,4.1c0,2,0,4,0,6c0,7.6,2.1,15,2.1,22.5
	c-3.8,11.4-3.4,22.8-0.1,34.3c0.3,1.1,0.4,2.3,0.4,3.5c0,1.8,0.2,3.7,0,5.5c-0.9,5.8-1.2,11.8-5.7,16.4c-0.8,0.6-1.6,1.1-2.7,0.5
	c-0.5-1.8-0.2-3.6,0.5-5.3c1.4-3.4,0.9-6.6-2.2-8.6c-2.5-1.6-2-4.3-3.1-6.4c0.3-1.2,0.6-2.5,0.8-3.7c2.2-11,2.1-22,0.1-33.1
	c-0.7-3-0.2-5.7,0.9-8.6c2.5-6.8,4.3-13.9,2-21.2c-0.7-2.1,1.7-3.2,1-5.1c1-4.5,1.4-9,0.5-13.6C5.1,43.7,5.8,40.7,10.3,41.4z"/>
<path class="st0" d="M19.2,28.3c-12.1,1-12.1,1-12.1-10.9c0-2.6,0.1-5.3,0.1-7.9C8.9,3.4,13.7,2.1,19,1.6c5.1-0.5,10.2-0.7,15.3-1.1
	c3.2,1.9,4,4.6,3.7,8.3c-0.6,5.9-0.5,11.8-0.7,17.7c-0.3,0-0.6,0.1-0.9,0.1c-2.7-0.2-2.3-2.4-2.5-4c-0.3-2.6-0.1-5.2-0.1-7.9
	c0-5.3-0.5-5.8-6-5.8c-1.3,0-2.6-0.1-3.9,0.4c-0.4,0.2-0.9,0.4-1.3,0.7c-1.9,1.1-1.7,2.8-1.4,4.7C21.9,19.4,21.6,24,19.2,28.3z"/>
<path class="st1" d="M17.3,165.5c0-0.7,0-1.3-0.1-2c4.9,1.2,9.8,2.9,14.9,1.1c-3.6,5.2-8.4,1.3-12.7,1.7
	C19,165.4,18.1,165.6,17.3,165.5z"/>
<path class="st1" d="M8.3,155.7c1.5,0.4,2.9,0.6,4.6,0.2c2.1-0.5,0.4,1,0.5,1.6c-1.8,0.3-3.7,1.1-5.2-0.9C8,156.4,7.9,156.2,8,156
	C8.1,155.8,8.2,155.7,8.3,155.7z"/>
<path class="st1" d="M8.3,155.7c0.1,0.3,0.1,0.6-0.1,0.9c-1.8-0.8-3.4-1.8-2.9-4.2c0.5-0.3,1.1-0.7,1.6-1
	C6.5,153.1,7.9,154.3,8.3,155.7z"/>
<path class="st2" d="M32.3,58.6c-5.2-2.2-8.1-7-12.1-10.5c-1-0.9-1-2.4-0.8-3.8c1.1-5.2,0.6-10.5,0.8-15.7
	c-0.2-5.3,1.2-10.5,0.2-15.8c-0.3-1.6,0.3-3.3,1.8-4.3l0,0c3.1-1,6.2-0.2,9.3-0.5c3.8-0.4,4.1,3.5,3,4.3c-4.3,3.1-2,7.6-3.3,11.3
	c-3.8,2.8-2.8,5.5,0.1,8.2c1,5.1-0.1,10.3,2.2,15.4C35.1,50.5,32.8,54.7,32.3,58.6z"/>
<path class="st3" d="M30.5,135.9c0,5.3,0,10.7,0,16c0,2.3-0.2,4.5-3.2,4.6c-2.7,0-3.8-1.8-3.8-4.2c0-11.2,0-22.3,0-33.5
	c0-2.5,1.3-4.2,4-4.1c2.6,0.1,3.1,2.1,3.1,4.3C30.5,124.6,30.5,130.3,30.5,135.9z"/>
<path class="st2" d="M32.3,58.6c0-2.3,0.1-4.6,0.7-6.9c0.5-2.2,1.2-4.7-1.7-6.6c-2-1.3-0.8-4-1-6.1c-0.2-2.8,0-5.7-0.1-8.5
	c-1.7-2-1.7-4,0-6c0-2.6-0.2-5.3,0.1-7.9c0.2-1.7-1.5-5.3,3.1-4c1,0.3,0.8-1.1,0.8-1.9c0-1.7-1.1-2.2-2.6-2.2c-3.1,0-6.3,0-9.4,0
	c3.6-2,7.4-0.8,11.1-0.8c2.4,0,1.7,2.3,1.9,3.9c0.6,5-1.3,10.2,1,15.1c-2,1.2-1.9,3.2-2,5.2C34,39.9,34.8,48,33.5,56
	C33.3,57,33.3,58,32.3,58.6z"/>
<path class="st0" d="M13.2,130.6c2.3,1.6,1.9-0.7,2-1.6c0.5-2.9,0.5-5.8,2.2-8.4c3.6,5,3.5,10.4,2,16c-1.2,4.7-3.5,9-4.1,13.8
	c-1-3.7-1.7-7.3-0.3-11.1c0.5-1.3,1-4.6-2.7-2.8c0-2.1,0-4.1,0.1-6.2C12.7,130,13,130.1,13.2,130.6z"/>
<path class="st4" d="M31.4,153.1c0-11.4,0-22.8,0-34.2c0.2,0,0.3,0,0.5,0c0,11.5,0,22.9,0,34.4C31.8,153.2,31.6,153.1,31.4,153.1z"
	/>
<path class="st1" d="M22.3,8.5c-1.9,4.6-0.5,9.4-1,14c-0.2,2,0.8,4.3-1,6c-0.3-0.1-0.7-0.2-1-0.3c-0.3-5.3,2.1-10.4,0.3-15.8
	C18.9,10.9,20,8.9,22.3,8.5z"/>
<path class="st5" d="M12.2,64.6c-0.3-0.1-0.6-0.1-0.9-0.1c-0.4-0.2-0.7-0.5-0.8-0.9c0-1.3,0-2.7,0-4C12.6,60.7,12.3,62.7,12.2,64.6z
	"/>
<path class="st0" d="M24.5,42.2c0-9.2,0-18.4,0-27.5c0.2,0,0.3,0,0.5,0c0,9.2,0,18.4,0,27.6C24.9,42.2,24.7,42.2,24.5,42.2z"/>
<path class="st0" d="M30.3,24.5c0,2,0,4,0,6c-3.4,1.8-3.1-0.8-2.9-2.7C27.4,26.1,26.1,22.7,30.3,24.5z"/>
<path class="st0" d="M32.2,14.9c0,9.1,0,18.2,0,27.3c-0.2,0-0.3,0-0.5,0c0-9.2,0-18.3,0-27.5C31.8,14.7,32,14.8,32.2,14.9z"/>
<path class="st1" d="M37.3,26.5c-0.6,22.6-1.2,45.1-1.8,67.7c-0.5,20.9-1,41.8-1.5,62.8c-0.1,2.7,0,5.3-1.8,7.6
	c-5.2,2.9-10.2,1.6-15.1-1c0.1-4.5-0.8-8.7-2.7-12.8c0.3-4.3,1.3-8.4,2.9-12.5c2.5-6.2,1.6-12.4-1.2-18.4
	c-2.1-18.2-3.6-36.4-5.3-54.7c0.4-2.4-0.9-4.5-1.7-6.6C8.8,52.9,7.3,47,10.3,41.4C9.9,37,8.8,33,7,28.7C4.7,23.1,5.1,15.8,7.2,9.4
	c2.5,2.6,1.5,5.9,1.6,8.9c0.1,8.3,0.1,8.3,8.1,8.7c0.7,0,1.3,0.1,2,0.3c0.5,0.1,1,0.4,1.4,0.7c2.6,4.1,1.4,8.7,1.2,13.1
	c-0.4,6.3,3.5,12.2,10,14.1c1.5-2.2,1.4-4.7,1.4-7.2c0-5.3,0-10.6,0-15.9c0-2.4,0.1-4.7,2.8-5.8C36.3,26.1,36.8,26.2,37.3,26.5z"/>
<path class="st1" d="M1.4,95.4c3.9,7.9,3.3,16.3,2.4,24.6c-0.3,2.9-0.4,6-2.5,8.4C1.3,117.5,1.3,106.5,1.4,95.4z"/>
<path class="st1" d="M13.2,130.6c-0.3,0-0.6-0.1-0.8-0.2c-1.6-8.3-3.9-16.4-3.1-25c0.4-4.4,1-8.8,2.9-12.9
	C12.5,105.1,12.8,117.8,13.2,130.6z"/>
</svg>
