<?xml version="1.0" encoding="utf-8"?>
<!-- Generator: Adobe Illustrator 19.0.0, SVG Export Plug-In . SVG Version: 6.00 Build 0)  -->
<svg version="1.1" id="Layer_1" xmlns="http://www.w3.org/2000/svg" xmlns:xlink="http://www.w3.org/1999/xlink" x="0px" y="0px"
	 viewBox="0 0 25.6 16.5" style="enable-background:new 0 0 25.6 16.5;" xml:space="preserve">
<style type="text/css">
	.st0{fill:#FFFFFF;}
</style>
<g>
	<g>
		<g>
			<path class="st0" d="M24,16.3H1.7c-0.7,0-1.3-0.6-1.3-1.3V1.6c0-0.7,0.6-1.3,1.3-1.3H24c0.7,0,1.3,0.6,1.3,1.3V15
				C25.3,15.7,24.7,16.3,24,16.3z M2.6,15.2H23L14,9l-0.9,0.6c-0.2,0.1-0.4,0.1-0.6,0L11.6,9L2.6,15.2z M15,8.3l9.2,6.4V1.9L15,8.3z
				 M1.4,1.9v12.8l9.2-6.4L1.4,1.9z M2.6,1.4l10.2,7.1L23,1.4H2.6z"/>
		</g>
	</g>
</g>
</svg>
